/* XPM */
static char * shade_prelight_xpm[] = {
"24 24 3 1",
" 	c None",
".	c #DCDCDC",
"+	c #858585",
"........................",
"........................",
"........................",
"........................",
"........................",
"........................",
"........................",
"...........+............",
"..........+++...........",
".........+++++..........",
"........++.+.++.........",
".......++..+..++........",
"......++...+...++.......",
"...........+............",
"...........+............",
"...........+............",
"........................",
"........................",
"........................",
"........................",
"........................",
"........................",
"........................",
"........................"};
