/* XPM */
static char * shade_toggled_inactive_xpm[] = {
"24 24 3 1",
" 	c None",
".	c #1F1F1F",
"+	c #858585",
"........................",
"........................",
"........................",
"........................",
"........................",
"........................",
"........................",
"........................",
"...........+............",
"...........+............",
"...........+............",
"......++...+...++.......",
".......++..+..++........",
"........++.+.++.........",
".........+++++..........",
"..........+++...........",
"...........+............",
"........................",
"........................",
"........................",
"........................",
"........................",
"........................",
"........................"};
