/* XPM */
static char * stick_toggled_pressed_xpm[] = {
"24 24 4 1",
" 	c None",
".	c #BFBFBF",
"+	c #B5B5B5",
"@	c #858585",
"........................",
"........................",
"........................",
"........................",
"........................",
"........................",
"........................",
"........................",
"..........+@@+..........",
".........@@@@@@.........",
"........+@@@@@@+........",
"........@@@@@@@@........",
"........@@@@@@@@........",
"........+@@@@@@+........",
".........@@@@@@.........",
"..........+@@+..........",
"........................",
"........................",
"........................",
"........................",
"........................",
"........................",
"........................",
"........................"};
