<?xml version="1.0" encoding="UTF-8" standalone="no"?>
<!-- Created with Inkscape (http://www.inkscape.org/) -->
<svg id="svg7384" xmlns:rdf="http://www.w3.org/1999/02/22-rdf-syntax-ns#" xmlns="http://www.w3.org/2000/svg" height="16" width="16" version="1.1" xmlns:cc="http://creativecommons.org/ns#" xmlns:dc="http://purl.org/dc/elements/1.1/">
 <metadata id="metadata90">
  <rdf:RDF>
   <cc:Work rdf:about="">
    <dc:format>image/svg+xml</dc:format>
    <dc:type rdf:resource="http://purl.org/dc/dcmitype/StillImage"/>
    <dc:title>Gnome Symbolic Icon Theme</dc:title>
   </cc:Work>
  </rdf:RDF>
 </metadata>
 <title id="title9167">Gnome Symbolic Icon Theme</title>
 <g id="layer9" transform="translate(-141 -317)">
  <path id="path44124" style="enable-background:new;fill:#bebebe" d="m144.34 328.52c-1.2021 0.2879-1.993 1.0983-2.1875 2.4375-0.0536 0.5628-0.28002 1.3448 0.25 1.7188 0.70817 0.42322 1.5742 0.35362 2.3438 0.21875 0.56137-0.14838 0.80163-0.2025 1.25-0.625 0 0-0.0518-1.0705 0.1875-1.6562 1.931-0.81073 3.8101-0.75064 5.6875 0 0.23926 0.58579 0.1875 1.6562 0.1875 1.6562 0.44837 0.4225 0.68863 0.47662 1.25 0.625 0.76957 0.13487 1.6356 0.20447 2.3438-0.21875 0.53002-0.37393 0.30355-1.156 0.25-1.7188-0.19447-1.3392-0.98543-2.1496-2.1875-2.4375-3.1378-0.59102-6.2763-0.72425-9.375 0z"/>
  <path id="path44196" style="opacity:.5;block-progression:tb;text-indent:0;color:#bebebe;text-transform:none;fill:#bebebe" d="m150 319v0.78125a1.0011 1.0011 0 0 0 1.03 1.22h0.59375l-2.5625 2.5625-2.375-2.2812a1.0055 1.0055 0 0 0 -0.72 -0.28h-0.125-0.84375v0.75a1.0055 1.0055 0 0 0 0 0.0937 1.0055 1.0055 0 0 0 0.28125 0.875l3.0938 2.9688 0.6875 0.6875 0.71875-0.6875 3.2188-3.25v0.5625a1.0001 1.0001 0 0 0 1 1h1v-0.84375a1.0001 1.0001 0 0 0 0 -0.1562v-3-1h-1-2.9688a1.0001 1.0001 0 0 0 -0.0312 0h-1z"/>
 </g>
</svg>
