<?xml version="1.0" encoding="UTF-8" standalone="no"?>
<!-- Created with Inkscape (http://www.inkscape.org/) -->
<svg id="svg7384" xmlns:rdf="http://www.w3.org/1999/02/22-rdf-syntax-ns#" xmlns="http://www.w3.org/2000/svg" height="16" width="16" version="1.1" xmlns:cc="http://creativecommons.org/ns#" xmlns:dc="http://purl.org/dc/elements/1.1/">
 <metadata id="metadata90">
  <rdf:RDF>
   <cc:Work rdf:about="">
    <dc:format>image/svg+xml</dc:format>
    <dc:type rdf:resource="http://purl.org/dc/dcmitype/StillImage"/>
    <dc:title>Gnome Symbolic Icon Theme</dc:title>
   </cc:Work>
  </rdf:RDF>
 </metadata>
 <title id="title9167">Gnome Symbolic Icon Theme</title>
 <g id="layer9" transform="translate(-101 -317)">
  <rect id="rect5434" style="color:#bebebe;enable-background:new;fill:#bebebe" rx=".47227" ry=".5" height="2" width="2.9723" y="327" x="101"/>
  <rect id="rect5436" style="color:#bebebe;enable-background:new;fill:#bebebe" rx="0.5" ry=".5" height="2" width="3.0165" y="327" x="113.98"/>
  <rect id="rect11183" style="color:#bebebe;enable-background:new;fill:#bebebe" rx="0.5" ry=".5" transform="rotate(-45)" width="3.0165" y="308.01" x="-149.87" height="2"/>
  <rect id="rect11189" style="color:#bebebe;enable-background:new;fill:#bebebe" rx="0.5" ry=".5" transform="rotate(225)" width="3.0165" y="-155.86" x="-304.02" height="2"/>
  <rect id="rect5448" style="color:#bebebe;enable-background:new;fill:#bebebe" rx=".5" ry="0.5" transform="rotate(-90)" width="3" y="108" x="-323" height="2"/>
  <path id="path7977" style="color:#000000;fill:#bebebe" d="m107.25 326c-0.16704 0.009-0.32215 0.11722-0.37496 0.26083l-0.83643 2.217c-0.10137 0.23354 0.12645 0.52786 0.4038 0.52166 0 0 1.0705 0.00012 2.567 0.00012s2.567-0.00012 2.567-0.00012c0.27735 0.006 0.50517-0.28812 0.4038-0.52166l-0.83643-2.217c-0.0727-0.19298-0.33686-0.30615-0.54801-0.23475-0.21274 0.0692-0.82049 0.26083-1.5863 0.26083-0.76585 0-1.3736-0.19167-1.5863-0.26083-0.0548-0.0194-0.11421-0.0284-0.17305-0.026z"/>
 </g>
</svg>
