<?xml version="1.0" encoding="UTF-8" standalone="no"?>
<!-- Created with Inkscape (http://www.inkscape.org/) -->
<svg id="svg7384" xmlns:rdf="http://www.w3.org/1999/02/22-rdf-syntax-ns#" xmlns="http://www.w3.org/2000/svg" height="16" width="16" version="1.1" xmlns:cc="http://creativecommons.org/ns#" xmlns:dc="http://purl.org/dc/elements/1.1/">
 <metadata id="metadata90">
  <rdf:RDF>
   <cc:Work rdf:about="">
    <dc:format>image/svg+xml</dc:format>
    <dc:type rdf:resource="http://purl.org/dc/dcmitype/StillImage"/>
    <dc:title>Gnome Symbolic Icon Theme</dc:title>
   </cc:Work>
  </rdf:RDF>
 </metadata>
 <title id="title9167">Gnome Symbolic Icon Theme</title>
 <g id="layer9" transform="translate(-161 -277)">
  <path id="path5375" style="block-progression:tb;text-indent:0;color:#bebebe;text-transform:none;fill:#bebebe" d="m173 280c-1.6447 0-3 1.3553-3 3v4c0 0.5713-0.4287 1-1 1h-6v2h6c1.6447 0 3-1.3553 3-3v-4c0-0.5713 0.4287-1 1-1h3v-2h-3z"/>
  <path id="path5377" style="block-progression:tb;text-indent:0;color:#bebebe;text-transform:none;fill:#bebebe" d="m164.88 286a1.0001 1.0001 0 0 0 -0.59375 0.28125l-2 2-0.6875 0.71875 0.6875 0.71875 2 2a1.0165 1.0165 0 1 0 1.4375 -1.4375l-1.29-1.28 1.2812-1.2812a1.0001 1.0001 0 0 0 -0.84 -1.72z"/>
  <path id="path5379" style="block-progression:tb;text-indent:0;color:#bebebe;text-transform:none;fill:#bebebe" d="m164.88 278a1.0001 1.0001 0 0 0 -0.59375 0.28125l-2 2-0.6875 0.71875 0.6875 0.71875 2 2a1.0165 1.0165 0 1 0 1.4375 -1.4375l-1.29-1.28 1.2812-1.2812a1.0001 1.0001 0 0 0 -0.84 -1.72z"/>
  <path id="path5381" style="color:#bebebe;text-indent:0pt;text-transform:none;fill:#bebebe" d="m169 280c0.22957 0 0.44085 0.0438 0.65625 0.0937-0.4813 0.5511-0.86125 1.1776-1.0312 1.9062h-5.625v-2h6zm7 8v2h-3c-0.22957 0-0.44085-0.0438-0.65625-0.0937 0.4813-0.55115 0.86125-1.1777 1.0312-1.9063h2.625z"/>
  <rect id="rect5383" style="color:#000000;fill:#bebebe" transform="scale(-1,1)" height="1" width="1" y="286" x="-166"/>
  <rect id="rect5385" style="color:#000000;fill:#bebebe" transform="scale(-1,1)" height="1" width="1" y="291" x="-166"/>
  <rect id="rect5387" style="color:#000000;fill:#bebebe" transform="scale(-1,1)" height="1" width="1" y="278" x="-166"/>
  <rect id="rect5389" style="color:#000000;fill:#bebebe" transform="scale(-1,1)" height="1" width="1" y="283" x="-166"/>
 </g>
</svg>
