<?xml version="1.0" encoding="UTF-8" standalone="no"?>
<!-- Created with Inkscape (http://www.inkscape.org/) -->
<svg id="svg7384" xmlns:rdf="http://www.w3.org/1999/02/22-rdf-syntax-ns#" xmlns="http://www.w3.org/2000/svg" height="16" width="16" version="1.1" xmlns:cc="http://creativecommons.org/ns#" xmlns:dc="http://purl.org/dc/elements/1.1/">
 <metadata id="metadata90">
  <rdf:RDF>
   <cc:Work rdf:about="">
    <dc:format>image/svg+xml</dc:format>
    <dc:type rdf:resource="http://purl.org/dc/dcmitype/StillImage"/>
    <dc:title>Gnome Symbolic Icon Theme</dc:title>
   </cc:Work>
  </rdf:RDF>
 </metadata>
 <title id="title9167">Gnome Symbolic Icon Theme</title>
 <g id="layer9" transform="translate(-61 -277)">
  <path id="path8282" style="block-progression:tb;text-indent:0;color:#000000;text-transform:none;fill:#bebebe" d="m70.875 286a1.0001 1.0001 0 0 0 -0.59375 0.28125l-2 2-0.6875 0.71875 0.6875 0.71875 2 2a1.0165 1.0165 0 1 0 1.4375 -1.4375l-1.28-1.28 1.281-1.28a1.0001 1.0001 0 0 0 -0.844 -1.72z"/>
  <path id="path8284" style="block-progression:tb;text-indent:0;color:#000000;text-transform:none;fill:#bebebe" d="m62 286.01v0.99451c0 1.6447 1.3553 3 3 3h1v-2h-1c-0.5713 0-1-0.4287-1-1v-0.98346zm8.008-4.01h2.992c0.5713 0 1 0.4287 1 1v4c0 0.5713-0.4287 1-1 1h-4v2h4c1.6447 0 3-1.3553 3-3v-4c0-1.6447-1.3553-3-3-3h-2.9816z"/>
  <rect id="rect8286" style="color:#000000;fill:#bebebe" height="1" width="1" y="286" x="71"/>
  <rect id="rect8288" style="color:#000000;fill:#bebebe" height="1" width="1" y="291" x="71"/>
  <path id="path8290" style="color:#000000;fill:#bebebe" d="m65 277c-2.2091 0-4 1.7909-4 4 0 2.2092 1.7909 4 4 4s4-1.7908 4-4c0-2.2091-1.7909-4-4-4zm-1 2h2v4h-2v-2h-1v-1z"/>
 </g>
</svg>
