<?xml version="1.0" encoding="UTF-8" standalone="no"?>
<!-- Created with Inkscape (http://www.inkscape.org/) -->
<svg id="svg7384" xmlns:rdf="http://www.w3.org/1999/02/22-rdf-syntax-ns#" xmlns="http://www.w3.org/2000/svg" height="16.001" width="16" version="1.1" xmlns:cc="http://creativecommons.org/ns#" xmlns:dc="http://purl.org/dc/elements/1.1/">
 <metadata id="metadata90">
  <rdf:RDF>
   <cc:Work rdf:about="">
    <dc:format>image/svg+xml</dc:format>
    <dc:type rdf:resource="http://purl.org/dc/dcmitype/StillImage"/>
    <dc:title>Gnome Symbolic Icon Theme</dc:title>
   </cc:Work>
  </rdf:RDF>
 </metadata>
 <title id="title9167">Gnome Symbolic Icon Theme</title>
 <defs id="defs7386">
  <clipPath id="clipPath6810-7-87" clipPathUnits="userSpaceOnUse">
   <rect id="rect6812-2-4" style="stroke-linejoin:round;color:#bebebe;stroke:#fff;stroke-linecap:round;stroke-width:2;fill:none" height="11" width="14" y="281" x="21"/>
  </clipPath>
 </defs>
 <g id="layer9" transform="translate(-121,-197)">
  <rect id="rect12235" style="color:#bebebe;fill:#bebebe" rx="2.5" ry="2.5" height="10.013" width="5" y="197.99" x="124"/>
  <path id="rect12237" style="block-progression:tb;text-indent:0;color:#bebebe;text-transform:none;fill:#bebebe" d="m27.969 273.62c-2.5025 0-4.5312 2.0288-4.5312 4.5312v5.8125c0 2.5025 2.0288 4.5312 4.5312 4.5312 2.5025 0 4.5312-2.0288 4.5312-4.5312v-5.8125c0-2.5025-2.0288-4.5312-4.5312-4.5312zm0 1c1.9641 0 3.5312 1.5671 3.5312 3.5312v5.8125c0 1.9642-1.5671 3.5312-3.5312 3.5312s-3.5312-1.5671-3.5312-3.5312v-5.8125c0-1.9642 1.5671-3.5312 3.5312-3.5312z" clip-path="url(#clipPath6810-7-87)" transform="matrix(.99397 0 0 1 98.707 -78.486)"/>
  <path id="path12239" style="color:#bebebe;fill:#bebebe" d="m24 361a1 1 0 1 1 -2 0 1 1 0 1 1 2 0z" transform="matrix(.5 0 0 .5 111 22)"/>
  <path id="path12241" style="color:#bebebe;fill:#bebebe" d="m24 361a1 1 0 1 1 -2 0 1 1 0 1 1 2 0z" transform="matrix(.5 0 0 .5 119 22)"/>
  <path id="path12243" style="block-progression:tb;text-indent:0;color:#bebebe;text-transform:none;fill:#bebebe" d="m122.91 211a1.0011 1.0011 0 1 0 0.09 2h7a1.0001 1.0001 0 1 0 0 -2h-7a1.0001 1.0001 0 0 0 -0.0937 0z"/>
  <rect id="rect12245" style="color:#bebebe;fill:#bebebe" height="1" width="9.0002" y="212" x="122"/>
  <rect id="rect12247" style="color:#bebebe;fill:#bebebe" height="4" width="3" y="209" x="125"/>
  <path id="path12249" style="opacity:.5;block-progression:tb;text-indent:0;color:#000000;text-transform:none;fill:#bebebe" d="m134 197.99c-1.0986 0-2.0081 0.90942-2.0081 2.0081 0 1.0986 0.90941 2.0081 2.0081 2.0081 1.0986 0 2.0081-0.90941 2.0081-2.0081 0-1.0986-0.90941-2.0081-2.0081-2.0081zm0 1.0161c0.55821 0 0.99193 0.43373 0.99193 0.99194s-0.43372 0.99193-0.99193 0.99193-0.99193-0.43372-0.99193-0.99193 0.43372-0.99194 0.99193-0.99194z"/>
  <path id="path12253" style="opacity:.5;block-progression:tb;text-indent:0;color:#000000;text-transform:none;fill:#bebebe" d="m134 202.99c-1.0986 0-2.0081 0.90941-2.0081 2.0081 0 1.0986 0.90941 2.0081 2.0081 2.0081 1.0986 0 2.0081-0.90942 2.0081-2.0081 0-1.0986-0.90942-2.0081-2.0081-2.0081zm0 1.0161c0.55821 0 0.99194 0.43373 0.99194 0.99193 0 0.55821-0.43373 0.99194-0.99194 0.99194s-0.99193-0.43373-0.99193-0.99194c0-0.5582 0.43372-0.99193 0.99193-0.99193z"/>
  <path id="path3761-2-3-5-4-8-9-8-0-9-0-4" style="color:#bebebe;fill:#bebebe" d="m132 208h1.375l1.125 1.0938 1.0938-1.0938h1.4062v1.4688l-1.0938 1.0625 1.0938 1.0625v1.4062h-1.4375l-1.0625-1.0625-1.0625 1.0625h-1.4375v-1.4062l1.0625-1.0625-1.0625-1.0625v-1.4688z"/>
 </g>
</svg>
