<?xml version="1.0" encoding="UTF-8" standalone="no"?>
<!-- Created with Inkscape (http://www.inkscape.org/) -->
<svg id="svg7384" xmlns:rdf="http://www.w3.org/1999/02/22-rdf-syntax-ns#" xmlns="http://www.w3.org/2000/svg" height="16.001" width="16" version="1.1" xmlns:cc="http://creativecommons.org/ns#" xmlns:dc="http://purl.org/dc/elements/1.1/">
 <metadata id="metadata90">
  <rdf:RDF>
   <cc:Work rdf:about="">
    <dc:format>image/svg+xml</dc:format>
    <dc:type rdf:resource="http://purl.org/dc/dcmitype/StillImage"/>
    <dc:title>Gnome Symbolic Icon Theme</dc:title>
   </cc:Work>
  </rdf:RDF>
 </metadata>
 <title id="title9167">Gnome Symbolic Icon Theme</title>
 <defs id="defs7386">
  <clipPath id="clipPath6810-7-87" clipPathUnits="userSpaceOnUse">
   <rect id="rect6812-2-4" style="stroke-linejoin:round;color:#bebebe;stroke:#fff;stroke-linecap:round;stroke-width:2;fill:none" height="11" width="14" y="281" x="21"/>
  </clipPath>
 </defs>
 <g id="layer9" transform="translate(-141,-197)">
  <path id="path8179" style="opacity:.5;color:#000000;fill:#bebebe" d="m154 198c-1.1046 0-2 0.89543-2 2s0.89543 2 2 2 2-0.89543 2-2-0.89543-2-2-2zm0 1c0.55228 0 1 0.44771 1 1 0 0.55228-0.44772 1-1 1-0.55229 0-1-0.44772-1-1 0-0.55229 0.44771-1 1-1z"/>
  <rect id="rect12259" style="color:#bebebe;fill:#bebebe" rx="2.4999" ry="2.5" height="10" width="4.9998" y="198" x="144"/>
  <path id="rect12261" style="block-progression:tb;text-indent:0;color:#bebebe;text-transform:none;fill:#bebebe" d="m27.969 273.62c-2.5025 0-4.5312 2.0288-4.5312 4.5312v5.8125c0 2.5025 2.0288 4.5312 4.5312 4.5312 2.5025 0 4.5312-2.0288 4.5312-4.5312v-5.8125c0-2.5025-2.0288-4.5312-4.5312-4.5312zm0 1c1.9641 0 3.5312 1.5671 3.5312 3.5312v5.8125c0 1.9642-1.5671 3.5312-3.5312 3.5312s-3.5312-1.5671-3.5312-3.5312v-5.8125c0-1.9642 1.5671-3.5312 3.5312-3.5312z" clip-path="url(#clipPath6810-7-87)" transform="matrix(.99397 0 0 1 118.71 -78.486)"/>
  <path id="path12263" style="color:#bebebe;fill:#bebebe" d="m24 361a1 1 0 1 1 -2 0 1 1 0 1 1 2 0z" transform="matrix(.5 0 0 .5 131 22)"/>
  <path id="path12265" style="color:#bebebe;fill:#bebebe" d="m24 361a1 1 0 1 1 -2 0 1 1 0 1 1 2 0z" transform="matrix(.5 0 0 .5 139 22)"/>
  <path id="path12267" style="block-progression:tb;text-indent:0;color:#bebebe;text-transform:none;fill:#bebebe" d="m142.91 211a1.0011 1.0011 0 1 0 0.09 2h7a1.0001 1.0001 0 1 0 0 -2h-7a1.0001 1.0001 0 0 0 -0.0937 0z"/>
  <rect id="rect12269" style="color:#bebebe;fill:#bebebe" height="1" width="9" y="212" x="142"/>
  <rect id="rect12271" style="color:#bebebe;fill:#bebebe" height="4" width="3" y="209" x="145"/>
  <path id="path12275" style="color:#000000;fill:#bebebe" d="m-186.06 184.06a1.9375 1.9375 0 1 1 -3.875 0 1.9375 1.9375 0 1 1 3.875 0z" transform="matrix(1.0323 0 0 1.0323 348.06 20.001)"/>
  <path id="path8174" style="opacity:.5;color:#000000;fill:#bebebe" d="m154 203c-1.1046 0-2 0.89543-2 2s0.89543 2 2 2 2-0.89543 2-2-0.89543-2-2-2zm0 1c0.55228 0 1 0.44771 1 1 0 0.55228-0.44772 1-1 1s-1-0.44772-1-1c0-0.55229 0.44772-1 1-1z"/>
 </g>
</svg>
