<?xml version="1.0" encoding="UTF-8" standalone="no"?>
<!-- Created with Inkscape (http://www.inkscape.org/) -->
<svg id="svg7384" xmlns:rdf="http://www.w3.org/1999/02/22-rdf-syntax-ns#" xmlns="http://www.w3.org/2000/svg" height="16" width="16" version="1.1" xmlns:cc="http://creativecommons.org/ns#" xmlns:dc="http://purl.org/dc/elements/1.1/">
 <metadata id="metadata90">
  <rdf:RDF>
   <cc:Work rdf:about="">
    <dc:format>image/svg+xml</dc:format>
    <dc:type rdf:resource="http://purl.org/dc/dcmitype/StillImage"/>
    <dc:title>Gnome Symbolic Icon Theme</dc:title>
   </cc:Work>
  </rdf:RDF>
 </metadata>
 <title id="title9167">Gnome Symbolic Icon Theme</title>
 <g id="layer9" transform="translate(-101 -237)">
  <path id="path1245" style="color:#bebebe;fill:#bebebe" d="m103.06 237c-1.1507 0-2.0625 0.91177-2.0625 2.0625v11.875c0 1.1507 0.91177 2.0625 2.0625 2.0625h11.875c1.1507 0 2.0625-0.91177 2.0625-2.0625v-11.875c0-1.1507-0.91177-2.0625-2.0625-2.0625zm-0.0625 3h2v4h1v-1h2v7h-2v-4h-1c-1 0-2-0.84167-2-2zm8.0625 0.0312h1.8438 0.0625c0.003-0.0001-0.003 0.0315 0 0.0312 0.52731-0.0204 1.0725 0.076 1.5 0.46875 0.41475 0.38112 0.59343 1.0075 0.5625 1.5938h0.0312v0.125 0.75h-2v-0.875-0.0625-0.0312c-0.0176-0.002 0.003-0.002-0.0312 0h-0.0312-0.0312-1.9062c-0.0276 0-0.0221 0.002-0.0312 0-0.006 0.004-0.0292-0.003-0.0312 0-0.007 0.0224 0.007 0.0466 0 0.0625v0.0312 5.8125c-0.0237-0.0217 0 0.0625 0 0.0625h1.9688c0.007-0.0193 0.0294-0.016 0.0312 0 0.00088 0.008 0-0.0555 0-0.0312v-1.9375h-1v-2h2 1v1 2.9375c0 0.56264-0.22708 0.99952-0.5625 1.375-0.31592 0.35364-0.85192 0.632-1.4688 0.625v0.0312h-0.0937-1.875c-0.6248 0-0.99413-0.24123-1.3438-0.5625-0.33105-0.30421-0.64392-0.78987-0.625-1.4375 0.00006-0.002-0.0314 0.002-0.0312 0v-0.0937-5.8125-0.0937-0.0625c0.0625-0.43728 0.20536-0.88912 0.5625-1.2812 0.35715-0.39213 0.94608-0.625 1.5-0.625z"/>
 </g>
</svg>
