<?xml version="1.0" encoding="UTF-8" standalone="no"?>
<!-- Created with Inkscape (http://www.inkscape.org/) -->
<svg id="svg7384" xmlns:rdf="http://www.w3.org/1999/02/22-rdf-syntax-ns#" xmlns="http://www.w3.org/2000/svg" height="16" width="16" version="1.1" xmlns:cc="http://creativecommons.org/ns#" xmlns:dc="http://purl.org/dc/elements/1.1/">
 <metadata id="metadata90">
  <rdf:RDF>
   <cc:Work rdf:about="">
    <dc:format>image/svg+xml</dc:format>
    <dc:type rdf:resource="http://purl.org/dc/dcmitype/StillImage"/>
    <dc:title>Gnome Symbolic Icon Theme</dc:title>
   </cc:Work>
  </rdf:RDF>
 </metadata>
 <title id="title9167">Gnome Symbolic Icon Theme</title>
 <g id="layer9" transform="translate(-181 -357)">
  <path id="path10365" style="block-progression:tb;text-indent:0;color:#bebebe;text-transform:none;fill:#bebebe" d="m195.08 369.91a1.0001 1.0001 0 0 0 -0.0314 -0.12504 1.0001 1.0001 0 0 0 -1 -0.78125h-1.6875c0.57793-0.3823 1.0822-0.84927 1.5-1.4062 0.86676-1.1556 1.2523-2.532 1.1875-3.875-0.009-0.19188-0.0353-0.37222-0.0625-0.56249-0.21741-1.5222-1.023-2.9781-2.3438-3.9687-2.6414-1.9812-6.425-1.4227-8.4062 1.2188s-1.4227 6.425 1.2188 8.4062a1.0063 1.0063 0 0 0 0.59377 0.18747 1.0063 1.0063 0 0 0 0.1562 0.00003h0.84375l0.00001-0.81251-0.00003-0.0938a1.0063 1.0063 0 0 0 -0.00002 -0.0938 1.0063 1.0063 0 0 0 -0.40627 -0.81248c-1.7768-1.3326-2.1139-3.817-0.78125-5.5938 1.3326-1.7767 3.817-2.1139 5.5938-0.78124 1.7767 1.3326 2.1139 3.817 0.78125 5.5937-0.3221 0.42949-0.73294 0.76958-1.1875 1.0312l-0.00001-1.4375a1.0001 1.0001 0 0 0 -1 -1 1.0001 1.0001 0 0 0 -0.21874 -0.00002l-0.78124 0.00001v0.84375l-0.00003 0.15622v4 0.99999l1 0.00001 4-0.00001a1.0001 1.0001 0 0 0 0.1875 -0.00008h0.81249l-0.00001-0.81251a1.0001 1.0001 0 0 0 0.0313 -0.28123z"/>
 </g>
</svg>
