<?xml version="1.0" encoding="UTF-8" standalone="no"?>
<!-- Created with Inkscape (http://www.inkscape.org/) -->
<svg id="svg7384" xmlns:rdf="http://www.w3.org/1999/02/22-rdf-syntax-ns#" xmlns="http://www.w3.org/2000/svg" height="16" width="16" version="1.1" xmlns:cc="http://creativecommons.org/ns#" xmlns:dc="http://purl.org/dc/elements/1.1/">
 <metadata id="metadata90">
  <rdf:RDF>
   <cc:Work rdf:about="">
    <dc:format>image/svg+xml</dc:format>
    <dc:type rdf:resource="http://purl.org/dc/dcmitype/StillImage"/>
    <dc:title>Gnome Symbolic Icon Theme</dc:title>
   </cc:Work>
  </rdf:RDF>
 </metadata>
 <title id="title9167">Gnome Symbolic Icon Theme</title>
 <g id="layer9" transform="translate(-101 -397)">
  <path id="path5284" style="block-progression:tb;text-indent:0;color:#000000;text-transform:none;fill:#bebebe" d="m109 398.01c0.2659-0.00099 0.49859 0.1006 0.6647 0.2393 0.16611 0.13869 0.27741 0.32137 0.38968 0.50028 0.22453 0.35782 0.39269 0.76873 0.56546 1.2036 0.17277 0.43483 0.34713 0.88766 0.5046 1.2323 0.15747 0.34465 0.3456 0.57871 0.35862 0.58776 0.0129 0.009 0.30722 0.117 0.69577 0.15181 0.38854 0.0348 0.88122 0.0492 1.3632 0.0694 0.48202 0.0202 0.97029 0.0362 1.393 0.12817 0.21138 0.046 0.4154 0.10148 0.60434 0.20956 0.18895 0.10808 0.3669 0.28631 0.45004 0.53002 0.0831 0.24371 0.049 0.50627-0.0364 0.70157-0.0854 0.19531-0.22656 0.36514-0.3682 0.52344-0.2833 0.31663-0.6327 0.60557-1.0079 0.89849s-0.77671 0.55926-1.0678 0.81027c-0.29104 0.25101-0.45423 0.50796-0.45912 0.52271-0.005 0.0146-0.0312 0.33498 0.0546 0.70231 0.0858 0.36732 0.2238 0.81174 0.35282 1.2603 0.12902 0.44861 0.25176 0.90196 0.29171 1.3184 0.02 0.20819 0.0428 0.40729-0.005 0.61409-0.0481 0.20679-0.1845 0.43007-0.39902 0.58168-0.2145 0.15161-0.44936 0.1881-0.66823 0.1701s-0.43535-0.0703-0.63515-0.15132c-0.39961-0.16214-0.80177-0.42851-1.2064-0.68231-0.40465-0.2538-0.80822-0.52155-1.1456-0.71107-0.33734-0.18952-0.6484-0.2686-0.66445-0.26854-0.0159 0.00006-0.30338 0.0951-0.63894 0.28732-0.33555 0.19221-0.72532 0.46503-1.1276 0.72205s-0.81995 0.49752-1.218 0.66284c-0.19903 0.0827-0.38893 0.15086-0.60763 0.17059-0.21869 0.0197-0.47978-0.031-0.69551-0.18105-0.21572-0.15001-0.33927-0.35235-0.38918-0.55877-0.0499-0.20642-0.0429-0.43517-0.0248-0.64358 0.0363-0.41683 0.15899-0.86394 0.2841-1.3137 0.12511-0.44978 0.26164-0.88661 0.3442-1.2548 0.0826-0.36813 0.0717-0.68662 0.0667-0.70133-0.005-0.0145-0.18747-0.25247-0.4806-0.50101-0.29314-0.24854-0.67599-0.53755-1.0536-0.82731-0.37764-0.28976-0.76716-0.57158-1.0531-0.88579-0.14298-0.1571-0.2418-0.33444-0.32882-0.52904-0.087-0.1946-0.136-0.42874-0.0548-0.67306s0.27108-0.41314 0.45912-0.52272c0.18803-0.10958 0.36679-0.18158 0.57782-0.22931 0.42206-0.0955 0.91359-0.14009 1.3956-0.16426 0.48198-0.0242 0.94584-0.039 1.3342-0.077s0.71565-0.13122 0.72859-0.14037c0.0128-0.009 0.18402-0.23636 0.33841-0.58217 0.15438-0.34581 0.32658-0.78819 0.49548-1.2243 0.16889-0.4361 0.33476-0.86429 0.55609-1.2238 0.11066-0.17977 0.23335-0.35397 0.39826-0.49396 0.1649-0.13999 0.40309-0.25684 0.66899-0.25783zm-0.009 0.99424c-0.0422 0.0358-0.10671 0.13602-0.1841 0.26173-0.15478 0.25141-0.33068 0.6272-0.49397 1.0488-0.16329 0.42163-0.31905 0.88645-0.49599 1.2828-0.17693 0.39633-0.31456 0.73379-0.67529 0.98889-0.36072 0.25509-0.77019 0.29763-1.2152 0.34118-0.44505 0.0435-0.92881 0.0532-1.3948 0.0765-0.46599 0.0234-0.91824 0.0697-1.2135 0.13647-0.14763 0.0334-0.25558 0.0572-0.30381 0.0853 0.0223 0.0498 0.0796 0.15478 0.17956 0.26464 0.19997 0.21973 0.53749 0.48746 0.90261 0.7676 0.36511 0.28015 0.77803 0.57219 1.114 0.85704 0.33595 0.28485 0.63992 0.53221 0.77987 0.94209 0.13996 0.40986 0.054 0.77681-0.0406 1.1987s-0.25406 0.87813-0.37502 1.313c-0.12096 0.43486-0.22688 0.84692-0.25228 1.1385-0.0116 0.13264 0.017 0.23485 0.0278 0.29267 0.0599-0.008 0.17641-0.0324 0.30381-0.0853 0.27837-0.11561 0.6465-0.32808 1.0354-0.57657 0.38894-0.24849 0.8039-0.53053 1.1885-0.75081 0.38457-0.22028 0.70791-0.39837 1.1551-0.40015 0.44722-0.002 0.79205 0.17245 1.1786 0.38965 0.38658 0.21719 0.78437 0.49517 1.1756 0.74055s0.77636 0.4507 1.0559 0.56412c0.13977 0.0567 0.24615 0.0856 0.3023 0.0902 0.0102-0.0578 0.0152-0.16008 0.003-0.29243-0.0279-0.29118-0.13818-0.70893-0.26291-1.1426-0.12474-0.43372-0.25404-0.89785-0.35232-1.3188-0.0983-0.42099-0.18672-0.78846-0.0503-1.1994 0.13645-0.41097 0.43218-0.64202 0.76571-0.92967 0.33353-0.28766 0.70551-0.58555 1.0683-0.86876 0.36275-0.2832 0.71779-0.56075 0.91597-0.78224 0.0991-0.11075 0.16221-0.21163 0.1841-0.26173-0.0483-0.0276-0.15448-0.058-0.30229-0.0902-0.29563-0.0643-0.74518-0.10714-1.2112-0.1267-0.46604-0.0196-0.94824-0.0298-1.3936-0.0697-0.44531-0.0399-0.84679-0.0499-1.2097-0.30216-0.3629-0.25221-0.5383-0.60511-0.71876-1.0001-0.18045-0.39497-0.33731-0.84115-0.50434-1.2616-0.16704-0.42041-0.31849-0.83556-0.47556-1.0859-0.0785-0.12515-0.16751-0.20007-0.21012-0.23565z"/>
  <path id="path5286" style="color:#000000;fill:#bebebe" d="m109 398.5c0.92654-0.003 1.4357 3.1337 2.1875 3.6562 0.75154 0.52231 4.0229 0.0261 4.3125 0.875 0.28973 0.84921-2.6548 2.2736-2.9375 3.125-0.28257 0.85109 1.2472 3.6907 0.5 4.2188-0.74748 0.5283-3.1047-1.7224-4.0312-1.7188-0.008 0.00003-0.0226-0.00041-0.0312 0v-10.16z"/>
 </g>
</svg>
