<?xml version="1.0" encoding="UTF-8" standalone="no"?>
<!-- Created with Inkscape (http://www.inkscape.org/) -->
<svg id="svg7384" xmlns:rdf="http://www.w3.org/1999/02/22-rdf-syntax-ns#" xmlns="http://www.w3.org/2000/svg" height="16" width="16" version="1.1" xmlns:cc="http://creativecommons.org/ns#" xmlns:dc="http://purl.org/dc/elements/1.1/">
 <metadata id="metadata90">
  <rdf:RDF>
   <cc:Work rdf:about="">
    <dc:format>image/svg+xml</dc:format>
    <dc:type rdf:resource="http://purl.org/dc/dcmitype/StillImage"/>
    <dc:title>Gnome Symbolic Icon Theme</dc:title>
   </cc:Work>
  </rdf:RDF>
 </metadata>
 <title id="title9167">Gnome Symbolic Icon Theme</title>
 <g id="layer9" transform="translate(-41 -397)">
  <path id="path11922-0" style="color:#000000;fill:#bebebe" d="m530.95 186.71c-0.77941 0.55189-3.1576-1.906-4.1125-1.9179-0.95532-0.0119-3.3949 2.3858-4.161 1.8149-0.76573-0.57072 0.83698-3.592 0.55319-4.5039-0.2839-0.91223-3.3182-2.4915-3.0119-3.3965 0.30617-0.90461 3.6749-0.31399 4.4544-0.86567 0.77986-0.5519 1.3442-3.9257 2.2995-3.914 0.95494 0.0116 1.4342 3.398 2.1998 3.9689 0.76588 0.57114 4.1489 0.0653 4.4331 0.97746 0.28402 0.9118-2.7885 2.414-3.0949 3.3186-0.30652 0.90489 1.22 3.966 0.44027 4.5182z" transform="matrix(1.0472 -.0087158 .0087158 1.0472 -504.35 220.15)"/>
 </g>
</svg>
