<?xml version="1.0" encoding="UTF-8" standalone="no"?>
<!-- Created with Inkscape (http://www.inkscape.org/) -->
<svg id="svg7384" xmlns:rdf="http://www.w3.org/1999/02/22-rdf-syntax-ns#" xmlns="http://www.w3.org/2000/svg" height="16" width="16" version="1.1" xmlns:cc="http://creativecommons.org/ns#" xmlns:dc="http://purl.org/dc/elements/1.1/">
 <metadata id="metadata90">
  <rdf:RDF>
   <cc:Work rdf:about="">
    <dc:format>image/svg+xml</dc:format>
    <dc:type rdf:resource="http://purl.org/dc/dcmitype/StillImage"/>
    <dc:title>Gnome Symbolic Icon Theme</dc:title>
   </cc:Work>
  </rdf:RDF>
 </metadata>
 <title id="title9167">Gnome Symbolic Icon Theme</title>
 <g id="layer9" transform="translate(-161.03 -397)">
  <path id="rect4897-9" style="fill:#bebebe" d="m162 399.5v11.969c0 1.5312 1.5 1.5312 1.5 1.5312h4.5v-2h-4v-11h1v-2h-1.5s-1.5 0-1.5 1.5zm10-1.5v2h1.0312v4.0312l1.9688-0.0313v-4.5c0-1.5-1.5-1.5-1.5-1.5zm-6.9375 4.0312v6.9688l2.9375-0.00005v-3.0019s0-1.9981 2-1.9981h2v-2z"/>
  <rect id="rect4899-7" style="fill:#bebebe" rx="0.5" ry=".49995" height="3.9999" width="4.969" y="397" x="166.03"/>
  <path id="path10898-3-1-1-6" style="color:#bebebe;fill:#f57900" d="m170 405c-1 0-1 1-1 1v6s0 1 1 1h6c1 0 1-1 1-1v-6c0-1-1-1-1-1zm2 1 2.0312 0.00005v4l-2.0312-0.00005zm0 5 2.0312 0.00005-0.0312 0.99995h-2z" class="warning"/>
 </g>
</svg>
