<?xml version="1.0" encoding="UTF-8" standalone="no"?>
<!-- Created with Inkscape (http://www.inkscape.org/) -->
<svg id="svg7384" xmlns:rdf="http://www.w3.org/1999/02/22-rdf-syntax-ns#" xmlns="http://www.w3.org/2000/svg" height="16" width="16" version="1.1" xmlns:cc="http://creativecommons.org/ns#" xmlns:dc="http://purl.org/dc/elements/1.1/">
 <metadata id="metadata90">
  <rdf:RDF>
   <cc:Work rdf:about="">
    <dc:format>image/svg+xml</dc:format>
    <dc:type rdf:resource="http://purl.org/dc/dcmitype/StillImage"/>
    <dc:title>Gnome Symbolic Icon Theme</dc:title>
   </cc:Work>
  </rdf:RDF>
 </metadata>
 <title id="title9167">Gnome Symbolic Icon Theme</title>
 <g id="layer9" transform="translate(-181.03 -397)">
  <path id="rect4897-9-4" style="fill:#bebebe" d="m183.5 398s-1.5 0-1.5 1.5v11.969s0 1.5312 1.5 1.5312h7.5v-2h-7v-11h1v-2zm8.5 0v2h1v7h2v-7.5c0-1.5-1.5-1.5-1.5-1.5z"/>
  <rect id="rect4899-7-8" style="fill:#bebebe" rx="0.5" ry=".49994" height="3.9999" width="4.9689" y="397" x="186.03"/>
  <path id="path3761-2-3-5-4-8-9-8-9-9-0-6" style="color:#bebebe;fill:#bebebe" d="m192 408h1.375l1.125 1.0938 1.09-1.09h1.41v1.4688l-1.0938 1.0625 1.09 1.06v1.41h-1.44l-1.06-1.06-1.06 1.06h-1.44v-1.4062l1.0625-1.0625-1.06-1.06v-1.47z"/>
 </g>
</svg>
