<?xml version="1.0" encoding="UTF-8" standalone="no"?>
<!-- Created with Inkscape (http://www.inkscape.org/) -->
<svg id="svg7384" xmlns:rdf="http://www.w3.org/1999/02/22-rdf-syntax-ns#" xmlns="http://www.w3.org/2000/svg" height="16" width="16" version="1.1" xmlns:cc="http://creativecommons.org/ns#" xmlns:dc="http://purl.org/dc/elements/1.1/">
 <metadata id="metadata90">
  <rdf:RDF>
   <cc:Work rdf:about="">
    <dc:format>image/svg+xml</dc:format>
    <dc:type rdf:resource="http://purl.org/dc/dcmitype/StillImage"/>
    <dc:title>Gnome Symbolic Icon Theme</dc:title>
   </cc:Work>
  </rdf:RDF>
 </metadata>
 <title id="title9167">Gnome Symbolic Icon Theme</title>
 <g id="layer9" transform="translate(-121,-317)">
  <path id="rect5837-1" style="opacity:.5;block-progression:tb;text-indent:0;color:#bebebe;text-transform:none;fill:#bebebe" d="m124.03 317c-1.6692 0-3.0312 1.3621-3.0312 3.0312v7.9375c0 1.6692 1.3621 3.0312 3.0312 3.0312h6.9688v-2h-2v-2h7v-6.9688c0-1.6692-1.3621-3.0312-3.0312-3.0312zm0 2h8.9375c0.59578 0 1.0312 0.43547 1.0312 1.0312v5.9688h-11v-5.9688c0-0.59578 0.43547-1.0312 1.0312-1.0312zm-1.0312 8h5v2h-3.9688c-0.59578 0-1.0312-0.43547-1.0312-1.0312z"/>
  <path id="path3761-2-3-5-4-8-9-8-0-9-3" style="color:#bebebe;fill:#bebebe" d="m132 328h1.375l1.125 1.0938 1.0938-1.0938h1.4062v1.4688l-1.0938 1.0625 1.0938 1.0625v1.4062h-1.4375l-1.0625-1.0625-1.0625 1.0625h-1.4375v-1.4062l1.0625-1.0625-1.0625-1.0625v-1.4688z"/>
 </g>
</svg>
