<?xml version="1.0" encoding="UTF-8" standalone="no"?>
<!-- Created with Inkscape (http://www.inkscape.org/) -->
<svg id="svg7384" xmlns:rdf="http://www.w3.org/1999/02/22-rdf-syntax-ns#" xmlns="http://www.w3.org/2000/svg" height="16" width="16" version="1.1" xmlns:cc="http://creativecommons.org/ns#" xmlns:dc="http://purl.org/dc/elements/1.1/">
 <metadata id="metadata90">
  <rdf:RDF>
   <cc:Work rdf:about="">
    <dc:format>image/svg+xml</dc:format>
    <dc:type rdf:resource="http://purl.org/dc/dcmitype/StillImage"/>
    <dc:title>Gnome Symbolic Icon Theme</dc:title>
   </cc:Work>
  </rdf:RDF>
 </metadata>
 <title id="title9167">Gnome Symbolic Icon Theme</title>
 <g id="layer9" transform="translate(-61 -357)">
  <path id="path8279" style="fill:#bebebe" d="m74 372v-4.5h-3.5z"/>
  <path id="rect8283" style="fill:#bebebe" d="m64.5 358c-1.385 0-2.5 1.115-2.5 2.5v5c0 1.385 1.115 2.5 2.5 2.5h9c1.385 0 2.5-1.115 2.5-2.5v-5c0-1.385-1.115-2.5-2.5-2.5h-9zm1.5 2h1c0.27614 0 0.53779 0.10029 0.71875 0.28125l1.2812 1.2812 1.2812-1.2812c0.181-0.18 0.443-0.28 0.719-0.28h1v1c0 0.27614-0.10029 0.53779-0.28125 0.71875l-1.281 1.28 1.2812 1.2812c0.18096 0.18096 0.28125 0.44261 0.28125 0.71875v1h-1c-0.27614 0-0.53779-0.10029-0.71875-0.28125l-1.2812-1.2812-1.2812 1.2812c-0.181 0.18-0.443 0.28-0.719 0.28h-1v-1c0-0.27614 0.10029-0.53779 0.28125-0.71875l1.282-1.28-1.282-1.28c-0.181-0.18-0.281-0.44-0.281-0.72v-1z"/>
 </g>
</svg>
