<?xml version="1.0" encoding="UTF-8" standalone="no"?>
<!-- Created with Inkscape (http://www.inkscape.org/) -->
<svg id="svg7384" xmlns:rdf="http://www.w3.org/1999/02/22-rdf-syntax-ns#" xmlns="http://www.w3.org/2000/svg" height="16" width="16" version="1.1" xmlns:cc="http://creativecommons.org/ns#" xmlns:dc="http://purl.org/dc/elements/1.1/">
 <metadata id="metadata90">
  <rdf:RDF>
   <cc:Work rdf:about="">
    <dc:format>image/svg+xml</dc:format>
    <dc:type rdf:resource="http://purl.org/dc/dcmitype/StillImage"/>
    <dc:title>Gnome Symbolic Icon Theme</dc:title>
   </cc:Work>
  </rdf:RDF>
 </metadata>
 <title id="title9167">Gnome Symbolic Icon Theme</title>
 <g id="layer9" transform="translate(-101,-277)">
  <path id="path4034-2-5" style="block-progression:tb;text-indent:0;color:#bebebe;enable-background:new;text-transform:none;fill:#bebebe" d="m108.99 278c-3.8542 0-7.0004 3.1462-7.0004 7.0004s3.1462 7.0004 7.0004 7.0004 7.0004-3.1462 7.0004-7.0004-3.1462-7.0004-7.0004-7.0004zm0 1.994c2.7733 0 5.0063 2.233 5.0063 5.0063s-2.233 5.0063-5.0063 5.0063-5.0063-2.233-5.0063-5.0063 2.233-5.0063 5.0063-5.0063z"/>
  <path id="path1314-9-0" style="opacity:.35;color:#000000;fill-rule:evenodd;enable-background:new;fill:#bebebe" d="m109.01 281c-1.1154 0-2.12 0.45579-2.847 1.1886 0.001 0.0823 0.0151 0.16244 0.0629 0.24242 0.0999 0.16706 0.1936 0.33134 0.32156 0.46136 0.0949-0.29911 0.40564-0.5161 0.77645-0.5161 0.31229 0 0.57924 0.15535 0.7137 0.38315 0.26694-0.2789 0.51701-0.6079 1.0588-0.63338 0.90392-0.0425 0.99335 0.66529 1.9058 0.85232 0.59131 0.12132 1.1253 0.0392 1.4431-0.0312-0.70163-1.1624-1.9757-1.9471-3.4353-1.9471zm-0.38429 0.42225c0.0857-0.012 0.16485 0.012 0.2039 0.0627 0.0521 0.0677 0.007 0.16364-0.10199 0.21112-0.10972 0.0475-0.24598 0.0287-0.29804-0.0391-0.0521-0.0677 0.00002-0.16365 0.10972-0.21112 0.0275-0.012 0.0577-0.0193 0.0863-0.0235zm-0.6039 0.17204c0.10199 0.005 0.1944 0.046 0.24313 0.10946 0.0867 0.11279 0.009 0.27285-0.17256 0.35187-0.18271 0.0791-0.39962 0.0503-0.48626-0.0627-0.0867-0.11279-0.009-0.27284 0.17256-0.35186 0.0457-0.0197 0.0936-0.0323 0.14116-0.0391 0.0357-0.004 0.068-0.009 0.10199-0.007zm0.49408 0.33623c0.0603-0.008 0.12159 0.0107 0.14902 0.0468 0.0368 0.0476-0.00094 0.11505-0.0783 0.14856-0.0773 0.0335-0.16724 0.0165-0.20391-0.0313-0.0368-0.0476-0.007-0.1072 0.0707-0.14077 0.0193-0.008 0.0425-0.0205 0.0629-0.0235zm0.98819 0.90705c-0.52016-0.0256-0.77301 0.39937-0.81563 0.78196-0.0427 0.38259 0.97194 0.18278 0.6431 0.75067-0.0343 0.0592-0.0641 0.0969-0.094 0.13293-0.0396 0.28627-0.31433 0.50826-0.65096 0.50826-0.15585 0-0.29501-0.0535-0.40783-0.13292-0.0149 0.0696-0.0305 0.15426-0.0391 0.27369-0.0311 0.42137 0.26738 0.75873 0.32941 1.0243 0.0683-0.12919 0.12972-0.27016 0.18038-0.43006 0.0959 0.39769 0.22025 0.65351 0.34507 0.90707 0.39014-0.0353 0.70108-0.22851 1.0039-0.4379-0.18145 0.37753-0.39665 0.73697-0.66664 1.0556 0.56869 0.22052 1.098 0.16917 1.6078 0.007-0.35772 0.29862-0.70576 0.53159-1.4352 0.60212 0.52658 0.1584 1.1116 0.33824 1.8431 0.11732-0.67183 0.38694-1.3773 0.67987-2.196 0.65683l0.8078-0.007-1.6234 0.0704-0.84704-0.1564 0.0315-0.37532c-0.35418 0.0393-0.74793-0.15798-1.1294-0.28151 0.34271-0.15154 0.71089-0.2713 0.94113-0.563-0.40186-0.0788-0.61774-0.34327-0.88623-0.55519-0.17532 0.21204-0.30648 0.41125-0.52547 0.40661-0.40078-0.008-0.52957-0.56051-0.47841-0.88358 0.0511-0.3231 0.69085-0.16007 0.68233-0.40664 0.0564 0.0583 0.12133 0.11306 0.19608 0.1564 0.38572 0.22349 0.8613 0.12773 1.0588-0.21112 0.19748-0.33881 0.0485-0.79306-0.33723-1.0166-0.38574-0.22349-0.8613-0.12772-1.0588 0.21114-0.11492 0.19722-0.10706 0.42575-0.007 0.63339-0.20902-0.18591-0.56469-0.35188-0.56469-0.35188l-0.37644-0.81324c-0.0197 0.16049-0.0315 0.32685-0.0315 0.49263 0 2.2081 1.7929 3.9958 4.0077 3.9958 2.0923 0 3.8084-1.5977 3.992-3.6361-0.1-0.28811-0.38964-1.0851-0.69801-1.2668-0.0217-0.012-0.0416-0.0145-0.0627-0.0235 0.0244 0.0563 0.0311 0.11532 0.007 0.1564-0.0371 0.0657-0.12692 0.0644-0.2039-0.007-0.0493-0.0463-0.0805-0.10799-0.0863-0.16421-0.20567 0.0696-0.3567 0.30388-0.40782 0.54736-0.0767 0.3656 0.43921 0.95398 0.43921 0.95398-0.35247-0.001-0.863 0.0259-1.0509-0.47699-0.16001-0.42813 0.15797-1.0436-0.17254-1.3606 0 0-0.74252-0.85811-1.2627-0.88362zm2.2823 1.6186c0.0161-0.003 0.0295-0.00094 0.0471 0 0.0704 0.004 0.14713 0.0413 0.21961 0.10946 0.14498 0.13623 0.20304 0.34528 0.13339 0.46917-0.0697 0.12385-0.23932 0.11279-0.38429-0.0235-0.14497-0.13624-0.20303-0.34528-0.13339-0.46918 0.0261-0.0465 0.0696-0.0769 0.11773-0.086zm-4.5096 1.8454c-0.0729 0.003-0.14961 0.0157-0.22745 0.0391-0.2579 0.0776-0.42638 0.23734-0.56467 0.39879 0.37181 0.0845 0.72489 0.2749 1.1294 0.16421-0.0709-0.19544-0.11599-0.39102-0.14902-0.58645-0.0608-0.009-0.12333-0.0177-0.18822-0.0156zm0.76075 0.18767c0.0269 0.0447 0.0493 0.0883 0.0784 0.13292 0.0387-0.0291 0.0747-0.0585 0.10973-0.0939-0.0585 0.001-0.11946-0.0176-0.18824-0.0389zm0.36076 0.64121c-0.39016 0-0.70584 0.23998-0.70584 0.53173s0.31568 0.52389 0.70584 0.52389c0.39018 0 0.70586-0.23214 0.70586-0.52389s-0.31568-0.53173-0.70586-0.53173zm0 0.21111c0.23356 0 0.42352 0.14597 0.42352 0.32062 0 0.17464-0.18996 0.31278-0.42352 0.31278-0.23355 0-0.42351-0.13814-0.42351-0.31278 0-0.17465 0.18996-0.32062 0.42351-0.32062zm2.5568 0.22679c0.0732 0.007 0.1048 0.0909 0.0707 0.18766-0.0343 0.0968-0.1148 0.16336-0.18822 0.15639-0.0733-0.007-0.10479-0.0909-0.0707-0.18767 0.0343-0.0968 0.11479-0.16337 0.18823-0.15638z"/>
 </g>
</svg>
