<?xml version="1.0" encoding="UTF-8" standalone="no"?>
<!-- Created with Inkscape (http://www.inkscape.org/) -->
<svg id="svg1306" xmlns:rdf="http://www.w3.org/1999/02/22-rdf-syntax-ns#" xmlns="http://www.w3.org/2000/svg" height="48px" width="48px" xmlns:cc="http://web.resource.org/cc/" xmlns:xlink="http://www.w3.org/1999/xlink" xmlns:dc="http://purl.org/dc/elements/1.1/">
 <defs id="defs1308">
  <radialGradient id="radialGradient5197" gradientUnits="userSpaceOnUse" cy="34.537" cx="22.288" gradientTransform="matrix(1.4981 2.6197e-16 -1.9772e-16 1.1307 -11.103 -5.2888)" r="9.9375">
   <stop id="stop5193" style="stop-color:#dadad9" offset="0"/>
   <stop id="stop5195" style="stop-color:#dadad9;stop-opacity:0" offset="1"/>
  </radialGradient>
  <radialGradient id="radialGradient5144" gradientUnits="userSpaceOnUse" cy="11.012" cx="23.071" gradientTransform="matrix(3.373 -2.7442e-17 2.7441e-17 3.373 -54.749 -26.131)" r="22.856">
   <stop id="stop5140" style="stop-color:#fff" offset="0"/>
   <stop id="stop5142" style="stop-color:#fff;stop-opacity:0" offset="1"/>
  </radialGradient>
  <radialGradient id="radialGradient5205" gradientUnits="userSpaceOnUse" cy="9.7349" cx="24.125" gradientTransform="matrix(1.652 3.9356e-16 -2.5925e-16 1.0882 -15.73 3.1561)" r="15.75">
   <stop id="stop5201" style="stop-color:#7e7878;stop-opacity:.097087" offset="0"/>
   <stop id="stop5203" style="stop-color:#7e7878" offset="1"/>
  </radialGradient>
  <radialGradient id="radialGradient5160" gradientUnits="userSpaceOnUse" cy="6.8926" cx="23.071" gradientTransform="matrix(1.4406 4.1743e-16 -4.1742e-16 1.4406 -10.166 -3.037)" r="22.813">
   <stop id="stop5156" style="stop-color:#d9d8d6" offset="0"/>
   <stop id="stop5158" style="stop-color:#b5b4b0" offset="1"/>
  </radialGradient>
  <radialGradient id="radialGradient5170" gradientUnits="userSpaceOnUse" cy="23.428" cx="23.688" r="22.451">
   <stop id="stop5166" style="stop-color:#fff" offset="0"/>
   <stop id="stop5168" style="stop-color:#fff;stop-opacity:0" offset="1"/>
  </radialGradient>
  <linearGradient id="linearGradient1994">
   <stop id="stop1997" style="stop-color:#fff" offset="0"/>
   <stop id="stop2001" style="stop-color:#fff" offset=".5"/>
   <stop id="stop1999" style="stop-color:#d3d7cf" offset="1"/>
  </linearGradient>
  <radialGradient id="radialGradient2003" xlink:href="#linearGradient1994" gradientUnits="userSpaceOnUse" cy="10.574" cx="19.161" gradientTransform="matrix(1.186 -.022099 .010976 .58922 -4.1534 5.818)" r="8.4844"/>
  <radialGradient id="radialGradient2979" xlink:href="#linearGradient1994" gradientUnits="userSpaceOnUse" cy="17.808" cx="10.256" gradientTransform="matrix(1.0902 -.012499 .0053627 .46768 -1.8964 13.382)" r="15"/>
  <radialGradient id="radialGradient3088" xlink:href="#linearGradient1994" gradientUnits="userSpaceOnUse" cy="23.865" cx="30.319" gradientTransform="matrix(1.4303 .0053563 -.0020405 .54640 -12.645 12.082)" r="16.5"/>
 </defs>
 <metadata id="metadata1311">
  <rdf:RDF>
   <cc:Work rdf:about="">
    <dc:format>image/svg+xml</dc:format>
    <dc:type rdf:resource="http://purl.org/dc/dcmitype/StillImage"/>
    <cc:license rdf:resource="http://creativecommons.org/licenses/GPL/2.0/"/>
    <dc:title>Weather Few Clouds (Night, 210)</dc:title>
    <dc:creator>
     <cc:Agent>
      <dc:title>Frank Solensky</dc:title>
     </cc:Agent>
    </dc:creator>
    <dc:subject>
     <rdf:Bag>
      <rdf:li>weather</rdf:li>
      <rdf:li>few-clouds</rdf:li>
      <rdf:li>night</rdf:li>
      <rdf:li>moon</rdf:li>
      <rdf:li>210</rdf:li>
     </rdf:Bag>
    </dc:subject>
   </cc:Work>
   <cc:License rdf:about="http://creativecommons.org/licenses/GPL/2.0/">
    <cc:permits rdf:resource="http://web.resource.org/cc/Reproduction"/>
    <cc:permits rdf:resource="http://web.resource.org/cc/Distribution"/>
    <cc:requires rdf:resource="http://web.resource.org/cc/Notice"/>
    <cc:permits rdf:resource="http://web.resource.org/cc/DerivativeWorks"/>
    <cc:requires rdf:resource="http://web.resource.org/cc/ShareAlike"/>
    <cc:requires rdf:resource="http://web.resource.org/cc/SourceCode"/>
   </cc:License>
  </rdf:RDF>
 </metadata>
 <g id="layer1">
  <path id="path3109" style="opacity:.15" d="m39 17.969c-1.109 0-2 0.928-2 2.031 0 0.076 0.021 0.119 0.031 0.188-1.443 0.363-2.54 1.476-2.875 2.937-1.164 0.253-2.146 0.973-2.687 2-0.066 0.014-0.125 0.047-0.188 0.063-0.545-0.685-1.335-1.188-2.281-1.188-1.236 0-2.262 0.77-2.719 1.844-0.646-0.487-1.403-0.844-2.281-0.844-0.04 0-0.031-0.002-0.062 0-0.912-1.196-2.32-2-3.938-2-0.457 0-0.871 0.133-1.281 0.25-0.456-1.157-1.486-2.012-2.75-2.188-0.024-0.003-0.039-0.028-0.063-0.031-0.993-0.621-2.147-1.031-3.406-1.031-2.7095 0-4.9991 1.696-5.9688 4.062-0.1716-0.032-0.3298-0.062-0.5312-0.062-1.4645 0-2.715 0.826-3.4062 2-0.042-0.004-0.0434 0-0.0938 0-1.3697 0-2.5 1.122-2.5 2.5s1.1208 2.531 2.5 2.531c0.2817 0 0.5272-0.1 0.7812-0.187 0.7114 0.684 1.6465 1.156 2.7188 1.156 0.837 0 1.5603-0.314 2.1875-0.75 1.1459 1.042 2.6365 1.75 4.3125 1.75 0.353 0 0.692-0.039 1.031-0.094 0.447 0.641 1.123 1.125 1.969 1.125 1.031 0 1.873-0.664 2.25-1.562 0.623 0.882 1.581 1.531 2.75 1.531 0.651 0 1.232-0.223 1.75-0.531 0.817 0.903 1.932 1.531 3.25 1.531 1.065 0 1.985-0.443 2.75-1.062 1.011 1.24 2.53 2.062 4.25 2.062 1.489 0 2.769-0.667 3.75-1.625 0.506 0.369 1.089 0.625 1.75 0.625 1.033 0 1.896-0.575 2.438-1.375 0.48 0.212 0.997 0.375 1.562 0.375 1.074 0 2.007-0.468 2.719-1.156 0.255 0.087 0.5 0.187 0.781 0.187 1.379 0 2.5-1.153 2.5-2.531s-1.13-2.5-2.5-2.5c-0.063 0-0.073 0.025-0.125 0.031-0.354-0.611-0.88-1.088-1.5-1.437 0.048-0.195 0.125-0.369 0.125-0.594 0-1.365-0.945-2.453-2.188-2.812-0.174-0.829-0.587-1.543-1.187-2.094 0.221-0.316 0.375-0.672 0.375-1.094 0-1.103-0.891-2.031-2-2.031z" transform="translate(0,1)"/>
  <g id="g3333" transform="translate(0,2)">
   <path id="path3174" style="stroke-dashoffset:1.2;stroke:#729fcf;stroke-linecap:round;fill:url(#radialGradient2979)" d="m12.5 18.5c-2.6513 0-4.9005 1.736-5.6875 4.125-0.2662-0.065-0.5264-0.125-0.8125-0.125-1.404 0-2.6031 0.866-3.1562 2.062-0.1111-0.019-0.2272-0.062-0.3438-0.062-1.0976 0-2 0.894-2 2s0.9024 2.031 2 2.031c0.3233 0 0.6363-0.08 0.9062-0.219 0.6389 0.714 1.561 1.188 2.5938 1.188 0.8536 0 1.6123-0.334 2.2188-0.844 1.0884 1.121 2.5962 1.844 4.2812 1.844 0.413 0 0.829-0.045 1.219-0.125 0.324 0.664 0.997 1.156 1.781 1.156 1.034 0 1.874-0.826 1.969-1.843 0.723 0.499 1.586 0.812 2.531 0.812 0.762 0 1.465-0.227 2.094-0.562 0.55 0.361 1.199 0.562 1.906 0.562 0.761 0 1.458-0.242 2.031-0.656 0.364 0.408 0.882 0.687 1.469 0.687 1.098 0 2-0.925 2-2.031s-0.902-2-2-2c-0.021 0-0.042-0.001-0.062 0-0.249-1.682-1.687-3-3.438-3-0.087 0-0.164 0.025-0.25 0.031-0.804-1.214-2.186-2.031-3.75-2.031-0.561 0-1.099 0.124-1.594 0.312-0.288-1.207-1.312-2.133-2.562-2.281-0.956-0.646-2.104-1.031-3.344-1.031z"/>
   <path id="path3313" style="stroke-linejoin:round;stroke-dashoffset:1.2;stroke:#fff;stroke-linecap:round;fill:none" d="m12.5 19.5c-2.21 0-4.0653 1.454-4.7188 3.438-0.1693 0.506-0.7029 0.793-1.2187 0.656-0.2576-0.063-0.4176-0.094-0.5625-0.094-0.9882 0-1.8525 0.64-2.25 1.5-0.1955 0.413-0.6439 0.644-1.0938 0.562-0.2431-0.042-0.2887-0.062-0.1562-0.062-0.5485 0-1 0.444-1 1s0.4707 1.031 1 1.031c0.1553 0 0.3077-0.058 0.4375-0.125 0.4086-0.213 0.9099-0.123 1.2187 0.219 0.4647 0.519 1.1201 0.875 1.8438 0.875 0.5898 0 1.1074-0.243 1.5625-0.625 0.404-0.343 1.0038-0.315 1.375 0.063 0.9146 0.941 2.1675 1.562 3.5625 1.562 0.339 0 0.707-0.058 1.031-0.125 0.45-0.081 0.898 0.149 1.094 0.563 0.168 0.344 0.514 0.593 0.875 0.593 0.495 0 0.92-0.419 0.969-0.937 0.033-0.354 0.249-0.664 0.569-0.817 0.32-0.154 0.697-0.128 0.993 0.067 0.577 0.398 1.248 0.656 1.969 0.656 0.56 0 1.105-0.192 1.625-0.469 0.329-0.169 0.725-0.145 1.031 0.063 0.388 0.255 0.828 0.406 1.344 0.406 0.547 0 1.027-0.172 1.438-0.469 0.414-0.307 0.993-0.253 1.343 0.125 0.2 0.224 0.452 0.375 0.719 0.375 0.529 0 1-0.475 1-1.031s-0.452-1-1-1c-0.041 0-0.053 0.001-0.031 0-0.507 0.017-0.948-0.344-1.031-0.844-0.178-1.2-1.195-2.156-2.438-2.156 0.105 0 0.048 0.014-0.188 0.031-0.358 0.026-0.703-0.141-0.906-0.437-0.624-0.943-1.694-1.594-2.906-1.594-0.412 0-0.844 0.096-1.25 0.25-0.265 0.094-0.557 0.073-0.806-0.058-0.249-0.13-0.433-0.358-0.506-0.63-0.19-0.795-0.893-1.433-1.719-1.531-0.156-0.017-0.306-0.071-0.438-0.156-0.799-0.54-1.751-0.875-2.781-0.875z"/>
  </g>
  <g id="g2073">
   <path id="path5162" style="color:black;fill-rule:evenodd;fill:url(#radialGradient5170)" d="m46.139 23.428a22.451 22.451 0 1 1 -44.902 0 22.451 22.451 0 1 1 44.902 0z" transform="translate(-.14645 .10355)"/>
   <path id="path1314" style="stroke-linejoin:round;fill-rule:evenodd;color:black;stroke:#888a85;stroke-width:1.3402;fill:url(#radialGradient5160)" d="m45.214 23.143a22.143 22.143 0 1 1 -44.285 0 22.143 22.143 0 1 1 44.285 0z" transform="matrix(.74615 0 0 .74614 6.8505 6.7539)"/>
   <path id="path5152" style="opacity:.33146;color:black;fill-rule:evenodd;fill:url(#radialGradient5205)" d="m10.875 25s2.594 1.219 2.625 2.125-2.312 0.313-2.5 1.5 0.281 3.219 1.75 3.25 1.844-2.437 4.125-3.125 4 1.469 5 0.375-1.156-2.625-1-4.75 0.531-1.719 1.625-2.437c1.094-0.719 1.503 1.722 2.75-0.438 1.205-2.087-2.531-1.344-2.375-2.75s1.094-2.969 3-2.875 4.625 3.25 4.625 3.25c1.211 1.165 0.039 3.426 0.625 5 0.689 1.848 2.583 1.742 3.875 1.75 0 0-1.906-2.156-1.625-3.5s1.375-2.687 2.75-1.875 2.75 5.125 2.75 5.125l1-4.375-2.125-5.25s-3.031 1.062-6.375 0.375-3.687-3.281-7-3.125-3.625 3.469-6.25 3.75-3.375-1.156-4.25-2.625 0.75-3.25 0.75-3.25l-6.25 8.5 2.5 5.375z"/>
   <path id="path2044" style="opacity:.80899;stroke-linejoin:round;color:black;stroke:url(#radialGradient5144);stroke-width:1.4272;fill:none" d="m45.214 23.143a22.143 22.143 0 1 1 -44.285 0 22.143 22.143 0 1 1 44.285 0z" transform="matrix(.70070 0 0 .70068 7.9032 7.8098)"/>
   <path id="path5150" style="opacity:.64607;color:black;fill-rule:evenodd;fill:url(#radialGradient5197)" d="m22.625 27c0.382 1.589 0.878 2.612 1.375 3.625 1.555-0.141 2.793-0.913 4-1.75-0.723 1.509-1.572 2.934-2.648 4.207 2.266 0.881 4.367 0.688 6.398 0.043-1.425 1.193-2.807 2.115-5.713 2.396 2.098 0.634 4.423 1.362 7.338 0.479-2.677 1.546-5.488 2.717-8.75 2.625l3.229-0.045-6.479 0.295-3.375-0.625 0.125-1.5c-1.411 0.157-2.98-0.631-4.5-1.125 1.365-0.606 2.833-1.084 3.75-2.25-1.775-0.35-2.622-1.628-3.875-2.5 1.667 0.25 3.21 1.241 5 0.75-0.935-2.583-0.823-5.167-1.125-7.75 1.021 2.208 1.686 4.417 3.125 6.625 0.96-0.726 1.636-1.95 2.125-3.5z"/>
   <path id="path4263" style="opacity:.33146;stroke-linejoin:round;fill-rule:evenodd;color:black;stroke:#888984;stroke-linecap:round;stroke-width:1.1547;fill:#bbbbb8" d="m23.875 34.5a2.25 2.25 0 1 1 -4.5 0 2.25 2.25 0 1 1 4.5 0z" transform="matrix(1 0 0 .75 0 8.7696)"/>
   <path id="path5207" style="opacity:.71910;color:black;fill-rule:evenodd;fill:#b2afad" d="m25 21.75a2.625 2.3125 0 1 1 -5.25 0 2.625 2.3125 0 1 1 5.25 0z"/>
   <path id="path5209" style="opacity:.71910;color:black;fill-rule:evenodd;fill:#b2afad" d="m25 21.75a2.625 2.3125 0 1 1 -5.25 0 2.625 2.3125 0 1 1 5.25 0z" transform="matrix(1.2262 0 0 1.2262 -10.092 -10.318)"/>
   <path id="path5211" style="opacity:.71910;color:black;fill-rule:evenodd;fill:#b2afad" d="m25 21.75a2.625 2.3125 0 1 1 -5.25 0 2.625 2.3125 0 1 1 5.25 0z" transform="matrix(1.0602 .61609 -.61609 1.0602 4.4597 -11.054)"/>
   <path id="path5213" style="opacity:.71910;color:black;fill-rule:evenodd;fill:#dfdedc" d="m25 21.75a2.625 2.3125 0 1 1 -5.25 0 2.625 2.3125 0 1 1 5.25 0z" transform="matrix(.39844 .37537 -.21748 .38767 31.502 6.348)"/>
   <path id="path5215" style="opacity:.71910;color:black;fill-rule:evenodd;fill:#dfdedc" d="m25 21.75a2.625 2.3125 0 1 1 -5.25 0 2.625 2.3125 0 1 1 5.25 0z" transform="matrix(-.094246 .26681 -.22873 -.021843 38.661 29.472)"/>
   <path id="path5217" style="opacity:.71910;color:black;fill-rule:evenodd;fill:#dfdedc" d="m25 21.75a2.625 2.3125 0 1 1 -5.25 0 2.625 2.3125 0 1 1 5.25 0z" transform="matrix(.21148 .19923 -.11543 .20576 34.198 11.496)"/>
   <path id="path5219" style="opacity:.71910;color:black;fill-rule:evenodd;fill:#f7f7f6" d="m25 21.75a2.625 2.3125 0 1 1 -5.25 0 2.625 2.3125 0 1 1 5.25 0z" transform="matrix(.50220 -.21785 .27029 .35288 2.6621 8.6221)"/>
   <path id="path5221" style="opacity:.71910;color:black;fill-rule:evenodd;fill:#f7f7f6" d="m25 21.75a2.625 2.3125 0 1 1 -5.25 0 2.625 2.3125 0 1 1 5.25 0z" transform="matrix(.30173 -.13089 .16240 .21202 12.271 8.6353)"/>
   <path id="path5223" style="opacity:.71910;color:black;fill-rule:evenodd;fill:#f7f7f6" d="m25 21.75a2.625 2.3125 0 1 1 -5.25 0 2.625 2.3125 0 1 1 5.25 0z" transform="matrix(.21263 -.092239 .11444 .14941 14.871 10.988)"/>
   <path id="shadow" d="m24.05 39c8.284 0 15-6.716 15-15s-6.716-15-15-15c7.174 0 12.99 6.716 12.99 15s-5.816 15-12.99 15z" style="opacity:.25;stroke-width:0"/>
  </g>
  <path id="path2915" style="opacity:.05" d="m20.5 7c-1.283 0-2.291 1.0269-2.406 2.2812-0.36-0.1087-0.7-0.2812-1.094-0.2812-1.916 0-3.417 1.414-3.781 3.219-0.24-0.08-0.453-0.219-0.719-0.219-1.361 0-2.469 1.14-2.469 2.5s1.108 2.5 2.469 2.5c0.813 0 1.451-0.48 1.906-1.094 0.708 0.619 1.592 1.063 2.594 1.063 0.73 0 1.408-0.248 2-0.594 0.589 0.359 1.251 0.625 2 0.625 1.013 0 1.9-0.442 2.594-1.062 0.115 0.021 0.222 0.062 0.375 0.062 1.651 0 3.031-1.353 3.031-3s-1.38-3-3.031-3c-0.153 0-0.26 0.041-0.375 0.062-0.19-0.1705-0.401-0.3035-0.625-0.437 0.002-0.0422 0.031-0.0814 0.031-0.125 0-1.3695-1.139-2.5-2.5-2.5z" transform="translate(0,1)"/>
  <g id="g3341" transform="translate(-1,-1)">
   <path id="path3252" style="stroke-dashoffset:1.2;stroke:#729fcf;stroke-linecap:round;fill:url(#radialGradient2003)" d="m21.5 8.5c-1.098 0-1.969 0.8942-1.969 2 0 0.128 0.009 0.254 0.031 0.375-0.466-0.232-1.005-0.375-1.562-0.375-1.862 0-3.34 1.474-3.438 3.312-0.305-0.193-0.675-0.312-1.062-0.312-1.098 0-1.969 0.894-1.969 2s0.871 2 1.969 2c0.823 0 1.542-0.5 1.844-1.219 0.64 0.745 1.598 1.188 2.656 1.188 0.739 0 1.436-0.233 2-0.625 0.57 0.407 1.247 0.656 2 0.656 0.971 0 1.836-0.42 2.469-1.062 0.004-0.005 0.026 0.004 0.031 0 0.155 0.029 0.306 0.062 0.469 0.062 1.391 0 2.531-1.12 2.531-2.5s-1.14-2.5-2.531-2.5c-0.163 0-0.314 0.033-0.469 0.062-0.005-0.004-0.026 0.005-0.031 0-0.293-0.297-0.617-0.541-1-0.718 0.019-0.112 0.031-0.227 0.031-0.344 0-1.1058-0.902-2-2-2z"/>
   <path id="path3299" style="stroke-dashoffset:1.2;stroke:#fff;stroke-linecap:round;fill:none" d="m19.5 7.5c-0.561 0-0.969 0.4127-0.969 1 0 0.0835-0.008 0.1445 0 0.1875 0.067 0.3665-0.079 0.7393-0.376 0.9639-0.297 0.2245-0.696 0.2627-1.03 0.0986-0.34-0.1692-0.737-0.25-1.125-0.25-1.341 0-2.366 1.036-2.438 2.375-0.015 0.356-0.22 0.676-0.537 0.837-0.317 0.162-0.697 0.141-0.994-0.056-0.157-0.099-0.347-0.156-0.531-0.156-0.561 0-0.969 0.413-0.969 1s0.408 1 0.969 1c0.424 0 0.789-0.24 0.938-0.594 0.128-0.317 0.412-0.545 0.749-0.602 0.338-0.058 0.681 0.064 0.907 0.321 0.448 0.522 1.124 0.844 1.906 0.844 0.531 0 1.036-0.159 1.438-0.438 0.338-0.234 0.786-0.234 1.124 0 0.425 0.303 0.903 0.469 1.438 0.469 0.687 0 1.282-0.275 1.75-0.75 0 0 0.075-0.028 0.125-0.062 0.02-0.022 0.041-0.043 0.063-0.063 0.042-0.03 0.075-0.05 0.093-0.063 0.01-0.007 0.027-0.028 0.031-0.031 0.001 0 0.09-0.01 0.157-0.031 0.02-0.011 0.041-0.022 0.062-0.031 0.001 0 0.114-0.028 0.188-0.031 0.042 0.007 0.084 0.018 0.125 0.031 0.013 0.002 0.064 0 0.062 0h0.032c0.171 0.032 0.251 0.031 0.281 0.031 0.861 0 1.531-0.664 1.531-1.5s-0.67-1.5-1.531-1.5c-0.03 0-0.11-0.001-0.281 0.031h-0.032c-0.001 0.001-0.044-0.003-0.062 0-0.02 0.004-0.007 0.028-0.063 0.031-0.033 0.002-0.093-0.025-0.156-0.031-0.037-0.003-0.093 0-0.094 0l-0.093-0.031c-0.043-0.008-0.085-0.018-0.126-0.031 0.001 0-0.023-0.026-0.031-0.031-0.093-0.049-0.177-0.113-0.25-0.188-0.002-0.002-0.031 0-0.031 0-0.227-0.23-0.424-0.378-0.688-0.5-0.406-0.186-0.637-0.6218-0.562-1.0625 0.012-0.0683 0-0.1384 0-0.1875 0-0.5687-0.439-1-1-1z" transform="translate(2,2)"/>
  </g>
  <g id="g3098">
   <path id="path3219" style="stroke-dashoffset:1.2;stroke:#729fcf;stroke-linecap:round;fill:url(#radialGradient3088)" d="m39 18.469c-0.826 0-1.5 0.698-1.5 1.531 0 0.198 0.056 0.358 0.125 0.531-1.599 0.171-2.883 1.406-3.094 3-1.222 0.162-2.232 0.945-2.719 2.031-0.236 0.034-0.462 0.092-0.687 0.157-0.437-0.728-1.215-1.219-2.125-1.219-1.262 0-2.299 0.941-2.469 2.156-0.329-0.087-0.675-0.156-1.031-0.156-1.307 0-2.457 0.624-3.188 1.594-0.501-0.378-1.136-0.594-1.812-0.594-1.057 0-1.967 0.547-2.5 1.375-0.264-0.237-0.618-0.406-1-0.406-0.826 0-1.5 0.698-1.5 1.531s0.674 1.5 1.5 1.5c0.232 0 0.46-0.061 0.656-0.156 0.371 1.233 1.491 2.156 2.844 2.156 0.678 0 1.31-0.245 1.812-0.625 0.73 0.981 1.873 1.625 3.188 1.625 1.12 0 2.117-0.476 2.844-1.219 0.899 1.33 2.431 2.219 4.156 2.219 1.49 0 2.802-0.683 3.719-1.719 0.452 0.453 1.091 0.719 1.781 0.719 1.011 0 1.888-0.605 2.281-1.469 0.506 0.286 1.097 0.469 1.719 0.469 1.038 0 1.955-0.468 2.594-1.188 0.272 0.141 0.579 0.219 0.906 0.219 1.098 0 2-0.925 2-2.031s-0.902-2-2-2c-0.127 0-0.255 0.04-0.375 0.062-0.363-0.786-0.982-1.411-1.781-1.75 0.089-0.257 0.156-0.523 0.156-0.812 0-1.229-0.899-2.228-2.062-2.438-0.125-1.013-0.673-1.882-1.469-2.437 0.318-0.277 0.531-0.668 0.531-1.125 0-0.833-0.674-1.531-1.5-1.531z"/>
   <path id="path3094" style="stroke-dashoffset:1.2;stroke:#fff;stroke-linecap:round;fill:none" d="m39 19.469c-0.268 0-0.5 0.232-0.5 0.531 0 0.01-0.029 0.006 0.031 0.156 0.124 0.29 0.102 0.622-0.058 0.893-0.161 0.272-0.441 0.451-0.754 0.482-1.152 0.123-2.069 0.985-2.219 2.125-0.062 0.438-0.406 0.782-0.844 0.844-0.881 0.117-1.588 0.688-1.937 1.469-0.146 0.31-0.441 0.522-0.781 0.562-0.166 0.023-0.327 0.066-0.532 0.125-0.431 0.126-0.892-0.054-1.125-0.437-0.271-0.452-0.727-0.719-1.281-0.719-0.769 0-1.397 0.544-1.5 1.281-0.034 0.281-0.187 0.535-0.42 0.696s-0.524 0.215-0.799 0.148c-0.286-0.076-0.552-0.125-0.781-0.125-0.991 0-1.854 0.454-2.406 1.188-0.331 0.426-0.942 0.509-1.375 0.187-0.325-0.245-0.754-0.375-1.219-0.375-0.715 0-1.294 0.343-1.656 0.906-0.154 0.248-0.41 0.416-0.699 0.458-0.29 0.042-0.583-0.045-0.801-0.239-0.112-0.1-0.255-0.156-0.344-0.156-0.268 0-0.5 0.232-0.5 0.531s0.207 0.5 0.5 0.5c0.059 0 0.144-0.026 0.219-0.062 0.263-0.124 0.567-0.126 0.832-0.006 0.264 0.121 0.463 0.351 0.543 0.63 0.251 0.837 1.004 1.438 1.906 1.438 0.439 0 0.873-0.144 1.219-0.406 0.433-0.322 1.044-0.239 1.375 0.187 0.557 0.75 1.414 1.219 2.406 1.219 0.839 0 1.568-0.336 2.125-0.906 0.206-0.215 0.498-0.325 0.795-0.301s0.567 0.18 0.736 0.426c0.721 1.066 1.96 1.781 3.344 1.781 1.187 0 2.22-0.529 2.969-1.375 0.183-0.201 0.44-0.318 0.712-0.324s0.534 0.1 0.725 0.293c0.26 0.26 0.659 0.406 1.094 0.406 0.616 0 1.139-0.357 1.375-0.875 0.112-0.26 0.329-0.461 0.598-0.55 0.269-0.09 0.563-0.06 0.808 0.081 0.376 0.212 0.792 0.344 1.219 0.344 0.74 0 1.376-0.317 1.844-0.844 0.305-0.349 0.811-0.439 1.218-0.218 0.134 0.069 0.268 0.093 0.438 0.093 0.54 0 1-0.465 1-1.031s-0.441-1-1-1c0.079 0 0.012-0.007-0.188 0.031-0.45 0.089-0.903-0.144-1.093-0.562-0.268-0.58-0.685-1.011-1.25-1.25-0.476-0.199-0.721-0.728-0.563-1.219 0.071-0.203 0.094-0.364 0.094-0.5 0-0.746-0.54-1.341-1.25-1.469-0.414-0.086-0.727-0.425-0.781-0.843-0.09-0.732-0.49-1.351-1.063-1.75-0.252-0.174-0.41-0.453-0.429-0.759-0.018-0.305 0.106-0.602 0.335-0.804 0.135-0.117 0.188-0.226 0.188-0.375 0-0.299-0.232-0.531-0.5-0.531z"/>
  </g>
 </g>
</svg>
