<?xml version="1.0" encoding="UTF-8" standalone="no"?>
<!-- Created with Inkscape (http://www.inkscape.org/) -->
<svg id="svg7384" xmlns:rdf="http://www.w3.org/1999/02/22-rdf-syntax-ns#" xmlns="http://www.w3.org/2000/svg" height="16" width="16" version="1.1" xmlns:cc="http://creativecommons.org/ns#" xmlns:dc="http://purl.org/dc/elements/1.1/">
 <metadata id="metadata90">
  <rdf:RDF>
   <cc:Work rdf:about="">
    <dc:format>image/svg+xml</dc:format>
    <dc:type rdf:resource="http://purl.org/dc/dcmitype/StillImage"/>
    <dc:title>Gnome Symbolic Icon Theme</dc:title>
   </cc:Work>
  </rdf:RDF>
 </metadata>
 <title id="title9167">Gnome Symbolic Icon Theme</title>
 <g id="layer9" transform="translate(-161,-277)">
  <path id="path5094-5-04-4-6-4-8" style="color:#000000;fill:#bebebe" d="m170.5 281c-1.2838 0-2.3266 0.97301-2.4688 2.2188-0.33-0.12-0.66-0.22-1.03-0.22-1.6568 0-3 1.3432-3 3 0 0.0982 0.022 0.1855 0.0312 0.28125-0.3-0.18-0.66-0.28-1.03-0.28-1.1046 0-2 0.89543-2 2s0.89543 2 2 2h12.5c0.82843 0 1.5-0.67157 1.5-1.5s-0.67157-1.5-1.5-1.5c-0.20711 0-0.41429 0.0491-0.59375 0.125 0.0526-0.20194 0.0937-0.40658 0.0937-0.625 0-1.2294-0.89334-2.2282-2.0625-2.4375 0.0419-0.18136 0.0625-0.36843 0.0625-0.5625 0-1.3807-1.1193-2.5-2.5-2.5z"/>
 </g>
</svg>
