<?xml version="1.0" encoding="UTF-8" standalone="no"?>
<!-- Created with Inkscape (http://www.inkscape.org/) -->
<svg id="svg7384" xmlns:rdf="http://www.w3.org/1999/02/22-rdf-syntax-ns#" xmlns="http://www.w3.org/2000/svg" height="16" width="16" version="1.1" xmlns:cc="http://creativecommons.org/ns#" xmlns:dc="http://purl.org/dc/elements/1.1/">
 <metadata id="metadata90">
  <rdf:RDF>
   <cc:Work rdf:about="">
    <dc:format>image/svg+xml</dc:format>
    <dc:type rdf:resource="http://purl.org/dc/dcmitype/StillImage"/>
    <dc:title>Gnome Symbolic Icon Theme</dc:title>
   </cc:Work>
  </rdf:RDF>
 </metadata>
 <title id="title9167">Gnome Symbolic Icon Theme</title>
 <g id="layer9" transform="translate(-221,-277)">
  <path id="path5094-5-04-4-6-4" style="color:#000000;fill:#bebebe" d="m230.47 277c-1.2731 0-2.3072 0.97301-2.4482 2.2188-0.33-0.12-0.66-0.22-1.03-0.22-1.6431 0-2.9751 1.3432-2.9751 3 0 0.0982 0.0218 0.1855 0.0309 0.28125-0.3-0.18-0.65-0.28-1.02-0.28-1.0954 0-1.9834 0.89543-1.9834 2s0.888 2 1.9834 2h12.396c0.82155 0 1.4875-0.67157 1.4875-1.5s-0.66599-1.5-1.4875-1.5c-0.20539 0-0.41085 0.0491-0.58882 0.125 0.0522-0.20194 0.0929-0.40658 0.0929-0.625 0-1.2294-0.88592-2.2282-2.0454-2.4375 0.0416-0.18136 0.062-0.36843 0.062-0.5625 0-1.3807-1.11-2.5-2.4792-2.5z"/>
  <path id="path6561-2" style="block-progression:tb;text-indent:0;color:#000000;text-transform:none;fill:#bebebe" d="m223.41 287a0.49617 0.49617 0 0 0 -0.41 0.41l-1 4.9062a0.49617 0.49617 0 1 0 0.96875 0.1875l1-4.9062a0.49617 0.49617 0 0 0 -0.56 -0.6z"/>
  <path id="use6826" style="block-progression:tb;text-indent:0;color:#000000;text-transform:none;fill:#bebebe" d="m225.41 287a0.49617 0.49617 0 0 0 -0.41 0.41l-1 4.9062a0.49617 0.49617 0 1 0 0.96875 0.1875l1.03-4.92a0.49617 0.49617 0 0 0 -0.59 -0.59z"/>
  <path id="use6826-1" style="block-progression:tb;text-indent:0;color:#000000;text-transform:none;fill:#bebebe" d="m227.41 287a0.49617 0.49617 0 0 0 -0.41 0.41l-1 4.9062a0.50871 0.50871 0 1 0 1 0.1875l1-4.9062a0.49617 0.49617 0 0 0 -0.59 -0.6z"/>
  <path id="use6826-1-0" style="block-progression:tb;text-indent:0;color:#000000;text-transform:none;fill:#bebebe" d="m229.41 287a0.49617 0.49617 0 0 0 -0.41 0.41l-1 4.9062a0.50871 0.50871 0 1 0 1 0.1875l1-4.9062a0.49617 0.49617 0 0 0 -0.59 -0.6z"/>
  <path id="use6826-1-0-0" style="block-progression:tb;text-indent:0;color:#000000;text-transform:none;fill:#bebebe" d="m231.41 287a0.49617 0.49617 0 0 0 -0.375 0.40625l-1.04 4.9a0.50871 0.50871 0 1 0 1 0.1875l1-4.9062a0.49617 0.49617 0 0 0 -0.59 -0.59z"/>
  <path id="use6826-1-0-0-6" style="block-progression:tb;text-indent:0;color:#000000;text-transform:none;fill:#bebebe" d="m233.41 287a0.49617 0.49617 0 0 0 -0.375 0.40625l-1 4.9062a0.49617 0.49617 0 1 0 0.96 0.18l1-4.9062a0.49617 0.49617 0 0 0 -0.59 -0.59z"/>
 </g>
</svg>
