<?xml version="1.0" encoding="UTF-8" standalone="no"?>
<!-- Created with Inkscape (http://www.inkscape.org/) -->
<svg id="svg7384" xmlns:rdf="http://www.w3.org/1999/02/22-rdf-syntax-ns#" xmlns="http://www.w3.org/2000/svg" height="16" width="16" version="1.1" xmlns:cc="http://creativecommons.org/ns#" xmlns:dc="http://purl.org/dc/elements/1.1/">
 <metadata id="metadata90">
  <rdf:RDF>
   <cc:Work rdf:about="">
    <dc:format>image/svg+xml</dc:format>
    <dc:type rdf:resource="http://purl.org/dc/dcmitype/StillImage"/>
    <dc:title>Gnome Symbolic Icon Theme</dc:title>
   </cc:Work>
  </rdf:RDF>
 </metadata>
 <title id="title9167">Gnome Symbolic Icon Theme</title>
 <g id="layer9" transform="translate(-281,-277)">
  <path id="path5123" style="opacity:.5;block-progression:tb;text-indent:0;color:#000000;text-transform:none;fill:#bebebe" d="m284.31 278c-0.62347-0.00027-1.0084 0.32909-1.2812 0.59375-0.27283 0.26466-0.46296 0.53122-0.65625 0.78125s-0.38625 0.48341-0.5 0.59375-0.1119 0.0312 0.125 0.0312a1 1 0 1 0 0 2c0.62347 0.00027 1.0084-0.32909 1.2812-0.59375 0.27282-0.26466 0.46296-0.56247 0.65625-0.8125 0.14196-0.18364 0.26887-0.28618 0.375-0.40625 0.10618 0.12021 0.23303 0.22249 0.375 0.40625 0.19329 0.25019 0.41477 0.54771 0.6875 0.8125s0.62653 0.59348 1.25 0.59375c0.62346 0.00027 1.0084-0.32909 1.2812-0.59375 0.27283-0.26466 0.49421-0.56247 0.6875-0.8125 0.14681-0.18991 0.23598-0.31677 0.34375-0.4375 0.10941 0.12126 0.22291 0.24063 0.375 0.4375 0.19329 0.25019 0.41478 0.54771 0.6875 0.8125s0.65778 0.59348 1.2812 0.59375c0.62346 0.00027 1.0084-0.32909 1.2812-0.59375 0.27283-0.26466 0.46296-0.56247 0.65625-0.8125 0.14197-0.18364 0.26887-0.28618 0.375-0.40625 0.10618 0.12021 0.23303 0.22249 0.375 0.40625 0.19329 0.25019 0.38353 0.54771 0.65625 0.8125s0.65777 0.59348 1.2812 0.59375a1.0005 1.0005 0 1 0 0.0625 -2c0.0195 0.008 0.12277 0.0273 0.0625-0.0312-0.11385-0.11054-0.30671-0.34356-0.5-0.59375s-0.38352-0.51646-0.65625-0.78125-0.65778-0.59348-1.2812-0.59375c-0.62347-0.00027-1.0084 0.32909-1.2812 0.59375-0.27283 0.26466-0.46296 0.53122-0.65625 0.78125-0.14943 0.19329-0.26641 0.34779-0.375 0.46875-0.10977-0.12129-0.22162-0.27022-0.375-0.46875-0.19329-0.25019-0.41477-0.51646-0.6875-0.78125s-0.62653-0.59348-1.25-0.59375-1.0084 0.32909-1.2812 0.59375c-0.27283 0.26466-0.49421 0.53122-0.6875 0.78125-0.15337 0.1984-0.26529 0.34761-0.375 0.46875-0.10833-0.12103-0.19532-0.27662-0.34375-0.46875-0.19329-0.25019-0.41477-0.51646-0.6875-0.78125s-0.65778-0.59348-1.2812-0.59375z"/>
  <path id="path5123-0" style="opacity:.5;block-progression:tb;text-indent:0;color:#000000;text-transform:none;fill:#bebebe" d="m284.31 283c-0.62347-0.00027-1.0084 0.32909-1.2812 0.59375-0.27283 0.26466-0.46296 0.53122-0.65625 0.78125s-0.38625 0.48341-0.5 0.59375-0.11191 0.0312 0.125 0.0312a1 1 0 1 0 0 2c0.62348 0.00027 1.0084-0.32909 1.2812-0.59375 0.27282-0.26466 0.46296-0.56247 0.65625-0.8125 0.14196-0.18364 0.26887-0.28618 0.375-0.40625 0.10618 0.12021 0.23303 0.22249 0.375 0.40625 0.19329 0.2502 0.41477 0.54771 0.6875 0.8125s0.62652 0.59348 1.25 0.59375c0.62347 0.00027 1.0084-0.32909 1.2812-0.59375 0.27283-0.26466 0.49421-0.56247 0.6875-0.8125 0.14681-0.18991 0.23598-0.31677 0.34375-0.4375 0.10941 0.12126 0.22291 0.24062 0.375 0.4375 0.19329 0.2502 0.41478 0.5477 0.6875 0.8125s0.65777 0.59348 1.2812 0.59375c0.62347 0.00027 1.0084-0.32909 1.2812-0.59375 0.27283-0.26466 0.46296-0.56247 0.65625-0.8125 0.14197-0.18364 0.26887-0.28618 0.375-0.40625 0.10618 0.12021 0.23303 0.22249 0.375 0.40625 0.19329 0.2502 0.38353 0.54771 0.65625 0.8125s0.65777 0.59348 1.2812 0.59375a1.0005 1.0005 0 1 0 0.0625 -2c0.0195 0.008 0.12277 0.0273 0.0625-0.0312-0.11385-0.11054-0.30671-0.34355-0.5-0.59375s-0.38352-0.51646-0.65625-0.78125-0.65778-0.59348-1.2812-0.59375c-0.62347-0.00027-1.0084 0.32909-1.2812 0.59375-0.27283 0.26466-0.46296 0.53122-0.65625 0.78125-0.14943 0.1933-0.26641 0.34779-0.375 0.46875-0.10977-0.12129-0.22162-0.27022-0.375-0.46875-0.19329-0.2502-0.41477-0.51645-0.6875-0.78125s-0.62653-0.59348-1.25-0.59375-1.0084 0.32909-1.2812 0.59375c-0.27282 0.26466-0.49421 0.53122-0.6875 0.78125-0.15337 0.1984-0.26529 0.34761-0.375 0.46875-0.10833-0.12104-0.19532-0.27662-0.34375-0.46875-0.19329-0.2502-0.41477-0.51646-0.6875-0.78125s-0.65777-0.59348-1.2812-0.59375z"/>
  <path id="path5123-0-9" style="opacity:.5;block-progression:tb;text-indent:0;color:#000000;text-transform:none;fill:#bebebe" d="m284.31 288c-0.62347-0.00027-1.0084 0.32909-1.2812 0.59375-0.27283 0.26466-0.46296 0.53122-0.65625 0.78125s-0.38625 0.48341-0.5 0.59375-0.1119 0.0312 0.125 0.0312a1 1 0 1 0 0 2c0.62347 0.00027 1.0084-0.32909 1.2812-0.59375 0.27282-0.26466 0.46296-0.56247 0.65625-0.8125 0.14196-0.18364 0.26887-0.28618 0.375-0.40625 0.10618 0.12021 0.23303 0.22249 0.375 0.40625 0.19329 0.25019 0.41477 0.54771 0.6875 0.8125s0.62653 0.59348 1.25 0.59375c0.62346 0.00027 1.0084-0.32909 1.2812-0.59375 0.27283-0.26466 0.49421-0.56247 0.6875-0.8125 0.14681-0.18991 0.23598-0.31677 0.34375-0.4375 0.10941 0.12126 0.22291 0.24063 0.375 0.4375 0.19329 0.25019 0.41478 0.54771 0.6875 0.8125s0.65778 0.59348 1.2812 0.59375c0.62346 0.00027 1.0084-0.32909 1.2812-0.59375 0.27283-0.26466 0.46296-0.56247 0.65625-0.8125 0.14197-0.18364 0.26887-0.28618 0.375-0.40625 0.10671 0.12045 0.23152 0.25178 0.375 0.4375 0.19329 0.25019 0.38353 0.51646 0.65625 0.78125s0.65777 0.59348 1.2812 0.59375a1.0005 1.0005 0 1 0 0.0625 -2c0.0195 0.008 0.12277 0.0273 0.0625-0.0312-0.11385-0.11054-0.30671-0.34356-0.5-0.59375s-0.38352-0.51646-0.65625-0.78125-0.65778-0.59348-1.2812-0.59375c-0.62347-0.00027-1.0084 0.32909-1.2812 0.59375-0.27283 0.26466-0.46296 0.53122-0.65625 0.78125-0.14943 0.19329-0.26641 0.34779-0.375 0.46875-0.10977-0.12129-0.22162-0.27022-0.375-0.46875-0.19329-0.25019-0.41477-0.51646-0.6875-0.78125s-0.62653-0.59348-1.25-0.59375-1.0084 0.32909-1.2812 0.59375c-0.27283 0.26466-0.49421 0.53122-0.6875 0.78125-0.15337 0.1984-0.26529 0.34761-0.375 0.46875-0.10833-0.12103-0.19532-0.27662-0.34375-0.46875-0.19329-0.25019-0.41477-0.51646-0.6875-0.78125s-0.65778-0.59348-1.2812-0.59375z"/>
 </g>
</svg>
