<?xml version="1.0" encoding="UTF-8" standalone="no"?>
<!-- Created with Inkscape (http://www.inkscape.org/) -->
<svg id="svg7384" xmlns:rdf="http://www.w3.org/1999/02/22-rdf-syntax-ns#" xmlns="http://www.w3.org/2000/svg" height="16" width="16" version="1.1" xmlns:cc="http://creativecommons.org/ns#" xmlns:dc="http://purl.org/dc/elements/1.1/">
 <metadata id="metadata90">
  <rdf:RDF>
   <cc:Work rdf:about="">
    <dc:format>image/svg+xml</dc:format>
    <dc:type rdf:resource="http://purl.org/dc/dcmitype/StillImage"/>
    <dc:title>Gnome Symbolic Icon Theme</dc:title>
   </cc:Work>
  </rdf:RDF>
 </metadata>
 <title id="title9167">Gnome Symbolic Icon Theme</title>
 <g id="layer9" transform="translate(-201,-277)">
  <path id="path5094-5-04-4-6" style="color:#000000;fill:#bebebe" d="m210.49 278c-1.2767 0-2.3137 0.97301-2.4551 2.2188-0.32-0.12-0.65-0.22-1.02-0.22-1.6477 0-2.9834 1.3432-2.9834 3 0 0.0982 0.0219 0.1855 0.031 0.28125-0.3-0.18-0.65-0.28-1.03-0.28-1.0984 0-1.9889 0.89543-1.9889 2s0.89048 2 1.9889 2h0.37293c0.16455-0.35221 0.36642-0.68097 0.65261-0.96875l2.4551-2.4688 2.4551 2.4688c0.28329 0.28486 0.46455 0.62003 0.62154 0.96875h0.46616l1.4295-1.4375 1.4295 1.4375h2.5483c0.82384 0 1.4917-0.67157 1.4917-1.5s-0.66786-1.5-1.4917-1.5c-0.20596 0-0.412 0.0491-0.59046 0.125 0.0524-0.20194 0.0931-0.40658 0.0931-0.625 0-1.2294-0.88839-2.2282-2.0511-2.4375 0.0417-0.18136 0.0621-0.36843 0.0621-0.5625 0-1.3807-1.1131-2.5-2.4862-2.5z"/>
  <path id="path5927-5-0-8-7-0-1" style="block-progression:tb;text-indent:0;color:#000000;text-transform:none;fill:#bebebe" d="m206.5 284.91-0.34375 0.375-1.4375 1.4062c-0.97212 0.97212-0.97212 2.5591 0 3.5312 0.97212 0.97212 2.5904 0.97213 3.5625 0 0.97212-0.97212 0.97212-2.5591 0-3.5312l-1.4375-1.4062-0.34375-0.375zm0 1.4062 1.0625 1.0938c0.58998 0.58998 0.58998 1.535 0 2.125-0.58996 0.58997-1.535 0.58998-2.125 0v-0.0312c-0.56791-0.59117-0.58256-1.5112 0-2.0938l1.06-1.11z"/>
  <path id="path5927-5-0-8-7-0-4" style="block-progression:tb;text-indent:0;color:#000000;text-transform:none;fill:#bebebe" d="m211.5 286.91-0.34375 0.375-1.4375 1.4062c-0.97212 0.97212-0.97212 2.5591 0 3.5312 0.97212 0.97212 2.5904 0.97213 3.5625 0 0.97212-0.97212 0.97212-2.5591 0-3.5312l-1.4375-1.4062-0.34375-0.375zm0 1.4062 1.0625 1.0938c0.58998 0.58998 0.58998 1.535 0 2.125-0.58996 0.58997-1.535 0.58998-2.125 0v-0.0312c-0.56791-0.59117-0.58256-1.5112 0-2.0938l1.06-1.11z"/>
 </g>
</svg>
