<?xml version="1.0" encoding="UTF-8" standalone="no"?>
<!-- Created with Inkscape (http://www.inkscape.org/) -->
<svg id="svg7384" xmlns:rdf="http://www.w3.org/1999/02/22-rdf-syntax-ns#" xmlns="http://www.w3.org/2000/svg" height="16" width="16" version="1.1" xmlns:cc="http://creativecommons.org/ns#" xmlns:dc="http://purl.org/dc/elements/1.1/">
 <metadata id="metadata90">
  <rdf:RDF>
   <cc:Work rdf:about="">
    <dc:format>image/svg+xml</dc:format>
    <dc:type rdf:resource="http://purl.org/dc/dcmitype/StillImage"/>
    <dc:title>Gnome Symbolic Icon Theme</dc:title>
   </cc:Work>
  </rdf:RDF>
 </metadata>
 <title id="title9167">Gnome Symbolic Icon Theme</title>
 <g id="layer11" transform="translate(-123 -529.03)">
  <path id="path11106-5" style="fill:#bebebe" d="m127.96 537.66v2.3661h-3.5909c-0.20663 0-0.3683 0.20498-0.3683 0.46705v1.0585c0 0.26197 0.16167 0.46705 0.3683 0.46705h10.263c0.20664 0 0.36831-0.20508 0.36831-0.46705v-1.0585c0-0.26197-0.16167-0.46705-0.36831-0.46705h-3.655v-2.3661z"/>
  <path id="rect11110-4" style="block-progression:tb;text-indent:0;color:#000000;text-transform:none;fill:#bebebe" d="m126.8 529.03c-0.95124 0-1.8 0.79333-1.8 1.7459v6.6134c0 0.95261 0.84875 1.7459 1.8679 1.7459h5.2642c1.0192 0 1.8679-0.79333 1.8679-1.7459v-6.6134c0-0.9526-0.84875-1.7459-1.8679-1.7459zm0.20001 2h5c0.00001 0.31661 0-0.31595 0 0v6h-5v0-6 0z"/>
  <rect id="rect11880-7" style="color:#000000;fill:#bebebe" height="1.0022" width="3" y="532" x="128"/>
  <rect id="rect11882-6" style="color:#000000;fill:#bebebe" height="1.0022" width="1" y="534" x="130"/>
  <path id="path11106-9" style="fill:#bebebe" d="m132.23 532.03c0.0701 0 0 0.20877 0 0.47581v1.0783c0 0.26693 0.0701 0.47581 0.15975 0.47581h4.4516c0.0896 0 0.15974-0.20888 0.15974-0.47581v-1.0783c0-0.26693-0.0701-0.47581-0.15974-0.47581-0.15976 0-4.5857 0.0631-4.6113 0z"/>
  <path id="path11106-9-7-0" style="fill:#bebebe" d="m128.97 540.65c0.0792-0.0594 0.25217 0.0384 0.39407 0.22323l0.57302 0.74611c0.14184 0.18469 0.19083 0.37577 0.11162 0.43522-1.3118 0.9846-2.6237 1.9692-3.9356 2.9538-0.0792 0.0594-0.25222-0.0385-0.39407-0.22323l-0.57302-0.74611c-0.14184-0.18469-0.19083-0.37577-0.11162-0.43522 0 0 3.9465-2.8932 3.9356-2.9538z"/>
  <path id="path3761-5" style="fill:#bebebe" d="m130.03 540.65c-0.0792-0.0594-0.25217 0.0384-0.39407 0.22323l-0.57302 0.74611c-0.14184 0.18469-0.19083 0.37577-0.11162 0.43522 1.3118 0.9846 2.6237 1.9692 3.9356 2.9538 0.0792 0.0594 0.25222-0.0385 0.39407-0.22323l0.57302-0.74611c0.14184-0.18469 0.19083-0.37577 0.11162-0.43522 0 0-3.9465-2.8932-3.9356-2.9538z"/>
 </g>
</svg>
