/* XPM */
static char * maximize_toggled_active_xpm[] = {
"24 24 3 1",
" 	c None",
".	c #FFFFFF",
"+	c #858585",
"........................",
"........................",
"........................",
"........................",
"........................",
"........................",
".......+++++++++++......",
".......+.........+......",
".....+++++++++++.+......",
".....+.........+.+......",
".....+.........+.+......",
".....+.........+.+......",
".....+.........+.+......",
".....+.........+.+......",
".....+.........+.+......",
".....+.........+++......",
".....+.........+........",
".....+++++++++++........",
"........................",
"........................",
"........................",
"........................",
"........................",
"........................"};
