/* XPM */
static char * stick_inactive_xpm[] = {
"24 24 4 1",
" 	c None",
".	c #FFFFFF",
"+	c #B5B5B5",
"@	c #858585",
"........................",
"........................",
"........................",
"........................",
"........................",
"........................",
"........................",
"........................",
"..........+@@+..........",
".........@@@@@@.........",
"........+@+..+@+........",
"........@@....@@........",
"........@@....@@........",
"........+@+..+@+........",
".........@@@@@@.........",
"..........+@@+..........",
"........................",
"........................",
"........................",
"........................",
"........................",
"........................",
"........................",
"........................"};
