/* XPM */
static char * top_right_inactive_xpm[] = {
"2 26 3 1",
" 	c None",
".	c #CBCCD0",
"+	c #FFFFFF",
"..",
"+.",
"+.",
"+.",
"+.",
"+.",
"+.",
"+.",
"+.",
"+.",
"+.",
"+.",
"+.",
"+.",
"+.",
"+.",
"+.",
"+.",
"+.",
"+.",
"+.",
"+.",
"+.",
"+.",
"+.",
"+."};
