<?xml version="1.0" encoding="UTF-8" standalone="no"?>
<!-- Created with Inkscape (http://www.inkscape.org/) -->
<svg id="svg7384" xmlns:rdf="http://www.w3.org/1999/02/22-rdf-syntax-ns#" xmlns="http://www.w3.org/2000/svg" height="16.031" width="16.031" version="1.1" xmlns:cc="http://creativecommons.org/ns#" xmlns:dc="http://purl.org/dc/elements/1.1/">
 <metadata id="metadata90">
  <rdf:RDF>
   <cc:Work rdf:about="">
    <dc:format>image/svg+xml</dc:format>
    <dc:type rdf:resource="http://purl.org/dc/dcmitype/StillImage"/>
    <dc:title>Gnome Symbolic Icon Theme</dc:title>
   </cc:Work>
  </rdf:RDF>
 </metadata>
 <title id="title9167">Gnome Symbolic Icon Theme</title>
 <g id="layer14" transform="translate(-581 -301)">
  <path id="path3908-61" style="color:#000000;enable-background:new;fill:#bebebe" d="m-174-39.984a2.0156 2.0156 0 1 1 -4.0312 0 2.0156 2.0156 0 1 1 4.0312 0z" transform="translate(759.03 343.03)"/>
  <path id="path3910-1" style="color:#000000;enable-background:new;fill:#bebebe" d="m-174-39.984a2.0156 2.0156 0 1 1 -4.0312 0 2.0156 2.0156 0 1 1 4.0312 0z" transform="translate(759.03 354.97)"/>
  <path id="path3912" style="color:#000000;enable-background:new;fill:#bebebe" d="m-174-39.984a2.0156 2.0156 0 1 1 -4.0312 0 2.0156 2.0156 0 1 1 4.0312 0z" transform="translate(771.03 354.97)"/>
  <path id="path3914" style="color:#000000;enable-background:new;fill:#bebebe" d="m-174-39.984a2.0156 2.0156 0 1 1 -4.0312 0 2.0156 2.0156 0 1 1 4.0312 0z" transform="translate(771.03 343)"/>
  <path id="rect3916" style="block-progression:tb;text-indent:0;color:#000000;enable-background:new;text-transform:none;fill:#bebebe" d="m582.06 302.06v1 11.969 1h1 11.969 1v-1-11.969-1h-1-11.969-1zm2 2h9.9688v9.9688h-9.9688v-9.9688z"/>
  <path id="rect3918" style="block-progression:tb;text-indent:0;color:#000000;enable-background:new;text-transform:none;fill:#bebebe" d="m585.97 306.03v0.5 5 0.5h0.5 5.0625 0.5v-0.5-5-0.5h-0.5-5.0625-0.5zm1 1h4.0625v4h-4.0625v-4z"/>
  <path id="path3937" style="color:#000000;enable-background:new;fill:#bebebe" d="m-166.5-31.766a1.2656 1.2656 0 1 1 -2.5312 0 1.2656 1.2656 0 1 1 2.5312 0z" transform="matrix(1.1975 0 0 1.1975 792.42 349.56)"/>
  <path id="path3939" style="color:#000000;enable-background:new;fill:#bebebe" d="m-166.5-31.766a1.2656 1.2656 0 1 1 -2.5312 0 1.2656 1.2656 0 1 1 2.5312 0z" transform="matrix(1.1975 0 0 1.1975 787.42 349.56)"/>
  <path id="path3941" style="color:#000000;enable-background:new;fill:#bebebe" d="m-166.5-31.766a1.2656 1.2656 0 1 1 -2.5312 0 1.2656 1.2656 0 1 1 2.5312 0z" transform="matrix(1.1975 0 0 1.1975 787.42 344.59)"/>
  <path id="path3943" style="color:#000000;enable-background:new;fill:#bebebe" d="m-166.5-31.766a1.2656 1.2656 0 1 1 -2.5312 0 1.2656 1.2656 0 1 1 2.5312 0z" transform="matrix(1.1975 0 0 1.1975 792.48 344.59)"/>
  <path id="path3945" style="block-progression:tb;text-indent:0;color:#000000;enable-background:new;text-transform:none;fill:#bebebe" d="m591.88 311.22-0.6875 0.6875 3.4062 3.4375 0.71875-0.71875-3.4375-3.4062z"/>
  <path id="path3949" style="block-progression:tb;text-indent:0;color:#000000;enable-background:new;text-transform:none;fill:#bebebe" d="m586.59 311.22-3.4062 3.4062 0.6875 0.71875 3.4375-3.4375-0.71875-0.6875z"/>
  <path id="path3953" style="block-progression:tb;text-indent:0;color:#000000;enable-background:new;text-transform:none;fill:#bebebe" d="m594.59 303.22-3.4062 3.4062 0.6875 0.71875 3.4375-3.4375-0.71875-0.6875z"/>
  <path id="path3955" style="block-progression:tb;text-indent:0;color:#000000;enable-background:new;text-transform:none;fill:#bebebe" d="m583.88 303.22-0.6875 0.6875 3.4062 3.4375 0.71875-0.71875-3.4375-3.4062z"/>
 </g>
</svg>
