<?xml version="1.0" encoding="UTF-8" standalone="no"?>
<!-- This is a derivative work based on the Debian logo  -->
<!-- Copyleft: SZERVAC Attila - sas - @ 321.hu -->
<!-- Created with Inkscape (http://www.inkscape.org/) -->
<svg id="svg1" xmlns:rdf="http://www.w3.org/1999/02/22-rdf-syntax-ns#" xmlns="http://www.w3.org/2000/svg" height="48" width="48" version="1.0" y="0" x="0" xmlns:cc="http://creativecommons.org/ns#" xmlns:dc="http://purl.org/dc/elements/1.1/">
 <metadata id="metadata954">
  <rdf:RDF>
   <cc:Work rdf:about="">
    <dc:format>image/svg+xml</dc:format>
    <dc:type rdf:resource="http://purl.org/dc/dcmitype/StillImage"/>
   </cc:Work>
  </rdf:RDF>
 </metadata>
 <g id="Debian" style="fill:#d70751" transform="matrix(.041645 0 0 -.041645 -108.09 186.12)">
  <g id="GROUP_BEGIN_2">
   <path id="PATH_1" d="m3255.5 3850.9c-18-0.2 3.4-9.3 26.8-12.9 6.5 5.1 12.4 10.2 17.6 15.2-14.6-3.6-29.5-3.7-44.4-2.3"/>
   <path id="PATH_2" d="m3351.9 3874.9c10.7 14.8 18.5 31 21.3 47.7-2.4-11.9-8.9-22.2-15-33.1-33.6-21.1-3.2 12.6 0 25.4-36.1-45.5-5-27.3-6.3-40"/>
   <path id="PATH_3" d="m3387.5 3967.6c2.2 32.3-6.4 22.1-9.2 9.8 3.3-1.8 6-22.8 9.2-9.8"/>
   <path id="PATH_4" d="m3187.3 4409.9c9.6-1.7 20.8-3.1 19.2-5.3 10.5 2.3 12.8 4.4-19.2 5.3"/>
   <path id="PATH_5" d="m3206.5 4404.6l-6.8-1.5 6.3 0.6 0.5 0.9"/>
   <path id="PATH_6" d="m3505.5 3955.3c1.1-29.1-8.5-43.1-17.1-68.1l-15.5-7.8c-12.7-24.6 1.2-15.6-7.9-35.3-19.8-17.6-60.2-55.2-73.1-58.6-9.5 0.2 6.4 11.1 8.4 15.4-26.5-18.2-21.3-27.4-61.9-38.5l-1.2 2.7c-100.2-47.2-239.3 46.2-237.5 173.7-1.1-8.1-3-6.1-5.3-9.4-5.1 65.6 30.3 131.5 90.1 158.4 58.5 28.9 127 17 168.9-22-23 30.1-68.8 62.1-123.1 59.1-53.1-0.8-102.9-34.6-119.5-71.3-27.2-17.2-30.4-66.1-42.2-75.1-16-117.3 30-168.1 107.8-227.7 12.3-8.3 3.5-9.5 5.1-15.8-25.8 12.1-49.5 30.4-69 52.8 10.4-15.1 21.5-29.9 35.9-41.4-24.4 8.3-56.9 59.1-66.4 61.2 42-75.3 170.5-132 237.8-103.9-31.2-1.1-70.7-0.6-105.7 12.3-14.7 7.6-34.7 23.2-31.1 26.2 91.8-34.3 186.7-26 266.1 37.7 20.2 15.7 42.3 42.5 48.7 42.9-9.6-14.5 1.6-7-5.7-19.7 20.1 32.5-8.8 13.2 20.8 56.1l10.9-15.1c-4.1 27 33.5 59.7 29.6 102.4 8.7 13 9.7-14.1 0.5-44.1 12.7 33.3 3.4 38.7 6.6 66.1 3.5-9.2 8.2-19 10.5-28.7-8.2 32.1 8.5 54.1 12.7 72.8-4.1 1.8-12.8-14.2-14.8 23.8 0.3 16.5 4.6 8.6 6.3 12.7-3.3 1.8-11.8 14.5-16.9 38.7 3.7 5.8 10-14.7 15.1-15.6-3.3 19.3-9 34-9.2 48.8-14.9 31.2-5.3-4.1-17.4 13.4-15.8 49.5 13.2 11.5 15.2 34 24-34.9 37.7-88.8 44-111.2-4.8 27.2-12.5 53.7-22 79.2 7.3-3.1-11.8 56.1 9.5 16.9-22.7 83.5-97.2 161.6-165.7 198.2 8.4-7.7 19-17.3 15.2-18.8-34.1 20.3-28.1 21.9-33 30.4-27.7 11.3-29.5-0.9-47.9 0-52.3 27.7-62.4 24.8-110.5 42.2l2.2-10.3c-34.7 11.6-40.4-4.3-77.9 0-2.2 1.8 12 6.4 23.8 8.1-33.5-4.4-31.9 6.7-64.7-1.2 8.1 5.7 16.6 9.5 25.2 14.3-27.3-1.7-65.2-15.9-53.5-3-44.5-19.9-123.7-47.8-168.1-89.4l-1.4 9.3c-20.4-24.4-88.7-72.9-94.2-104.6l-5.4-1.3c-10.6-17.9-17.5-38.2-25.9-56.6-13.8-23.7-20.3-9.1-18.3-12.8-27.2-55.3-40.8-101.7-52.5-139.7 8.4-12.5 0.2-75 3.4-125-13.7-247 173.4-486.9 377.8-542.3 30-10.7 74.6-10.3 112.5-11.4-44.8 12.8-50.5 6.8-94.1 22-31.4 14.8-38.3 31.7-60.6 51l8.8-15.6c-43.6 15.5-25.4 19.2-60.9 30.4l9.4 12.3c-14.1 1.1-37.4 23.8-43.8 36.5l-15.5-0.7c-18.6 23-28.5 39.5-27.8 52.4l-5-8.9c-5.7 9.7-68.4 86-35.9 68.3-6 5.5-14 9-22.8 24.8l6.7 7.6c-15.7 20.1-28.9 46-27.9 54.6 8.4-11.3 14.2-13.4 19.9-15.3-39.5 98.1-41.8 5.4-71.7 99.9l6.3 0.5c-4.9 7.3-7.8 15.3-11.7 23.1l2.7 27.5c-28.4 32.9-7.9 140-3.8 198.7 2.9 23.9 23.8 49.3 39.7 89.2l-9.7 1.7c18.5 32.3 105.9 129.9 146.3 124.9 19.6 24.6-3.9 0.1-7.7 6.3 43 44.5 56.5 31.4 85.6 39.4 31.3 18.6-26.9-7.2-12 7.1 54.1 13.8 38.3 31.5 109 38.5 7.4-4.3-17.3-6.6-23.5-12.1 45.1 22.1 142.7 17.1 206.1-12.2 73.6-34.4 156.3-136.1 159.5-231.7l3.8-1c-1.9-38 5.8-82-7.6-122.4l9.1 19.1"/>
   <path id="PATH_7" d="m3059.3 3826.2l-2.5-12.6c11.8-16 21.2-33.4 36.3-45.9-10.9 21.1-18.9 29.9-33.8 58.5"/>
   <path id="PATH_8" d="m3087.2 3827.3c-6.2 6.9-9.9 15.3-14 23.5 3.9-14.5 12-27 19.6-39.8l-5.6 16.3"/>
   <path id="PATH_9" d="m3581.3 3934.7l-2.6-6.6c-4.9-34.4-15.3-68.4-31.4-99.9 17.7 33.2 29.2 69.6 34 106.5"/>
   <path id="PATH_10" d="m3190.9 4418.5c12.1 4.4 29.8 2.4 42.7 5.4-16.8-1.4-33.5-2.3-50-4.4l7.3-1"/>
   <path id="PATH_11" d="m2764.3 4191.7c2.8-25.9-19.5-36 5-18.9 13.1 29.5-5.2 8.1-5 18.9"/>
   <path id="PATH_12" d="m2735.6 4071.7c5.6 17.3 6.6 27.7 8.8 37.7-15.6-19.9-7.2-24.2-8.8-37.7"/>
  </g>
 </g>
</svg>
