<?xml version="1.0" encoding="UTF-8" standalone="no"?>
<!-- Created with Inkscape (http://www.inkscape.org/) -->
<svg id="svg7384" xmlns:rdf="http://www.w3.org/1999/02/22-rdf-syntax-ns#" xmlns="http://www.w3.org/2000/svg" height="16" width="16" version="1.1" xmlns:cc="http://creativecommons.org/ns#" xmlns:dc="http://purl.org/dc/elements/1.1/">
 <metadata id="metadata90">
  <rdf:RDF>
   <cc:Work rdf:about="">
    <dc:format>image/svg+xml</dc:format>
    <dc:type rdf:resource="http://purl.org/dc/dcmitype/StillImage"/>
    <dc:title>Gnome Symbolic Icon Theme</dc:title>
   </cc:Work>
  </rdf:RDF>
 </metadata>
 <title id="title9167">Gnome Symbolic Icon Theme</title>
 <g id="g4953" transform="translate(-522 -462)">
  <path id="rect7157" d="m530 470c-3.9984 0-5.9977 3-5.9977 6h-1.7493c-0.2499 0-0.2499 0.15712-0.2499 0.25v1.5c0 0.25 0.13814 0.25 0.2499 0.25h15.494c0.19535 0.006 0.2499-0.12948 0.2499-0.25v-1.5c0.0212-0.14605 0-0.25-0.2499-0.25h-1.7493c0-3-1.9992-6-5.9977-6zm0 3c2.3501 0 2.9988 1.7618 2.9988 3h-5.9977c0-1.1977 0.70253-3 2.9988-3z" style="enable-background:new;fill:#bebebe;fill-rule:evenodd"/>
  <path id="path3908-6" d="m536.99 462.6c-0.28315-0.24009-0.6238-0.41924-0.96653-0.5613l-0.0217 2.232c-0.005 0.45867-0.4519 0.72949-1.0057 0.72949h-0.99961c-0.55376-0.007-1.0031-0.30935-0.9986-0.76802l0.03-2.23c-0.34541 0.13322-0.68945 0.3036-0.9772 0.53638-1.3773 1.1141-1.3951 2.9489-0.0399 4.098 0.28315 0.24009 0.6238 0.41924 0.96652 0.56131 0.0278 0.0113 0.0278 2.0543 0.0278 2.0543 1.4895 0.75 2.3509 1.75 2.9988 2.75v-4.7483c0.3454-0.13322 0.66671-0.32107 0.95447-0.55384 1.3773-1.1141 1.3951-2.9489 0.0399-4.0981z" style="block-progression:tb;text-indent:0;color:#000000;text-transform:none;fill:#bebebe"/>
 </g>
</svg>
