<?xml version="1.0" encoding="UTF-8" standalone="no"?>
<!-- Created with Inkscape (http://www.inkscape.org/) -->
<svg id="svg7384" xmlns:rdf="http://www.w3.org/1999/02/22-rdf-syntax-ns#" xmlns="http://www.w3.org/2000/svg" height="16" width="16" version="1.1" xmlns:cc="http://creativecommons.org/ns#" xmlns:dc="http://purl.org/dc/elements/1.1/">
 <metadata id="metadata90">
  <rdf:RDF>
   <cc:Work rdf:about="">
    <dc:format>image/svg+xml</dc:format>
    <dc:type rdf:resource="http://purl.org/dc/dcmitype/StillImage"/>
    <dc:title>Gnome Symbolic Icon Theme</dc:title>
   </cc:Work>
  </rdf:RDF>
 </metadata>
 <title id="title9167">Gnome Symbolic Icon Theme</title>
 <g id="g4953" transform="translate(-462 -462)">
  <path id="rect4665-8" style="color:#000000;fill:#bebebe" d="m463.97 462c-1.0912 0-1.9688 0.87755-1.9688 1.9688v12.062c0 1.0912 0.87755 1.9688 1.9688 1.9688h12.031c0.554 0 1-0.446 1-1v-11c0-0.554-0.446-1-1-1h-12c-0.554 0-1-0.446-1-1s0.446-1 1-1h12c0-0.55856-0.44144-1-1-1zm6.0312 4.0625c2.7267 0 4.9375 2.2079 4.9375 4.9375s-2.2108 4.9375-4.9375 4.9375-4.9375-2.2079-4.9375-4.9375 2.2108-4.9375 4.9375-4.9375zm0 1c-0.63685 0-1.22 0.17421-1.75 0.4375l0.71875 1.5c0.31325-0.1625 0.65582-0.28125 1.0312-0.28125 0.37543 0 0.718 0.11875 1.0312 0.28125l0.71875-1.5c-0.53005-0.26329-1.1132-0.4375-1.75-0.4375zm-3.5 2.1875c-0.26373 0.53017-0.4375 1.1118-0.4375 1.75 0 0.64816 0.16599 1.245 0.4375 1.7812l1.5-0.75c-0.16256-0.31326-0.28125-0.65563-0.28125-1.0312 0-0.36123 0.0989-0.69568 0.25-1zm7.0312 0-1.5 0.75c0.1511 0.30432 0.25 0.63877 0.25 1 0 0.37562-0.11869 0.71799-0.28125 1.0312l1.5 0.75c0.27151-0.53622 0.4375-1.1331 0.4375-1.7812 0-0.6332-0.14638-1.2229-0.40625-1.75zm-3.5312 0.46875c-0.71682 0-1.2812 0.56221-1.2812 1.2812 0 0.71904 0.56443 1.2812 1.2812 1.2812 0.71682 0 1.2812-0.56221 1.2812-1.2812 0-0.71904-0.56443-1.2812-1.2812-1.2812zm1.03 3.28c-0.31325 0.1625-0.65582 0.28125-1.0312 0.28125-0.36105 0-0.6957-0.099-1-0.25l-0.75 1.5c0.52698 0.25944 1.1181 0.40625 1.75 0.40625 0.63685 0 1.22-0.17421 1.75-0.4375z"/>
  <path id="rect11749-5-0-3-9-3-7-4" style="color:#bebebe;fill:#bebebe" d="m470 467.03c-0.64211 0-1.245 0.13662-1.7812 0.40625l0.74229 1.5325c0.39027-0.17861 0.54899-0.21178 1.0422-0.24611 0.54638-0.002 0.71942 0.13487 1.0266 0.23344l0.72021-1.5198c-0.53621-0.26958-1.1079-0.40625-1.75-0.40625zm-3.5625 2.2188c-0.26553 0.53901-0.4375 1.1356-0.4375 1.7812 0 0.65895 0.19284 1.2653 0.46875 1.8125l1.5268-0.77591c-0.15799-0.27948-0.23673-0.49585-0.27949-1.0568 0.0432-0.4966 0.0616-0.47071 0.23058-0.98785zm7.125 0-1.4968 0.74459c0.15043 0.37094 0.19879 0.4814 0.22336 1.0093-0.006 0.22936 0.0148 0.52961-0.26718 1.0851l1.5093 0.75466c0.27592-0.54718 0.4375-1.1536 0.4375-1.8125 0-0.64562-0.14071-1.2422-0.40625-1.7812zm-3.5349 4.0395c-0.47463-0.0401-0.61731-0.0296-1.012-0.23332l-0.79685 1.5688c0.5362 0.26963 1.1391 0.4375 1.7812 0.4375 0.64211 0 1.2138-0.16787 1.75-0.4375l-0.74598-1.5666c-0.39575 0.19501-0.43347 0.17321-0.9764 0.23109z"/>
  <path id="path5579" style="fill:#bebebe" d="m231.12 273.97a3.5 3.9062 0 1 1 -7 0 3.5 3.9062 0 1 1 7 0z" transform="matrix(.36663 0 0 .3275 386.55 381.28)"/>
 </g>
</svg>
