<?xml version="1.0" encoding="UTF-8" standalone="no"?>
<!-- Created with Inkscape (http://www.inkscape.org/) -->

<svg
   xmlns:dc="http://purl.org/dc/elements/1.1/"
   xmlns:cc="http://creativecommons.org/ns#"
   xmlns:rdf="http://www.w3.org/1999/02/22-rdf-syntax-ns#"
   xmlns:svg="http://www.w3.org/2000/svg"
   xmlns="http://www.w3.org/2000/svg"
   xmlns:xlink="http://www.w3.org/1999/xlink"
   xmlns:sodipodi="http://sodipodi.sourceforge.net/DTD/sodipodi-0.dtd"
   xmlns:inkscape="http://www.inkscape.org/namespaces/inkscape"
   inkscape:export-ydpi="90.000000"
   inkscape:export-xdpi="90.000000"
   width="24"
   height="24"
   id="svg11300"
   sodipodi:version="0.32"
   inkscape:version="0.48.4 r9939"
   sodipodi:docname="workspace-name-pressed.svg"
   inkscape:output_extension="org.inkscape.output.svg.inkscape"
   version="1.0"
   style="display:inline;enable-background:new">
  <sodipodi:namedview
     stroke="#ef2929"
     fill="#f57900"
     id="base"
     pagecolor="#8c8c8c"
     bordercolor="#ff5e00"
     borderopacity="1"
     inkscape:pageopacity="1"
     inkscape:pageshadow="2"
     inkscape:zoom="20.005229"
     inkscape:cx="12.099974"
     inkscape:cy="12"
     inkscape:current-layer="layer1"
     showgrid="true"
     inkscape:grid-bbox="true"
     inkscape:document-units="px"
     inkscape:showpageshadow="false"
     inkscape:window-width="1600"
     inkscape:window-height="846"
     inkscape:window-x="0"
     inkscape:window-y="25"
     width="400px"
     height="300px"
     inkscape:snap-nodes="true"
     inkscape:snap-bbox="true"
     gridtolerance="10000"
     inkscape:object-nodes="true"
     inkscape:snap-grids="true"
     showguides="true"
     inkscape:guide-bbox="true"
     inkscape:window-maximized="1"
     inkscape:bbox-nodes="true"
     inkscape:bbox-paths="false"
     inkscape:snap-bbox-edge-midpoints="false"
     inkscape:snap-bbox-midpoints="false"
     objecttolerance="10000"
     guidetolerance="10000"
     borderlayer="true"
     showborder="true"
     guidecolor="#ff0b00"
     guideopacity="1"
     guidehicolor="#001aff"
     guidehiopacity="0.49803922"
     inkscape:snap-smooth-nodes="true">
    <inkscape:grid
       type="xygrid"
       id="grid3123"
       empspacing="4"
       visible="true"
       enabled="true"
       snapvisiblegridlinesonly="true" />
  </sodipodi:namedview>
  <defs
     id="defs3">
    <linearGradient
       inkscape:collect="always"
       id="linearGradient3814">
      <stop
         style="stop-color:#000000;stop-opacity:1;"
         offset="0"
         id="stop3816" />
      <stop
         style="stop-color:#000000;stop-opacity:0;"
         offset="1"
         id="stop3818" />
    </linearGradient>
    <linearGradient
       inkscape:collect="always"
       id="linearGradient3806">
      <stop
         style="stop-color:#000000;stop-opacity:1;"
         offset="0"
         id="stop3808" />
      <stop
         style="stop-color:#000000;stop-opacity:0;"
         offset="1"
         id="stop3810" />
    </linearGradient>
    <linearGradient
       inkscape:collect="always"
       xlink:href="#linearGradient3806"
       id="linearGradient3812"
       x1="24"
       y1="2"
       x2="24"
       y2="22"
       gradientUnits="userSpaceOnUse" />
    <linearGradient
       inkscape:collect="always"
       xlink:href="#linearGradient3814"
       id="linearGradient3822"
       x1="24"
       y1="2"
       x2="24"
       y2="22"
       gradientUnits="userSpaceOnUse" />
  </defs>
  <metadata
     id="metadata4">
    <rdf:RDF>
      <cc:Work
         rdf:about="">
        <dc:format>image/svg+xml</dc:format>
        <dc:type
           rdf:resource="http://purl.org/dc/dcmitype/StillImage" />
        <dc:creator>
          <cc:Agent>
            <dc:title />
          </cc:Agent>
        </dc:creator>
        <dc:source />
        <cc:license
           rdf:resource="" />
        <dc:title />
        <dc:subject>
          <rdf:Bag />
        </dc:subject>
        <dc:date />
        <dc:rights>
          <cc:Agent>
            <dc:title />
          </cc:Agent>
        </dc:rights>
        <dc:publisher>
          <cc:Agent>
            <dc:title />
          </cc:Agent>
        </dc:publisher>
        <dc:identifier />
        <dc:relation />
        <dc:language />
        <dc:coverage />
        <dc:description />
        <dc:contributor>
          <cc:Agent>
            <dc:title />
          </cc:Agent>
        </dc:contributor>
      </cc:Work>
      <cc:Work
         rdf:about="">
        <dc:format>image/svg+xml</dc:format>
        <dc:type
           rdf:resource="http://purl.org/dc/dcmitype/StillImage" />
      </cc:Work>
    </rdf:RDF>
  </metadata>
  <g
     style="display:inline"
     inkscape:groupmode="layer"
     inkscape:label="Base"
     id="layer1"
     transform="translate(0,-276)">
    <path
       style="opacity:0.4;fill:#000000;fill-opacity:1;stroke:none"
       d="M 2,0 C 0.892,0 0,0.892 0,2 l 0,20 c 0,1.108 0.892,2 2,2 l 20,0 c 1.108,0 2,-0.892 2,-2 L 24,2 C 24,0.892 23.108,0 22,0 z m 1,1 18,0 c 1.108,0 2,0.892 2,2 l 0,18 c 0,1.108 -0.892,2 -2,2 L 3,23 C 1.892,23 1,22.108 1,21 L 1,3 C 1,1.892 1.892,1 3,1 z"
       id="rect3023"
       transform="translate(0,276)"
       inkscape:connector-curvature="0"
       sodipodi:nodetypes="ssssssssssssssssss" />
    <rect
       style="opacity:0.7;fill:#ffffff;fill-opacity:1;stroke:none"
       id="rect3021"
       width="22"
       height="22"
       x="1"
       y="277"
       ry="2"
       rx="2" />
    <path
       style="opacity:0.07999998;fill:url(#linearGradient3822);fill-opacity:1;stroke:none"
       d="M 3,1 C 1.892,1 1,1.892 1,3 l 0,18 c 0,1.108 0.892,2 2,2 l 18,0 c 1.108,0 2,-0.892 2,-2 L 23,3 C 23,1.892 22.108,1 21,1 z m 2,2 14,0 c 1.108,0 2,0.892 2,2 l 0,14 c 0,1.108 -0.892,2 -2,2 L 5,21 C 3.892,21 3,20.108 3,19 L 3,5 C 3,3.892 3.892,3 5,3 z"
       transform="translate(0,276)"
       id="rect3033"
       inkscape:connector-curvature="0"
       sodipodi:nodetypes="ssssssssssssssssss" />
    <path
       style="opacity:0.2;fill:url(#linearGradient3812);fill-opacity:1;stroke:none"
       d="M 3,1 C 1.892,1 1,1.892 1,3 l 0,18 c 0,1.108 0.892,2 2,2 l 18,0 c 1.108,0 2,-0.892 2,-2 L 23,3 C 23,1.892 22.108,1 21,1 z m 1,1 16,0 c 1.108,0 2,0.892 2,2 l 0,16 c 0,1.108 -0.892,2 -2,2 L 4,22 C 2.892,22 2,21.108 2,20 L 2,4 C 2,2.892 2.892,2 4,2 z"
       transform="translate(0,276)"
       id="rect3028"
       inkscape:connector-curvature="0"
       sodipodi:nodetypes="ssssssssssssssssss" />
  </g>
</svg>
