<?xml version="1.0" encoding="UTF-8" standalone="no"?>
<!-- Created with Inkscape (http://www.inkscape.org/) -->

<svg
   xmlns:dc="http://purl.org/dc/elements/1.1/"
   xmlns:cc="http://creativecommons.org/ns#"
   xmlns:rdf="http://www.w3.org/1999/02/22-rdf-syntax-ns#"
   xmlns:svg="http://www.w3.org/2000/svg"
   xmlns="http://www.w3.org/2000/svg"
   xmlns:sodipodi="http://sodipodi.sourceforge.net/DTD/sodipodi-0.dtd"
   xmlns:inkscape="http://www.inkscape.org/namespaces/inkscape"
   id="svg7384"
   height="16"
   width="16"
   version="1.1"
   inkscape:version="0.91 r13725"
   sodipodi:docname="edit-find-symbolic.svg">
  <defs
     id="defs10" />
  <sodipodi:namedview
     pagecolor="#ffffff"
     bordercolor="#666666"
     borderopacity="1"
     objecttolerance="10"
     gridtolerance="10"
     guidetolerance="10"
     inkscape:pageopacity="0"
     inkscape:pageshadow="2"
     inkscape:window-width="1366"
     inkscape:window-height="688"
     id="namedview8"
     showgrid="false"
     inkscape:zoom="20.85965"
     inkscape:cx="4.5959827"
     inkscape:cy="9.9913927"
     inkscape:window-x="0"
     inkscape:window-y="0"
     inkscape:window-maximized="1"
     inkscape:current-layer="svg7384" />
  <metadata
     id="metadata90">
    <rdf:RDF>
      <cc:Work
         rdf:about="">
        <dc:format>image/svg+xml</dc:format>
        <dc:type
           rdf:resource="http://purl.org/dc/dcmitype/StillImage" />
        <dc:title>Gnome Symbolic Icon Theme</dc:title>
      </cc:Work>
    </rdf:RDF>
  </metadata>
  <title
     id="title9167">Gnome Symbolic Icon Theme</title>
  <g
     id="g3340"
     transform="translate(-0.16651,0.1106)">
    <path
       id="path27918"
       style="color:#000000;text-indent:0;text-transform:none;block-progression:tb;fill:#bebebe;enable-background:new"
       d="m 9.51426,1.03 c 3.0289,0 5.5107,2.479 5.5107,5.5045 0,3.0254 -2.4819,5.5045 -5.5107,5.5045 -3.0288,0 -5.5107,-2.479 -5.5107,-5.5045 0,-3.0254 2.4819,-5.5045 5.5107,-5.5045 z m 0,2.0089 c -1.9474,0 -3.4995,1.5504 -3.4995,3.4955 0,1.9451 1.5522,3.4955 3.4995,3.4955 1.9474,0 3.4995,-1.5504 3.4995,-3.4955 0,-1.9452 -1.5522,-3.4955 -3.4995,-3.4955 z"
       inkscape:connector-curvature="0" />
    <path
       id="path27941"
       style="color:#000000;text-indent:0;text-transform:none;block-progression:tb;fill:#bebebe;enable-background:new"
       d="m 6.21426,9.03 c 0.8119282,0.1472626 1.1062407,1.158991 0.5,1.7188 l -4,4 c -1.4062,-1.4375 0,0 -1.4062,-1.4375 l 4,-4 c 0.2365992,-0.2409961 0.5788472,-0.3463031 0.91,-0.28 z"
       inkscape:connector-curvature="0"
       sodipodi:nodetypes="ccccccc" />
  </g>
</svg>
