<?xml version="1.0" encoding="UTF-8" standalone="no"?>
<!-- Created with Inkscape (http://www.inkscape.org/) -->
<svg id="svg7384" xmlns:rdf="http://www.w3.org/1999/02/22-rdf-syntax-ns#" xmlns="http://www.w3.org/2000/svg" height="16" width="16" version="1.1" xmlns:cc="http://creativecommons.org/ns#" xmlns:dc="http://purl.org/dc/elements/1.1/">
 <metadata id="metadata90">
  <rdf:RDF>
   <cc:Work rdf:about="">
    <dc:format>image/svg+xml</dc:format>
    <dc:type rdf:resource="http://purl.org/dc/dcmitype/StillImage"/>
    <dc:title>Gnome Symbolic Icon Theme</dc:title>
   </cc:Work>
  </rdf:RDF>
 </metadata>
 <title id="title9167">Gnome Symbolic Icon Theme</title>
 <g id="layer12" transform="translate(-381 -627)">
  <path id="path4784" style="block-progression:tb;text-indent:0;color:#000000;text-transform:none;fill:#bebebe" d="m390.5 629c-1.9212 0-3.5 1.5788-3.5 3.5v6.5h2v-6.5c0-0.84027 0.65973-1.5 1.5-1.5s1.5 0.65973 1.5 1.5v0.5h2v-0.5c0-1.9212-1.5788-3.5-3.5-3.5z"/>
  <path id="path4786" style="block-progression:tb;text-indent:0;color:#bebebe;text-transform:none;fill:#bebebe" d="m384 636h1c0.25689 0 0.52846 0.12983 0.71875 0.3125l2.2812 2.2812 2.2812-2.2812c0.19029-0.18267 0.46186-0.3125 0.71875-0.3125h1v1c0 0.30945-0.0903 0.55232-0.28125 0.75l-3.7188 3.6562-3.7188-3.6562c-0.19095-0.19768-0.28125-0.44055-0.28125-0.75z"/>
 </g>
</svg>
