<?xml version="1.0" encoding="UTF-8" standalone="no"?>
<!-- Created with Inkscape (http://www.inkscape.org/) -->

<svg
   xmlns:dc="http://purl.org/dc/elements/1.1/"
   xmlns:cc="http://creativecommons.org/ns#"
   xmlns:rdf="http://www.w3.org/1999/02/22-rdf-syntax-ns#"
   xmlns:svg="http://www.w3.org/2000/svg"
   xmlns="http://www.w3.org/2000/svg"
   xmlns:sodipodi="http://sodipodi.sourceforge.net/DTD/sodipodi-0.dtd"
   xmlns:inkscape="http://www.inkscape.org/namespaces/inkscape"
   id="svg7384"
   height="16"
   width="16"
   version="1.1"
   inkscape:version="0.91 r13725"
   sodipodi:docname="media-seek-backward-rtl-symbolic.svg">
  <defs
     id="defs12" />
  <sodipodi:namedview
     pagecolor="#ffffff"
     bordercolor="#666666"
     borderopacity="1"
     objecttolerance="10"
     gridtolerance="10"
     guidetolerance="10"
     inkscape:pageopacity="0"
     inkscape:pageshadow="2"
     inkscape:window-width="1366"
     inkscape:window-height="688"
     id="namedview10"
     showgrid="false"
     showguides="false"
     inkscape:zoom="20.85965"
     inkscape:cx="5.2669838"
     inkscape:cy="9.7552028"
     inkscape:window-x="0"
     inkscape:window-y="0"
     inkscape:window-maximized="1"
     inkscape:current-layer="svg7384" />
  <metadata
     id="metadata90">
    <rdf:RDF>
      <cc:Work
         rdf:about="">
        <dc:format>image/svg+xml</dc:format>
        <dc:type
           rdf:resource="http://purl.org/dc/dcmitype/StillImage" />
        <dc:title>Gnome Symbolic Icon Theme</dc:title>
      </cc:Work>
    </rdf:RDF>
  </metadata>
  <title
     id="title9167">Gnome Symbolic Icon Theme</title>
  <g
     id="g3386"
     transform="translate(0.1387434,-0.3050458)">
    <path
       id="path4409"
       style="color:#000000;text-indent:0;text-transform:none;block-progression:tb;fill:#bebebe"
       d="m 2.7918951,4.3050915 c 0.1484578,0.008 0.2939105,0.0592 0.418473,0.15625 l 4.1847318,3 c 0.2363537,0.17971 0.366164,0.51173 0.366164,0.84375 0,0.33202 -0.1298103,0.66404 -0.366164,0.84375 L 3.2103681,12.148842 c -0.1245625,0.097 -0.2700152,0.14825 -0.418473,0.15625 l -0.1307724,0 -0.7061735,0 0,-8.0000005 0.7061735,0 z"
       inkscape:connector-curvature="0" />
    <path
       id="path4409-4"
       style="color:#000000;text-indent:0;text-transform:none;block-progression:tb;fill:#bebebe"
       d="m 8.7981953,4.3049996 c 0.1484578,0.008 0.2939105,0.0592 0.418473,0.15625 l 4.1847317,3 c 0.236354,0.17971 0.366164,0.51173 0.366164,0.84375 0,0.33202 -0.12981,0.66404 -0.366164,0.84375 L 9.2166683,12.14875 C 9.0921058,12.24575 8.9466531,12.297 8.7981953,12.305 l -0.1307724,0 -0.7061735,0 0,-8.0000004 0.7061735,0 z"
       inkscape:connector-curvature="0" />
  </g>
</svg>
