<?xml version="1.0" encoding="UTF-8" standalone="no"?>
<!-- Created with Inkscape (http://www.inkscape.org/) -->

<svg
   xmlns:dc="http://purl.org/dc/elements/1.1/"
   xmlns:cc="http://creativecommons.org/ns#"
   xmlns:rdf="http://www.w3.org/1999/02/22-rdf-syntax-ns#"
   xmlns:svg="http://www.w3.org/2000/svg"
   xmlns="http://www.w3.org/2000/svg"
   xmlns:sodipodi="http://sodipodi.sourceforge.net/DTD/sodipodi-0.dtd"
   xmlns:inkscape="http://www.inkscape.org/namespaces/inkscape"
   id="svg7384"
   height="16"
   width="16"
   version="1.1"
   inkscape:version="0.91 r13725"
   sodipodi:docname="view-refresh-symbolic.svg">
  <defs
     id="defs9" />
  <sodipodi:namedview
     pagecolor="#ffffff"
     bordercolor="#666666"
     borderopacity="1"
     objecttolerance="10"
     gridtolerance="10"
     guidetolerance="10"
     inkscape:pageopacity="0"
     inkscape:pageshadow="2"
     inkscape:window-width="1366"
     inkscape:window-height="688"
     id="namedview7"
     showgrid="false"
     inkscape:zoom="20.85965"
     inkscape:cx="6.8860019"
     inkscape:cy="9.376886"
     inkscape:window-x="0"
     inkscape:window-y="0"
     inkscape:window-maximized="1"
     inkscape:current-layer="svg7384" />
  <metadata
     id="metadata90">
    <rdf:RDF>
      <cc:Work
         rdf:about="">
        <dc:format>image/svg+xml</dc:format>
        <dc:type
           rdf:resource="http://purl.org/dc/dcmitype/StillImage" />
        <dc:title>Gnome Symbolic Icon Theme</dc:title>
      </cc:Work>
    </rdf:RDF>
  </metadata>
  <title
     id="title9167">Gnome Symbolic Icon Theme</title>
  <path
     inkscape:connector-curvature="0"
     d="M 9.4614623,3.7588434 C 8.7895536,3.5894576 8.1046992,3.5316647 7.4116738,3.5983264 5.9737795,3.7367511 4.6970801,4.3795178 3.7485466,5.3324776 3.6128665,5.4684266 3.497334,5.6094134 3.375094,5.7577371 2.3970164,6.9442126 1.8642383,8.5206195 2.0225108,10.164016 2.338921,13.45066 5.3014143,15.869582 8.5881326,15.553105 11.874851,15.236627 14.293699,12.274201 13.977222,8.9874829 L 11.974096,9.1989257 C 12.186944,11.409623 10.578726,13.333052 8.3679214,13.545931 6.1572244,13.758779 4.2337946,12.150561 4.0209162,9.9397563 3.8080682,7.7290593 5.4162861,5.8056295 7.6270908,5.5927511 8.1614602,5.541307 8.6895802,5.6156373 9.1892278,5.7751173 8.6873584,5.6178227 9.3443093,-5.8016205 8.7362675,8.895411 L 9.3596272,8.326784 9.4750642,8.2214827 12.430251,5.5257694 13.169048,4.851841 12.49512,4.1130443 9.7994062,1.1578574 C 9.7617375,1.1078084 9.7194311,1.0614297 9.6730446,1.019333 L 9.1254778,0.41906071 C 8.7362675,8.895411 8.8030975,3.593177 9.4614623,3.7588434 Z"
     style="color:#bebebe;text-indent:0;text-transform:none;block-progression:tb;fill:#bebebe"
     id="path4597"
     sodipodi:nodetypes="cccccsccsscccccccccccc" />
</svg>
