/* XPM */
static char * menu_selected_xpm[] = {
"22 22 2 1",
" 	c None",
".	c #4C4C4C",
"                      ",
"                      ",
"                      ",
"                      ",
"                      ",
"                      ",
"                      ",
"                      ",
"                   .. ",
"                  ... ",
"                 ...  ",
"                ...   ",
"               ...    ",
"              ...     ",
"             ...      ",
"   ..       ...       ",
"   ...     ...        ",
"    ...   ...         ",
"     ... ...          ",
"      .....           ",
"       ...            ",
"        .             "};
