<?xml version="1.0" encoding="UTF-8" standalone="no"?>
<!-- Created with Inkscape (http://www.inkscape.org/) -->

<svg
   xmlns:dc="http://purl.org/dc/elements/1.1/"
   xmlns:cc="http://creativecommons.org/ns#"
   xmlns:rdf="http://www.w3.org/1999/02/22-rdf-syntax-ns#"
   xmlns:svg="http://www.w3.org/2000/svg"
   xmlns="http://www.w3.org/2000/svg"
   xmlns:sodipodi="http://sodipodi.sourceforge.net/DTD/sodipodi-0.dtd"
   xmlns:inkscape="http://www.inkscape.org/namespaces/inkscape"
   id="svg7384"
   height="16.024"
   width="16"
   version="1.1"
   inkscape:version="0.91 r"
   sodipodi:docname="gnome-shutdown.svg">
  <defs
     id="defs10" />
  <sodipodi:namedview
     pagecolor="#ffffff"
     bordercolor="#666666"
     borderopacity="1"
     objecttolerance="10"
     gridtolerance="10"
     guidetolerance="10"
     inkscape:pageopacity="0"
     inkscape:pageshadow="2"
     inkscape:window-width="640"
     inkscape:window-height="480"
     id="namedview8"
     showgrid="false"
     inkscape:zoom="30.25"
     inkscape:cx="8"
     inkscape:cy="8.0120001"
     inkscape:window-x="62"
     inkscape:window-y="0"
     inkscape:window-maximized="0"
     inkscape:current-layer="svg7384" />
  <metadata
     id="metadata90">
    <rdf:RDF>
      <cc:Work
         rdf:about="">
        <dc:format>image/svg+xml</dc:format>
        <dc:type
           rdf:resource="http://purl.org/dc/dcmitype/StillImage" />
        <dc:title>Gnome Symbolic Icon Theme</dc:title>
      </cc:Work>
    </rdf:RDF>
  </metadata>
  <title
     id="title9167">Gnome Symbolic Icon Theme</title>
  <g
     id="layer12"
     transform="matrix(0,-1,1,0,-685.48818,115.50822)">
    <path
       id="path3869-2"
       style="color:#000000;text-indent:0;text-transform:none;block-progression:tb;fill:#bebebe"
       d="m 104.84,687.81 a 0.99998,1.0002 0 0 0 -0.34813,0.13393 c -1.0534,0.60965 -1.9314,1.466 -2.544,2.5179 -1.9396,3.3304 -0.81232,7.6493 2.5173,9.5893 3.32962,1.94 7.6475,0.8125 9.587,-2.5179 1.9396,-3.3304 0.81232,-7.6493 -2.5173,-9.5893 a 1.0081091,1.0084091 0 1 0 -1.0176,1.7411 c 2.3957,1.3959 3.1898,4.4341 1.7942,6.8304 -1.3956,2.3963 -4.433,3.1905 -6.8288,1.7946 -2.3854,-1.3899 -3.1918,-4.4121 -1.821,-6.8036 l 0.0268,-0.0268 c 0.43759,-0.75138 1.0685,-1.3859 1.821,-1.8214 a 0.99998,1.0002 0 0 0 -0.66949,-1.8482 z"
       inkscape:connector-curvature="0" />
    <path
       id="path4710"
       style="color:#000000;text-indent:0;text-transform:none;block-progression:tb;fill:#bebebe"
       d="m 107.78,686 a 1.0001,1.0001 0 0 0 -0.78,1 l 0,5 a 1.0001,1.0001 0 1 0 2,0 l 0,-5 a 1.0001,1.0001 0 0 0 -1.2188,-1 z"
       inkscape:connector-curvature="0" />
  </g>
</svg>
