<?xml version="1.0" encoding="UTF-8" standalone="no"?>
<svg
   xmlns:dc="http://purl.org/dc/elements/1.1/"
   xmlns:cc="http://creativecommons.org/ns#"
   xmlns:rdf="http://www.w3.org/1999/02/22-rdf-syntax-ns#"
   xmlns:svg="http://www.w3.org/2000/svg"
   xmlns="http://www.w3.org/2000/svg"
   xmlns:xlink="http://www.w3.org/1999/xlink"
   xmlns:sodipodi="http://sodipodi.sourceforge.net/DTD/sodipodi-0.dtd"
   xmlns:inkscape="http://www.inkscape.org/namespaces/inkscape"
   width="16"
   viewBox="0 0 16 16"
   height="16"
   id="svg2"
   version="1.1"
   inkscape:version="0.91 r13725"
   sodipodi:docname="checkbox-checked.svg">
  <metadata
     id="metadata20">
    <rdf:RDF>
      <cc:Work
         rdf:about="">
        <dc:format>image/svg+xml</dc:format>
        <dc:type
           rdf:resource="http://purl.org/dc/dcmitype/StillImage" />
      </cc:Work>
    </rdf:RDF>
  </metadata>
  <sodipodi:namedview
     pagecolor="#ffffff"
     bordercolor="#666666"
     borderopacity="1"
     objecttolerance="10"
     gridtolerance="10"
     guidetolerance="10"
     inkscape:pageopacity="0"
     inkscape:pageshadow="2"
     inkscape:window-width="1360"
     inkscape:window-height="714"
     id="namedview18"
     showgrid="false"
     inkscape:zoom="19.462742"
     inkscape:cx="-0.52843801"
     inkscape:cy="8.0006788"
     inkscape:window-x="0"
     inkscape:window-y="28"
     inkscape:window-maximized="1"
     inkscape:current-layer="svg2" />
  <defs
     id="defs4">
    <linearGradient
       id="linearGradient3809">
      <stop
         offset="0"
         style="stop-color:#e5e5e5"
         id="stop7" />
      <stop
         offset="1"
         style="stop-color:#f9f9f9"
         id="stop9" />
    </linearGradient>
    <linearGradient
       gradientTransform="translate(0 -16)"
       id="linearGradient3832"
       xlink:href="#linearGradient3809"
       x1="1"
       x2="15"
       gradientUnits="userSpaceOnUse" />
    <linearGradient
       inkscape:collect="always"
       xlink:href="#linearGradient3053"
       id="linearGradient3853"
       gradientUnits="userSpaceOnUse"
       gradientTransform="translate(-411.9716,-498.46647)"
       x1="402.25"
       y1="507.86218"
       x2="396.61667"
       y2="502.85385" />
    <linearGradient
       id="linearGradient3053"
       inkscape:collect="always">
      <stop
         id="stop3055"
         offset="0"
         style="stop-color:#3287fd;stop-opacity:1" />
      <stop
         id="stop3057"
         offset="1"
         style="stop-color:#3486ff;stop-opacity:1" />
    </linearGradient>
    <linearGradient
       inkscape:collect="always"
       xlink:href="#linearGradient3046"
       id="linearGradient3856"
       gradientUnits="userSpaceOnUse"
       gradientTransform="translate(-411.9716,-498.46647)"
       x1="404"
       y1="514.23718"
       x2="398.375"
       y2="503.70303" />
    <linearGradient
       id="linearGradient3046"
       inkscape:collect="always">
      <stop
         id="stop3049"
         offset="0"
         style="stop-color:#277cfc;stop-opacity:1" />
      <stop
         id="stop3051"
         offset="1"
         style="stop-color:#277dff;stop-opacity:1" />
    </linearGradient>
  </defs>
  <g
     id="g4168"
     transform="matrix(1.0666667,0,0,1.0666667,20.769698,-0.95544239)">
    <rect
       ry="3.0625"
       rx="3.0625"
       y="0.89572698"
       x="-19.471592"
       height="15"
       width="15"
       id="rect3024"
       style="fill:url(#linearGradient3856);fill-opacity:1;stroke:none" />
    <rect
       style="fill:url(#linearGradient3853);fill-opacity:1;stroke:none"
       id="rect3026"
       width="13"
       height="13"
       x="-18.471592"
       y="1.895727"
       rx="2.6541667"
       ry="2.6541667" />
    <path
       inkscape:connector-curvature="0"
       id="rect3067"
       d="m -8.6017717,4.9626746 c -0.25059,0.0469 -0.50014,0.20958 -0.65625,0.4375 l -4.0312503,5.9062494 -1.53125,-1.5312494 c -0.39069,-0.39069 -1.01556,-0.39069 -1.40625,0 -0.39069,0.3906904 -0.39069,1.0155604 0,1.4062494 l 2.21875,2.21875 0.15625,0.15625 c 0.0421,0.0416 0.0743,0.0903 0.125,0.125 0.0391,0.0268 0.0838,0.042 0.125,0.0625 0.0511,0.0252 0.10246,0.0466 0.15625,0.0625 0.0304,0.009 0.063,0.025 0.0937,0.0312 0.0197,0.004 0.0426,-0.003 0.0625,0 0.0844,0.0108 0.16557,0.0108 0.25,0 0.0844,-0.0109 0.16999,-0.0299 0.25,-0.0625 0.12559,-0.0497 0.24493,-0.11869 0.34375,-0.21875 0.0416,-0.0421 0.0903,-0.0744 0.125,-0.125 l 4.7187503,-6.9062494 c 0.31222,-0.45584 0.20584,-1.09402 -0.25,-1.40625 -0.22792,-0.15611 -0.49941,-0.20311 -0.75,-0.15625 z"
       style="opacity:0.2;fill:#000000;fill-opacity:1;stroke:none" />
    <path
       inkscape:connector-curvature="0"
       id="rect3828"
       d="m -8.6017717,3.9628446 c -0.25059,0.0469 -0.50014,0.20958 -0.65625,0.4375 l -4.0312503,5.9062504 -1.53125,-1.5312504 c -0.39069,-0.39069 -1.01556,-0.39069 -1.40625,0 -0.39069,0.39069 -0.39069,1.01556 0,1.4062504 l 2.21875,2.218749 0.15625,0.15625 c 0.0421,0.0416 0.0743,0.0903 0.125,0.125 0.0391,0.0268 0.0838,0.042 0.125,0.0625 0.0511,0.0252 0.10246,0.0466 0.15625,0.0625 0.0304,0.009 0.063,0.025 0.0937,0.0312 0.0197,0.004 0.0426,-0.003 0.0625,0 0.0844,0.0109 0.16557,0.0109 0.25,0 0.0844,-0.0109 0.16999,-0.0299 0.25,-0.0625 0.12559,-0.0497 0.24493,-0.1187 0.34375,-0.21875 0.0416,-0.0421 0.0903,-0.0743 0.125,-0.125 l 4.7187503,-6.9062494 c 0.31222,-0.45584 0.20584,-1.09402 -0.25,-1.40625 -0.22792,-0.15611 -0.49941,-0.20311 -0.75,-0.15625 z"
       style="fill:#e9f1fc;fill-opacity:1;stroke:none" />
  </g>
</svg>
