<?xml version="1.0" encoding="UTF-8" standalone="no"?>
<svg
   xmlns:dc="http://purl.org/dc/elements/1.1/"
   xmlns:cc="http://creativecommons.org/ns#"
   xmlns:rdf="http://www.w3.org/1999/02/22-rdf-syntax-ns#"
   xmlns:svg="http://www.w3.org/2000/svg"
   xmlns="http://www.w3.org/2000/svg"
   xmlns:xlink="http://www.w3.org/1999/xlink"
   xmlns:sodipodi="http://sodipodi.sourceforge.net/DTD/sodipodi-0.dtd"
   xmlns:inkscape="http://www.inkscape.org/namespaces/inkscape"
   viewBox="0 0 16 16"
   id="svg2"
   version="1.1"
   inkscape:version="0.91 r13725"
   width="100%"
   height="100%"
   sodipodi:docname="checkbox-checked-insensitive.svg">
  <metadata
     id="metadata18">
    <rdf:RDF>
      <cc:Work
         rdf:about="">
        <dc:format>image/svg+xml</dc:format>
        <dc:type
           rdf:resource="http://purl.org/dc/dcmitype/StillImage" />
      </cc:Work>
    </rdf:RDF>
  </metadata>
  <defs
     id="defs16">
    <linearGradient
       id="linearGradient3809">
      <stop
         id="stop7"
         style="stop-color:#e5e5e5"
         offset="0" />
      <stop
         id="stop9"
         style="stop-color:#f9f9f9"
         offset="1" />
    </linearGradient>
    <linearGradient
       gradientUnits="userSpaceOnUse"
       x2="15"
       x1="1"
       xlink:href="#linearGradient3809"
       id="linearGradient3832"
       gradientTransform="translate(0 -16)" />
    <linearGradient
       y2="502.85385"
       x2="396.61667"
       y1="507.86218"
       x1="402.25"
       gradientTransform="matrix(1.0666667,0,0,1.0666667,-418.66668,-532.65303)"
       gradientUnits="userSpaceOnUse"
       id="linearGradient3853"
       xlink:href="#linearGradient3053"
       inkscape:collect="always" />
    <linearGradient
       inkscape:collect="always"
       id="linearGradient3053">
      <stop
         style="stop-color:#75afff;stop-opacity:1"
         offset="0"
         id="stop3055" />
      <stop
         style="stop-color:#8cbaff;stop-opacity:1"
         offset="1"
         id="stop3057" />
    </linearGradient>
    <linearGradient
       y2="503.70303"
       x2="398.375"
       y1="514.23718"
       x1="404"
       gradientTransform="matrix(1.0666667,0,0,1.0666667,-418.66668,-532.65303)"
       gradientUnits="userSpaceOnUse"
       id="linearGradient3856"
       xlink:href="#linearGradient3046"
       inkscape:collect="always" />
    <linearGradient
       inkscape:collect="always"
       id="linearGradient3046">
      <stop
         style="stop-color:#87b7ff;stop-opacity:1"
         offset="0"
         id="stop3049" />
      <stop
         style="stop-color:#98c1ff;stop-opacity:1"
         offset="1"
         id="stop3051" />
    </linearGradient>
  </defs>
  <sodipodi:namedview
     pagecolor="#ffffff"
     bordercolor="#666666"
     borderopacity="1"
     objecttolerance="10"
     gridtolerance="10"
     guidetolerance="10"
     inkscape:pageopacity="0"
     inkscape:pageshadow="2"
     inkscape:window-width="1360"
     inkscape:window-height="714"
     id="namedview14"
     showgrid="false"
     inkscape:zoom="4.21875"
     inkscape:cx="29.10861"
     inkscape:cy="-4.3948654"
     inkscape:window-x="0"
     inkscape:window-y="28"
     inkscape:window-maximized="1"
     inkscape:current-layer="svg2" />
  <rect
     ry="3.2666667"
     rx="3.2666667"
     y="-2.79445e-07"
     x="0"
     height="16"
     width="16"
     id="rect3024"
     style="fill:url(#linearGradient3856);fill-opacity:1;stroke:none" />
  <rect
     style="fill:url(#linearGradient3853);fill-opacity:1;stroke:none"
     id="rect3026"
     width="13.866667"
     height="13.866667"
     x="1.0666676"
     y="1.0666665"
     rx="2.8311112"
     ry="2.8311112" />
  <path
     inkscape:connector-curvature="0"
     id="rect3067"
     d="m 11.594476,4.3380773 c -0.267296,0.050027 -0.533483,0.223552 -0.7,0.4666667 l -4.3000007,6.3 -1.6333337,-1.6333332 c -0.416736,-0.416736 -1.083264,-0.416736 -1.5,0 -0.416736,0.4167365 -0.416736,1.0832642 0,1.4999992 l 2.366667,2.366667 0.1666667,0.166667 c 0.044907,0.04437 0.079253,0.09632 0.1333333,0.133333 0.041707,0.02859 0.089387,0.0448 0.1333333,0.06667 0.054507,0.02688 0.1092907,0.04971 0.1666667,0.06667 0.032427,0.0096 0.0672,0.02667 0.099947,0.03328 0.021013,0.0043 0.04544,-0.0032 0.066667,0 0.090027,0.01152 0.176608,0.01152 0.2666666,0 0.090027,-0.01163 0.1813227,-0.03189 0.2666667,-0.06667 0.1339627,-0.05301 0.2612587,-0.126603 0.3666667,-0.233334 0.044373,-0.04491 0.09632,-0.07936 0.1333333,-0.133333 L 12.66109,6.0046937 c 0.333034,-0.4862293 0.219562,-1.1669547 -0.266667,-1.5 C 12.151308,4.3381733 11.861718,4.28804 11.594422,4.338024 Z"
     style="opacity:0.2;fill:#000000;fill-opacity:1;stroke:none" />
  <path
     inkscape:connector-curvature="0"
     id="rect3828"
     d="m 11.594476,3.271592 c -0.267296,0.050027 -0.533483,0.223552 -0.7,0.4666666 L 6.5944753,10.038259 4.9611416,8.4049254 c -0.416736,-0.416736 -1.083264,-0.416736 -1.5,0 -0.416736,0.4167361 -0.416736,1.0832641 0,1.5000005 l 2.366667,2.3666661 0.1666667,0.166666 c 0.044907,0.04437 0.079253,0.09632 0.1333333,0.133334 0.041707,0.02859 0.089387,0.0448 0.1333333,0.06667 0.054507,0.02688 0.1092907,0.04971 0.1666667,0.06667 0.032427,0.0096 0.0672,0.02667 0.099947,0.03328 0.021013,0.0043 0.04544,-0.0032 0.066667,0 0.090027,0.01163 0.176608,0.01163 0.2666666,0 0.090027,-0.01163 0.1813227,-0.03189 0.2666667,-0.06667 0.1339627,-0.05301 0.2612587,-0.126613 0.3666667,-0.233333 0.044373,-0.04491 0.09632,-0.07925 0.1333333,-0.133333 L 12.66109,4.9382093 c 0.333034,-0.4862293 0.219562,-1.1669547 -0.266667,-1.5 C 12.151308,3.271688 11.861718,3.2215546 11.594422,3.2715386 Z"
     style="fill:#e9f1fc;fill-opacity:1;stroke:none" />
</svg>
