<?xml version="1.0" encoding="UTF-8" standalone="no"?>
<svg
   xmlns:dc="http://purl.org/dc/elements/1.1/"
   xmlns:cc="http://creativecommons.org/ns#"
   xmlns:rdf="http://www.w3.org/1999/02/22-rdf-syntax-ns#"
   xmlns:svg="http://www.w3.org/2000/svg"
   xmlns="http://www.w3.org/2000/svg"
   xmlns:xlink="http://www.w3.org/1999/xlink"
   xmlns:sodipodi="http://sodipodi.sourceforge.net/DTD/sodipodi-0.dtd"
   xmlns:inkscape="http://www.inkscape.org/namespaces/inkscape"
   width="16"
   viewBox="0 0 16 16"
   height="16"
   id="svg2"
   version="1.1"
   inkscape:version="0.91 r13725"
   sodipodi:docname="radio-mixed-insensitive.svg">
  <metadata
     id="metadata20">
    <rdf:RDF>
      <cc:Work
         rdf:about="">
        <dc:format>image/svg+xml</dc:format>
        <dc:type
           rdf:resource="http://purl.org/dc/dcmitype/StillImage" />
        <dc:title></dc:title>
      </cc:Work>
    </rdf:RDF>
  </metadata>
  <sodipodi:namedview
     pagecolor="#ffffff"
     bordercolor="#666666"
     borderopacity="1"
     objecttolerance="10"
     gridtolerance="10"
     guidetolerance="10"
     inkscape:pageopacity="0"
     inkscape:pageshadow="2"
     inkscape:window-width="1366"
     inkscape:window-height="636"
     id="namedview18"
     showgrid="false"
     inkscape:zoom="10.429825"
     inkscape:cx="2.3365705"
     inkscape:cy="8.1536782"
     inkscape:window-x="0"
     inkscape:window-y="28"
     inkscape:window-maximized="1"
     inkscape:current-layer="svg2" />
  <defs
     id="defs4">
    <linearGradient
       gradientTransform="matrix(0 1 -1 0 16 0)"
       xlink:href="#linearGradient3793"
       id="linearGradient3799"
       x1="1"
       x2="15"
       gradientUnits="userSpaceOnUse" />
    <linearGradient
       id="linearGradient3793">
      <stop
         offset="0"
         style="stop-color:#e5e5e5"
         id="stop8" />
      <stop
         offset="1"
         style="stop-color:#f9f9f9"
         id="stop10" />
    </linearGradient>
    <linearGradient
       gradientUnits="userSpaceOnUse"
       x2="15"
       x1="1"
       xlink:href="#linearGradient3793"
       id="linearGradient3832"
       gradientTransform="translate(0 -16)" />
    <linearGradient
       gradientUnits="userSpaceOnUse"
       x2="15"
       x1="1"
       id="linearGradient3799-5"
       xlink:href="#linearGradient3793"
       gradientTransform="matrix(0 1 -1 0 16 0)" />
    <linearGradient
       gradientUnits="userSpaceOnUse"
       x2="15"
       x1="1"
       xlink:href="#linearGradient3793"
       id="linearGradient3832-4"
       gradientTransform="translate(0 -16)" />
    <linearGradient
       inkscape:collect="always"
       id="linearGradient3053">
      <stop
         style="stop-color:#75afff;stop-opacity:1"
         offset="0"
         id="stop3055" />
      <stop
         style="stop-color:#8cbaff;stop-opacity:1"
         offset="1"
         id="stop3057" />
    </linearGradient>
    <linearGradient
       inkscape:collect="always"
       id="linearGradient3046">
      <stop
         style="stop-color:#87b7ff;stop-opacity:1"
         offset="0"
         id="stop3049" />
      <stop
         style="stop-color:#98c1ff;stop-opacity:1"
         offset="1"
         id="stop3051" />
    </linearGradient>
    <linearGradient
       gradientUnits="userSpaceOnUse"
       y2="5.3463721"
       x2="4.9887447"
       y1="12.382204"
       x1="10.12627"
       id="linearGradient4199"
       xlink:href="#linearGradient3053"
       inkscape:collect="always" />
    <linearGradient
       gradientUnits="userSpaceOnUse"
       y2="2.4406779"
       x2="2.9830508"
       y1="13.694915"
       x1="11.932203"
       id="linearGradient4201"
       xlink:href="#linearGradient3046"
       inkscape:collect="always" />
  </defs>
  <path
     inkscape:connector-curvature="0"
     style="fill:#ffffff"
     d="M 8,15 C 4.134007,15 1,11.865993 1,8 1,4.1340068 4.134007,1 8,1 c 3.865993,0 7,3.1340068 7,7 0,3.865993 -3.134007,7 -7,7 z"
     id="path12-2" />
  <path
     style="fill:url(#linearGradient4199);fill-opacity:1"
     d="M 8,0 C 3.5817221,0 1.5e-8,3.5817221 1.5e-8,8 1.5e-8,12.418278 3.5817221,16 8,16 12.418278,16 16,12.418278 16,8 16,3.5817221 12.418278,0 8,0 Z"
     id="path4150-5"
     inkscape:connector-curvature="0" />
  <path
     inkscape:connector-curvature="0"
     style="opacity:1;fill:url(#linearGradient4201);fill-opacity:0.99215686"
     d="M 8,0 C 3.581722,0 0,3.581722 0,8 c 0,4.418278 3.581722,8 8,8 4.418278,0 8,-3.581722 8,-8 C 16,3.581722 12.418278,0 8,0 Z m 0,1 c 3.865993,0 7,3.1340068 7,7 0,3.865993 -3.134007,7 -7,7 C 4.1340068,15 1,11.865993 1,8 1,4.1340068 4.1340068,1 8,1 Z"
     id="path14-9" />
  <path
     inkscape:connector-curvature="0"
     style="opacity:0.2;fill:#000000;fill-opacity:1"
     d="M 8,0 C 3.5817221,0 0,3.5817221 0,8 0,8.1687226 0.0150972,8.3338701 0.02539063,8.5 0.28464744,4.315747 3.7504447,1 8,1 12.249555,1 15.715353,4.315747 15.974609,8.5 15.984903,8.3338701 16,8.1687226 16,8 16,3.5817221 12.418278,0 8,0 Z"
     id="path4155-6" />
  <rect
     ry="1.05"
     rx="1.2105261"
     y="7.7000003"
     x="2.9999998"
     height="2.0999999"
     width="10"
     id="rect4157"
     style="opacity:0.2;fill:#000000;fill-opacity:1;stroke:none" />
  <rect
     style="opacity:1;fill:#e9f1fc;fill-opacity:1;stroke:none"
     id="rect4153"
     width="10"
     height="2.0999999"
     x="2.9999998"
     y="6.9499998"
     rx="1.2105261"
     ry="1.05" />
</svg>
