<?xml version="1.0" encoding="UTF-8" standalone="no"?>
<svg
   xmlns:dc="http://purl.org/dc/elements/1.1/"
   xmlns:cc="http://creativecommons.org/ns#"
   xmlns:rdf="http://www.w3.org/1999/02/22-rdf-syntax-ns#"
   xmlns:svg="http://www.w3.org/2000/svg"
   xmlns="http://www.w3.org/2000/svg"
   xmlns:xlink="http://www.w3.org/1999/xlink"
   xmlns:sodipodi="http://sodipodi.sourceforge.net/DTD/sodipodi-0.dtd"
   xmlns:inkscape="http://www.inkscape.org/namespaces/inkscape"
   width="16"
   viewBox="0 0 16 16"
   height="16"
   id="svg2"
   version="1.1"
   inkscape:version="0.91 r13725"
   sodipodi:docname="radio-selected.svg">
  <metadata
     id="metadata20">
    <rdf:RDF>
      <cc:Work
         rdf:about="">
        <dc:format>image/svg+xml</dc:format>
        <dc:type
           rdf:resource="http://purl.org/dc/dcmitype/StillImage" />
        <dc:title></dc:title>
      </cc:Work>
    </rdf:RDF>
  </metadata>
  <sodipodi:namedview
     pagecolor="#ffffff"
     bordercolor="#666666"
     borderopacity="1"
     objecttolerance="10"
     gridtolerance="10"
     guidetolerance="10"
     inkscape:pageopacity="0"
     inkscape:pageshadow="2"
     inkscape:window-width="952"
     inkscape:window-height="641"
     id="namedview18"
     showgrid="false"
     inkscape:zoom="2.6074563"
     inkscape:cx="40.144129"
     inkscape:cy="5.2814283"
     inkscape:window-x="302"
     inkscape:window-y="47"
     inkscape:window-maximized="0"
     inkscape:current-layer="svg2" />
  <defs
     id="defs4">
    <linearGradient
       gradientTransform="matrix(0 1 -1 0 16 0)"
       xlink:href="#linearGradient3793"
       id="linearGradient3799"
       x1="1"
       x2="15"
       gradientUnits="userSpaceOnUse" />
    <linearGradient
       id="linearGradient3793">
      <stop
         offset="0"
         style="stop-color:#e5e5e5"
         id="stop8" />
      <stop
         offset="1"
         style="stop-color:#f9f9f9"
         id="stop10" />
    </linearGradient>
  </defs>
  <path
     style="fill:#ffffff"
     d="M 8,15 C 4.134007,15 1,11.865993 1,8 1,4.1340068 4.134007,1 8,1 c 3.865993,0 7,3.1340068 7,7 0,3.865993 -3.134007,7 -7,7 z"
     id="path12" />
  <path
     style="fill:#3b99fc;fill-opacity:1"
     d="M 8,0 C 3.5817221,0 1.5e-8,3.5817221 1.5e-8,8 1.5e-8,12.418278 3.5817221,16 8,16 12.418278,16 16,12.418278 16,8 16,3.5817221 12.418278,0 8,0 Z"
     id="path4150"
     inkscape:connector-curvature="0" />
  <path
     style="fill:#000000;fill-opacity:0.99215686;opacity:0.05"
     d="M 8,0 C 3.581722,0 0,3.581722 0,8 c 0,4.418278 3.581722,8 8,8 4.418278,0 8,-3.581722 8,-8 C 16,3.581722 12.418278,0 8,0 z m 0,1 c 3.865993,0 7,3.1340068 7,7 0,3.865993 -3.134007,7 -7,7 C 4.1340068,15 1,11.865993 1,8 1,4.1340068 4.1340068,1 8,1 z"
     id="path14" />
  <path
     inkscape:connector-curvature="0"
     id="path4153"
     d="M 11,8.9999999 C 11,10.656855 9.656855,12 8,12 6.343146,12 5,10.656855 5,8.9999999 c 0,-1.6568542 1.343146,-3 3,-3 1.656855,0 3,1.3431458 3,3 z"
     style="fill:#000000;stroke:none;opacity:0.1" />
  <path
     style="fill:#ffffff;stroke:none"
     d="M 11,7.9999999 C 11,9.6568549 9.656855,11 8,11 6.343146,11 5,9.6568549 5,7.9999999 c 0,-1.6568542 1.343146,-3 3,-3 1.656855,0 3,1.3431458 3,3 z"
     id="path16"
     inkscape:connector-curvature="0" />
  <path
     style="fill:#000000;fill-opacity:1;opacity:0.1"
     d="M 8 0 C 3.5817221 0 5.9211895e-16 3.5817221 0 8 C 0 8.1687226 0.015097196 8.3338701 0.025390625 8.5 C 0.28464744 4.315747 3.7504447 1 8 1 C 12.249555 1 15.715353 4.315747 15.974609 8.5 C 15.984903 8.3338701 16 8.1687226 16 8 C 16 3.5817221 12.418278 0 8 0 z "
     id="path4155" />
</svg>
