/* XPM */
static char * bullet_hilight_xpm[] = {
"22 22 2 1",
" 	c None",
".	c #262626",
"                      ",
"                      ",
"                      ",
"                      ",
"                      ",
"                      ",
"                      ",
"                ..    ",
"                ...   ",
"                 ...  ",
"                  ... ",
"                   ...",
"                  ... ",
"                 ...  ",
"                ...   ",
"                ..    ",
"                      ",
"                      ",
"                      ",
"                      ",
"                      ",
"                      "};
