/* XPM */
static char * close_xpm[] = {
"19 19 3 1",
" 	c None",
".	c #1F1F1F",
"+	c #6C6C6C",
"...................",
"...................",
"...................",
"...................",
"...................",
".....+.......+.....",
"......+.....+......",
".......+...+.......",
"........+.+........",
".........+.........",
"........+.+........",
".......+...+.......",
"......+.....+......",
".....+.......+.....",
"...................",
"...................",
"...................",
"...................",
"..................."};
