/* XPM */
static char * maximize_pressed_xpm[] = {
"19 19 3 1",
" 	c None",
".	c #969798",
"+	c #4C4C4C",
"...................",
"...................",
"...................",
"...................",
"...................",
".....+++++++++.....",
".....+.......+.....",
".....+.......+.....",
".....+.......+.....",
".....+.......+.....",
".....+.......+.....",
".....+.......+.....",
".....+.......+.....",
".....+++++++++.....",
"...................",
"...................",
"...................",
"...................",
"..................."};
