<?xml version="1.0" encoding="UTF-8" standalone="no"?>
<!-- Created with Inkscape (http://www.inkscape.org/) -->
<svg id="svg7384" xmlns:rdf="http://www.w3.org/1999/02/22-rdf-syntax-ns#" xmlns="http://www.w3.org/2000/svg" height="16" width="16" version="1.1" xmlns:cc="http://creativecommons.org/ns#" xmlns:dc="http://purl.org/dc/elements/1.1/">
 <metadata id="metadata90">
  <rdf:RDF>
   <cc:Work rdf:about="">
    <dc:format>image/svg+xml</dc:format>
    <dc:type rdf:resource="http://purl.org/dc/dcmitype/StillImage"/>
    <dc:title>Gnome Symbolic Icon Theme</dc:title>
   </cc:Work>
  </rdf:RDF>
 </metadata>
 <title id="title9167">Gnome Symbolic Icon Theme</title>
 <g id="g71291" transform="translate(-601 -539)">
  <path id="path6411" style="fill:#babdb6" d="m609 540c-3.866 0-7 3.134-7 7s3.134 7 7 7 7-3.134 7-7-3.134-7-7-7zm-1.375 5.75c0.18146-0.0534 0.34945 0.0626 0.375 0.25 0.0256 0.18743-0.0998 0.3841-0.28125 0.4375l-2.7812 0.8125c-0.18146 0.0534-0.34945-0.0313-0.375-0.21875-0.0256-0.18743 0.0998-0.3841 0.28125-0.4375l2.7812-0.84375zm2.625 0c0.0415-0.006 0.0796-0.0134 0.125 0l2.7812 0.84375c0.18146 0.0534 0.3068 0.25007 0.28125 0.4375-0.0256 0.18743-0.19354 0.27215-0.375 0.21875l-2.7812-0.8125c-0.18146-0.0534-0.3068-0.25007-0.28125-0.4375 0.0192-0.14057 0.12537-0.2334 0.25-0.25zm-4.8438 3.25h7.1875c0.2216 0 0.40625 0.223 0.40625 0.5s-0.18465 0.5-0.40625 0.5h-7.1875c-0.2216 0-0.40625-0.223-0.40625-0.5s0.18465-0.5 0.40625-0.5z"/>
 </g>
</svg>
