<?xml version="1.0" encoding="UTF-8" standalone="no"?>
<!-- Created with Inkscape (http://www.inkscape.org/) -->
<svg id="svg7384" xmlns:rdf="http://www.w3.org/1999/02/22-rdf-syntax-ns#" xmlns="http://www.w3.org/2000/svg" height="16" width="16" version="1.1" xmlns:cc="http://creativecommons.org/ns#" xmlns:dc="http://purl.org/dc/elements/1.1/">
 <metadata id="metadata90">
  <rdf:RDF>
   <cc:Work rdf:about="">
    <dc:format>image/svg+xml</dc:format>
    <dc:type rdf:resource="http://purl.org/dc/dcmitype/StillImage"/>
    <dc:title>Gnome Symbolic Icon Theme</dc:title>
   </cc:Work>
  </rdf:RDF>
 </metadata>
 <title id="title9167">Gnome Symbolic Icon Theme</title>
 <g id="g71291" transform="translate(-521 -539)">
  <path id="path5954" style="fill:#babdb6" d="m529 540c-3.866 0-7 3.134-7 7s3.134 7 7 7 7-3.134 7-7-3.134-7-7-7zm-2 4c0.55833 0 1.0312 0.47292 1.0312 1.0312v0.96875c0 0.55833-0.47292 1-1.0312 1-0.55833 0-1-0.44167-1-1v-0.96875c0-0.55833 0.44167-1.0312 1-1.0312zm4 0c0.55833 0 1 0.47292 1 1.0312v0.96875c0 0.55833-0.44167 1-1 1s-1-0.44167-1-1v-0.96875c0-0.55833 0.44167-1.0312 1-1.0312zm-6 4 4 1 4-1c0.0825 0.59047-0.16081 1.054-0.67132 1.1678l-1.3287 0.33217 1.3088 0.32721c0.71468 0.1915 0.69117 0.74919 0.69117 1.1728l-4-1-4 1c-0.0655-0.63125 0.0374-0.98324 0.52023-1.1301l1.48-0.37-1.5-0.34c-0.48-0.12-0.58-0.68-0.5-1.16z"/>
 </g>
</svg>
