<?xml version="1.0" encoding="UTF-8" standalone="no"?>
<!-- Created with Inkscape (http://www.inkscape.org/) -->
<svg id="svg7384" xmlns:rdf="http://www.w3.org/1999/02/22-rdf-syntax-ns#" xmlns="http://www.w3.org/2000/svg" height="16" width="16" version="1.1" xmlns:cc="http://creativecommons.org/ns#" xmlns:dc="http://purl.org/dc/elements/1.1/">
 <metadata id="metadata90">
  <rdf:RDF>
   <cc:Work rdf:about="">
    <dc:format>image/svg+xml</dc:format>
    <dc:type rdf:resource="http://purl.org/dc/dcmitype/StillImage"/>
    <dc:title>Gnome Symbolic Icon Theme</dc:title>
   </cc:Work>
  </rdf:RDF>
 </metadata>
 <title id="title9167">Gnome Symbolic Icon Theme</title>
 <g id="g71291" transform="translate(-641 -659)">
  <path id="path9123" style="fill:#babdb6" d="m648.84 659.03c-1.2273 0.73385-1.0624 1.6325-0.90625 2.0312-1.8073 0.26848-3.5488 1.3112-4.125 3.1875-0.28347-0.21168-0.58797-0.34375-0.9375-0.34375-1.0338 0-1.875 1.0827-1.875 2.375s0.84115 2.3438 1.875 2.3438c0.46667 0 0.88574-0.21164 1.2188-0.5625 2.719-1.2736 7.0925-1.4662 9.875 0.0312 0.31962 0.32225 0.71112 0.53125 1.1562 0.53125 1.0338 0 1.875-1.0514 1.875-2.3438 0-1.2923-0.84115-2.375-1.875-2.375-0.42839 0-0.81111 0.19311-1.125 0.5-0.50745-1.702-1.8398-2.9102-3.8125-3.2812-0.17036-0.63874-0.28432-1.9159 1.625-1.7812-2.1695-0.79311-2.7188 1.625-2.7188 1.625-0.26551-0.11722-0.96537-0.6383-0.25-1.9375zm-1.375 5.0312c0.37988 0 0.71875 0.64637 0.71875 1.4688 0 0.82238-0.33887 1.5-0.71875 1.5s-0.65625-0.67762-0.65625-1.5 0.27637-1.4688 0.65625-1.4688zm3 0c0.37988 0 0.71875 0.64637 0.71875 1.4688 0 0.82238-0.33887 1.5-0.71875 1.5s-0.65625-0.67762-0.65625-1.5 0.27637-1.4688 0.65625-1.4688zm-7.4688 0.90625c0.25587 0 0.47396 0.14945 0.65625 0.34375-0.0332 0.52908-0.0185 1.1183 0.125 1.75-0.19168 0.29374-0.45209 0.5-0.78125 0.5-0.57176 0-1.0312-0.56655-1.0312-1.2812 0-0.7147 0.45949-1.3125 1.0312-1.3125zm12.031 0c0.57182 0 1.0625 0.59772 1.0625 1.3125s-0.49068 1.2812-1.0625 1.2812c-0.37247 0-0.65921-0.26193-0.84375-0.625 0.055-0.48001 0.0368-0.93512 0-1.375 0.18776-0.35024 0.48432-0.59375 0.84375-0.59375z"/>
  <path id="path8939" style="color:#000000;enable-background:new;fill:#babdb6" d="m648.97 667.97c-3.88 0-7.0312 1.567-7.0312 3.5s3.1512 3.5 7.0312 3.5 7.0312-1.567 7.0312-3.5-3.1512-3.5-7.0312-3.5zm-4.9688 2.0625s0.36695 2.0312 4.9688 2.0312c4.3866 0 5.0938-2 5.0938-2s-0.0395 2.9766-5.0938 2.9375c-5.1481-0.0398-4.9688-2.9688-4.9688-2.9688z"/>
 </g>
</svg>
