<?xml version="1.0" encoding="UTF-8" standalone="no"?>
<!-- Created with Inkscape (http://www.inkscape.org/) -->
<svg id="svg7384" xmlns:rdf="http://www.w3.org/1999/02/22-rdf-syntax-ns#" xmlns="http://www.w3.org/2000/svg" height="16" width="16" version="1.1" xmlns:cc="http://creativecommons.org/ns#" xmlns:dc="http://purl.org/dc/elements/1.1/">
 <metadata id="metadata90">
  <rdf:RDF>
   <cc:Work rdf:about="">
    <dc:format>image/svg+xml</dc:format>
    <dc:type rdf:resource="http://purl.org/dc/dcmitype/StillImage"/>
    <dc:title>Gnome Symbolic Icon Theme</dc:title>
   </cc:Work>
  </rdf:RDF>
 </metadata>
 <title id="title9167">Gnome Symbolic Icon Theme</title>
 <g id="g71291" transform="translate(-662 -519)">
  <path id="path7113" style="fill:#babdb6" d="m670 520c-3.866 0-7 3.134-7 7s3.134 7 7 7 7-3.134 7-7-3.134-7-7-7zm-3.6875 3.6875c0.0418 0.003 0.0839 0.007 0.125 0.0312l1.125 0.65625 1.1562-0.65625c0.16541-0.0917 0.34038-0.0211 0.40625 0.15625 0.0659 0.17731-0.0221 0.40825-0.1875 0.5l-0.71875 0.40625 0.71875 0.40625c0.16421 0.0939 0.22441 0.29229 0.15625 0.46875-0.0683 0.17645-0.24204 0.21885-0.40625 0.125l-1.125-0.625-1.1562 0.625c-0.16541 0.0918-0.34036 0.0523-0.40625-0.125-0.0659-0.17731 0.0221-0.40825 0.1875-0.5l0.6875-0.40625-0.6875-0.375c-0.16421-0.0939-0.25566-0.32355-0.1875-0.5 0.0512-0.13233 0.1874-0.20014 0.3125-0.1875zm5.1562 0c0.0418 0.003 0.0839 0.007 0.125 0.0312l1.125 0.65625 1.1562-0.65625c0.16541-0.0917 0.34038-0.0211 0.40625 0.15625 0.0659 0.17731-0.0221 0.40825-0.1875 0.5l-0.71875 0.40625 0.71875 0.40625c0.16421 0.0939 0.25566 0.29229 0.1875 0.46875-0.0683 0.17645-0.27329 0.21885-0.4375 0.125l-1.125-0.65625-1.1562 0.65625c-0.16541 0.0918-0.34036 0.0523-0.40625-0.125-0.0659-0.17731 0.0221-0.40825 0.1875-0.5l0.71875-0.40625-0.71875-0.40625c-0.16421-0.0939-0.25566-0.2923-0.1875-0.46875 0.0512-0.13233 0.1874-0.20014 0.3125-0.1875zm-4.3438 4.3438c0.60381-0.0539 1.2678 0.0911 1.875 0.53125 0.34921 0.22009 0.41248 0.27376 1 0.34375 0.15925 0.0555 0.60706-0.041 1-0.34375 0.28067-0.20469 0.56128-0.29566 0.84375-0.375 1.3093-0.36774 2.5741 0.4362 3.1562 1.25v0.5c-0.51128-0.28582-1.0605-0.59799-1.625-0.78125l0.46875 0.9375c0.32788 0.64742 0.13224 1.399-0.4375 1.6875-0.56975 0.28853-1.2971-0.009-1.625-0.65625l-0.59375-1.1562c-0.051-0.1008-0.0675-0.20871-0.0937-0.3125-0.0265 0.0104-0.0709 0.0278-0.0937 0.0312-0.54153 0.31352-1.5593 0.19637-2 0-0.91691-0.43721-0.90913-0.66739-1.5312-0.6875-0.85242 0.0189-1.8434 0.39879-2.4688 0.9375v-0.5c0.26351-0.67866 1.1186-1.3165 2.125-1.4062z"/>
 </g>
</svg>
