<?xml version="1.0" encoding="UTF-8" standalone="no"?>
<!-- Created with Inkscape (http://www.inkscape.org/) -->
<svg id="svg7384" xmlns:rdf="http://www.w3.org/1999/02/22-rdf-syntax-ns#" xmlns="http://www.w3.org/2000/svg" height="16" width="16" version="1.1" xmlns:cc="http://creativecommons.org/ns#" xmlns:dc="http://purl.org/dc/elements/1.1/">
 <metadata id="metadata90">
  <rdf:RDF>
   <cc:Work rdf:about="">
    <dc:format>image/svg+xml</dc:format>
    <dc:type rdf:resource="http://purl.org/dc/dcmitype/StillImage"/>
    <dc:title>Gnome Symbolic Icon Theme</dc:title>
   </cc:Work>
  </rdf:RDF>
 </metadata>
 <title id="title9167">Gnome Symbolic Icon Theme</title>
 <g id="g71291" transform="translate(-461 -519)">
  <path id="path87316" style="fill:#babdb6" d="m469 520c-3.866 0-7 3.134-7 7s3.134 7 7 7 7-3.134 7-7-3.134-7-7-7zm-4 4.125s0.47388 0.83875 1.25 0.84375h1.75v1.0312c0 0.55616-0.66683 1-1.5 1-0.83315 0-1.5-0.44384-1.5-1zm8 0v1.875c0 0.55616-0.66685 1-1.5 1-0.83317 0-1.5-0.44384-1.5-1v-1.0312h1.7188c0.77612-0.005 1.2812-0.84375 1.2812-0.84375zm-3.97 3.88c3.2558 0 3 0.38381 3 0.76164v0.26609h-6.0312v-0.28818c0-0.34953-0.2246-0.73955 3.0312-0.73955z"/>
 </g>
</svg>
