<?xml version="1.0" encoding="UTF-8" standalone="no"?>
<!-- Created with Inkscape (http://www.inkscape.org/) -->
<svg id="svg7384" xmlns:rdf="http://www.w3.org/1999/02/22-rdf-syntax-ns#" xmlns="http://www.w3.org/2000/svg" height="16" width="16" version="1.1" xmlns:cc="http://creativecommons.org/ns#" xmlns:dc="http://purl.org/dc/elements/1.1/">
 <metadata id="metadata90">
  <rdf:RDF>
   <cc:Work rdf:about="">
    <dc:format>image/svg+xml</dc:format>
    <dc:type rdf:resource="http://purl.org/dc/dcmitype/StillImage"/>
    <dc:title>Gnome Symbolic Icon Theme</dc:title>
   </cc:Work>
  </rdf:RDF>
 </metadata>
 <title id="title9167">Gnome Symbolic Icon Theme</title>
 <g id="g71291" transform="translate(-662 -539)">
  <path id="path7221" style="fill:#babdb6" d="m670 540c-3.866 0-7 3.134-7 7s3.134 7 7 7 7-3.134 7-7-3.134-7-7-7zm-2.4688 5.1768c0.73437 0 1.4688 0.44603 1.4688 1.3125-1.5-0.33848-3.125 1.7329-3 0 0.0625-0.86647 0.79688-1.3125 1.5312-1.3125zm4.9375 0c0.73437 0 1.4688 0.44603 1.5312 1.3125 0.125 1.7329-1.5-0.33848-3 0 0-0.86647 0.73438-1.3125 1.4688-1.3125zm-5.9991 2.558c0.41493 0 0.75 0.33507 0.75 0.75s-0.33507 0.75-0.75 0.75-0.75-0.33507-0.75-0.75 0.33507-0.75 0.75-0.75zm7.0165 0c0.41493 0 0.75 0.33507 0.75 0.75s-0.33507 0.75-0.75 0.75-0.75-0.33507-0.75-0.75 0.33507-0.75 0.75-0.75zm-4.0902 2.2625h1.1719c0.20621 0 0.54688 0.223 0.54688 0.5s-0.34067 0.51562-0.54688 0.51562h-1.1719c-0.20621 0-0.48438-0.23862-0.48438-0.51562s0.27817-0.5 0.48438-0.5z"/>
 </g>
</svg>
