<?xml version="1.0" encoding="UTF-8" standalone="no"?>
<!-- Created with Inkscape (http://www.inkscape.org/) -->
<svg id="svg7384" xmlns:rdf="http://www.w3.org/1999/02/22-rdf-syntax-ns#" xmlns="http://www.w3.org/2000/svg" height="16" width="16" version="1.1" xmlns:cc="http://creativecommons.org/ns#" xmlns:dc="http://purl.org/dc/elements/1.1/">
 <metadata id="metadata90">
  <rdf:RDF>
   <cc:Work rdf:about="">
    <dc:format>image/svg+xml</dc:format>
    <dc:type rdf:resource="http://purl.org/dc/dcmitype/StillImage"/>
    <dc:title>Gnome Symbolic Icon Theme</dc:title>
   </cc:Work>
  </rdf:RDF>
 </metadata>
 <title id="title9167">Gnome Symbolic Icon Theme</title>
 <g id="g71291" transform="translate(-641 -519)">
  <g id="g5238" transform="translate(20 -18)">
   <path id="path5202" style="fill:#babdb6" d="m388 321c-3.866 0-7 3.134-7 7s3.134 7 7 7 7-3.134 7-7-3.134-7-7-7zm-2.4688 4c0.73437 0 1.4688 0.22506 1.4688 1.0915-2.5607-0.60365-2.4179 1.6887-3 0.22097-0.32026-0.80753 0.79688-1.3125 1.5312-1.3125zm4.9375 0c0.73437 0 1.7046 0.46125 1.5312 1.3125-0.31694 1.5562-0.52773-0.9572-3-0.22097 0-0.86 0.73-1.09 1.47-1.09zm-3.47 3c0.41039-0.01 0.74927 0.13366 1.0312 0.34375 0.28192-0.21009 0.65216-0.3567 1.0625-0.34375 0.63161 0.0199 0.90651 0.7599 0.9062 1.1874-0.00055 0.77497 0.47532 0.76512 1 0.82812-0.63413 0.15122-0.98711 1.2249-0.98438 1.7656 0.005 0.97211-0.93028 1.2559-2.0156 1.25-1.0854-0.004-1.9872-0.25121-1.9844-1.2344 0.001-0.40742-0.35236-1.5906-1.0312-1.7656 0.67889-0.0931 1.0156-0.24993 1.0156-0.85938 0-0.80891 0.52875-1.1603 1-1.1718z" transform="translate(241 217)"/>
   <path id="path5217" style="fill:#babdb6" d="m630 547.27c-0.16971 0.0801-0.32084 0.16013-0.322 0.27191-0.0182 0.26976-0.37424 0.48105-0.67205 0.47943-0.29781-0.00078-0.5939-0.20967-0.59392-0.47943 0.00078-0.11178-0.11135-0.18959-0.27191-0.27191 0.5291-0.39533 1.253-0.33834 1.8599 0z"/>
  </g>
 </g>
</svg>
