<?xml version="1.0" encoding="UTF-8" standalone="no"?>
<!-- Created with Inkscape (http://www.inkscape.org/) -->
<svg id="svg7384" xmlns:rdf="http://www.w3.org/1999/02/22-rdf-syntax-ns#" xmlns="http://www.w3.org/2000/svg" height="16" width="16" version="1.1" xmlns:cc="http://creativecommons.org/ns#" xmlns:dc="http://purl.org/dc/elements/1.1/">
 <metadata id="metadata90">
  <rdf:RDF>
   <cc:Work rdf:about="">
    <dc:format>image/svg+xml</dc:format>
    <dc:type rdf:resource="http://purl.org/dc/dcmitype/StillImage"/>
    <dc:title>Gnome Symbolic Icon Theme</dc:title>
   </cc:Work>
  </rdf:RDF>
 </metadata>
 <title id="title9167">Gnome Symbolic Icon Theme</title>
 <g id="g71291" transform="translate(-441 -519)">
  <path id="path86756" style="fill:#babdb6" d="m443.19 523.09c-0.75477 1.1172-1.1875 2.4565-1.1875 3.9062 0 3.866 3.134 7 7 7s7-3.134 7-7c0-1.4498-0.43273-2.789-1.1875-3.9062-0.19893 0.13572-0.42444 0.25079-0.625 0.34375-0.85019 0.39407-1.8545 0.5625-2.9375 0.5625h-4.5c-1.083 0-2.0873-0.16843-2.9375-0.5625-0.20056-0.093-0.42607-0.20803-0.625-0.34375zm3.81 1.91c0.55833 0 1.0312 0.47292 1.0312 1.0312v0.96875c0 0.55833-0.47292 1-1.0312 1-0.55833 0-1-0.44167-1-1v-0.96875c0-0.55833 0.44167-1.0312 1-1.0312zm4 0c0.55833 0 1 0.47292 1 1.0312v0.96875c0 0.55833-0.44167 1-1 1s-1-0.44167-1-1v-0.96875c0-0.55833 0.44167-1.0312 1-1.0312zm-7 3.0625c0.71531 1.0744 2.2352 1.9375 5 1.9375 2.4523 0 4.2108-0.75041 5-1.9375v0.5c0 0.68098-0.8379 2.4062-5 2.4062-3.8808 0-5-1.8737-5-2.4062z"/>
  <path id="rect86760" style="block-progression:tb;text-indent:0;color:#000000;text-transform:none;fill:#babdb6" d="m446.75 519c-0.95862 0-1.8266 0.18789-2.5 0.5-0.67336 0.31211-1.25 0.79502-1.25 1.5s0.57664 1.1879 1.25 1.5c0.67336 0.31211 1.5414 0.5 2.5 0.5h4.5c0.95862 0 1.8266-0.18789 2.5-0.5 0.67336-0.31211 1.25-0.79502 1.25-1.5s-0.57664-1.1879-1.25-1.5c-0.67336-0.31211-1.5414-0.5-2.5-0.5h-4.5zm0 1h4.5c0.83424 0 1.5972 0.17611 2.0938 0.40625 0.5 0.23 0.66 0.46 0.66 0.59 0 0.12602-0.15972 0.36361-0.65625 0.59375-0.49 0.23-1.26 0.41-2.09 0.41h-4.5c-0.83424 0-1.5972-0.17611-2.0938-0.40625-0.5-0.23-0.66-0.46-0.66-0.59 0-0.12602 0.15972-0.36361 0.65625-0.59375 0.49-0.23 1.26-0.41 2.09-0.41z"/>
 </g>
</svg>
