<?xml version="1.0" encoding="UTF-8" standalone="no"?>
<!-- Created with Inkscape (http://www.inkscape.org/) -->
<svg id="svg7384" xmlns:rdf="http://www.w3.org/1999/02/22-rdf-syntax-ns#" xmlns="http://www.w3.org/2000/svg" height="16" width="16" version="1.1" xmlns:cc="http://creativecommons.org/ns#" xmlns:dc="http://purl.org/dc/elements/1.1/">
 <metadata id="metadata90">
  <rdf:RDF>
   <cc:Work rdf:about="">
    <dc:format>image/svg+xml</dc:format>
    <dc:type rdf:resource="http://purl.org/dc/dcmitype/StillImage"/>
    <dc:title>Gnome Symbolic Icon Theme</dc:title>
   </cc:Work>
  </rdf:RDF>
 </metadata>
 <title id="title9167">Gnome Symbolic Icon Theme</title>
 <g id="g71291" transform="translate(-441 -539)">
  <path id="path5619-4" style="fill:#babdb6" d="m449 540c-1.6522 0-3.1777 0.57397-4.375 1.5312-1.1338-0.44386-2.0934-0.94913-2.6875-1.4688l-0.0937 0.59375c-0.0334 0.27084 0.10323 1.513 1.1562 2.75-0.63172 1.0517-1 2.2776-1 3.5938 0 3.866 3.134 7 7 7s7-3.134 7-7c0-1.2906-0.35953-2.4931-0.96875-3.5312 1.011-1.2181 1.1892-2.3894 1.1562-2.6562l-0.0937-0.59375c-0.57868 0.50616-1.4986 0.97101-2.5938 1.4062-0.006-0.005-0.0256 0.005-0.0312 0-1.2151-1.0152-2.762-1.625-4.4689-1.625zm-2 4c0.55833 0 1.0312 0.47292 1.0312 1.0312v0.96875c0 0.55833-0.47292 1-1.0312 1-0.55833 0-1-0.44167-1-1v-0.96875c0-0.55833 0.44167-1.0312 1-1.0312zm4 0c0.55833 0 1 0.47292 1 1.0312v0.96875c0 0.55833-0.44167 1-1 1s-1-0.44167-1-1v-0.96875c0-0.55833 0.44167-1.0312 1-1.0312zm2 4.9781c-0.0291 0.34377-0.92509 3.0032-4 3.0094-2.7886 0.006-4-2.5584-4-2.9844z"/>
 </g>
</svg>
