<?xml version="1.0" encoding="UTF-8" standalone="no"?>
<!-- Created with Inkscape (http://www.inkscape.org/) -->
<svg id="svg7384" xmlns:rdf="http://www.w3.org/1999/02/22-rdf-syntax-ns#" xmlns="http://www.w3.org/2000/svg" height="16" width="16" version="1.1" xmlns:cc="http://creativecommons.org/ns#" xmlns:dc="http://purl.org/dc/elements/1.1/">
 <metadata id="metadata90">
  <rdf:RDF>
   <cc:Work rdf:about="">
    <dc:format>image/svg+xml</dc:format>
    <dc:type rdf:resource="http://purl.org/dc/dcmitype/StillImage"/>
    <dc:title>Gnome Symbolic Icon Theme</dc:title>
   </cc:Work>
  </rdf:RDF>
 </metadata>
 <title id="title9167">Gnome Symbolic Icon Theme</title>
 <g id="g71291" transform="translate(-461 -539)">
  <path id="path4894" style="fill:#babdb6" d="m469 540c-3.866 0-7 3.134-7 7s3.134 7 7 7 7-3.134 7-7-3.134-7-7-7zm-5.7812 4.0312c3.9126-0.0377 7.9716-0.00016 11.562 0 0 1.642-1.2497 2.9688-2.7812 2.9688-1.2754 0-2.3326-0.93056-2.6562-2.1875h-0.6875c-0.3237 1.257-1.3809 2.1875-2.6562 2.1875-1.5315 0-2.7812-1.3268-2.7812-2.9688zm0.78125 4.0312c0.71531 1.0744 2.2352 1.9375 5 1.9375 2.4523 0 4.2108-0.75041 5-1.9375v0.5c0 0.68098-0.8379 2.4062-5 2.4062-3.8808 0-5-1.8737-5-2.4062v-0.5z"/>
 </g>
</svg>
