<?xml version="1.0" encoding="UTF-8" standalone="no"?>
<!-- Created with Inkscape (http://www.inkscape.org/) -->
<svg id="svg7384" xmlns:rdf="http://www.w3.org/1999/02/22-rdf-syntax-ns#" xmlns="http://www.w3.org/2000/svg" height="16" width="16" version="1.1" xmlns:cc="http://creativecommons.org/ns#" xmlns:dc="http://purl.org/dc/elements/1.1/">
 <metadata id="metadata90">
  <rdf:RDF>
   <cc:Work rdf:about="">
    <dc:format>image/svg+xml</dc:format>
    <dc:type rdf:resource="http://purl.org/dc/dcmitype/StillImage"/>
    <dc:title>Gnome Symbolic Icon Theme</dc:title>
   </cc:Work>
  </rdf:RDF>
 </metadata>
 <title id="title9167">Gnome Symbolic Icon Theme</title>
 <g id="g71291" transform="translate(-621 -519)">
  <path id="path4824" style="fill:#babdb6" d="m629 520c-3.866 0-7 3.134-7 7s3.134 7 7 7 7-3.134 7-7-3.134-7-7-7zm-2 4c0.55833 0 1.0312 0.40972 1.0312 0.875v0.78125c0 0.46528-0.47292 0.84375-1.0312 0.84375-0.55833 0-1-0.37847-1-0.84375v-0.78125c0-0.46528 0.44167-0.875 1-0.875zm4 0c0.55833 0 1 0.37848 1 0.84375v0.8125c0 0.46527-0.44167 0.84375-1 0.84375s-1-0.37848-1-0.84375v-0.8125c0-0.46527 0.44167-0.84375 1-0.84375zm1.75 2.2812c1.2078 0.44874 2.0463 0.93632 2.2188 1.5625 0.17247 0.62616-0.30586 1.2416-0.9375 1.25-0.51878 0.007-0.7686-0.2154-0.9375-0.875-0.16672-0.66017 0.0828-1.2924-0.34375-1.9375zm-3.7812 2.6875c2.5883 0 3.9688 0.98014 3.9688 1.5625v0.53125c-0.79224-0.69651-3.1869-1-3.9688-1-0.78187 0-3.0184-0.059-3.9688 1v-0.53125c0-0.74472 1.3804-1.5625 3.9688-1.5625z"/>
 </g>
</svg>
