<?xml version="1.0" encoding="UTF-8" standalone="no"?>
<!-- Created with Inkscape (http://www.inkscape.org/) -->
<svg id="svg7384" xmlns:rdf="http://www.w3.org/1999/02/22-rdf-syntax-ns#" xmlns="http://www.w3.org/2000/svg" height="16" width="16" version="1.1" xmlns:cc="http://creativecommons.org/ns#" xmlns:dc="http://purl.org/dc/elements/1.1/">
 <metadata id="metadata90">
  <rdf:RDF>
   <cc:Work rdf:about="">
    <dc:format>image/svg+xml</dc:format>
    <dc:type rdf:resource="http://purl.org/dc/dcmitype/StillImage"/>
    <dc:title>Gnome Symbolic Icon Theme</dc:title>
   </cc:Work>
  </rdf:RDF>
 </metadata>
 <title id="title9167">Gnome Symbolic Icon Theme</title>
 <g id="g71291" transform="translate(-601 -519)">
  <path id="path71360-0" style="fill:#babdb6" d="m609 520c-3.866 0-7 3.134-7 7s3.134 7 7 7 7-3.134 7-7-3.134-7-7-7zm-2 4c0.55833 0 1.0312 0.47292 1.0312 1.0312v0.96875c0 0.55833-0.47292 1-1.0312 1-0.55833 0-1-0.44167-1-1v-0.96875c0-0.55833 0.44167-1.0312 1-1.0312zm4 0c0.55833 0 1 0.47292 1 1.0312v0.96875c0 0.55833-0.44167 1-1 1s-1-0.44167-1-1v-0.96875c0-0.55833 0.44167-1.0312 1-1.0312zm3 5.9429c-0.76555-0.42797-1.6121-0.92076-2.4757-0.93995-0.65285 0.0193-1.2389 0.6539-1.5243 0.69709-0.54153 0.31352-1.5593 0.19637-2 0-0.91691-0.43721-0.92121-0.68027-1.5433-0.70038-0.85242 0.0189-1.8313 0.40453-2.4567 0.94324v-0.5c0.42161-1.0859 2.3808-2.0446 4-0.87083 0.34921 0.22009 0.42727 0.26657 1.0148 0.33656 0.15925 0.0555 0.59227-0.0338 0.98521-0.33659 1.5816-1.1534 3.2922-0.11851 4 0.87086z"/>
 </g>
</svg>
