#define desk_toggled_width 10
#define desk_toggled_height 10
static unsigned char desk_toggled_bits[] = {
   0xff, 0x03, 0xff, 0x03, 0x03, 0x03, 0x7b, 0x03, 0x7b, 0x03, 0x7b, 0x03,
   0x7b, 0x03, 0x03, 0x03, 0xff, 0x03, 0xff, 0x03};
